<?xml version="1.0" standalone="no"?>
<!DOCTYPE svg PUBLIC "-//W3C//DTD SVG 20010904//EN"
 "http://www.w3.org/TR/2001/REC-SVG-20010904/DTD/svg10.dtd">
<svg version="1.0" xmlns="http://www.w3.org/2000/svg"
 width="640.000000pt" height="640.000000pt" viewBox="0 0 640.000000 640.000000"
 preserveAspectRatio="xMidYMid meet">
<metadata>
Created by potrace 1.14, written by Peter Selinger 2001-2017
</metadata>
<g transform="translate(0.000000,640.000000) scale(0.100000,-0.100000)"
fill="#000000" stroke="none">
<path d="M1280 5127 c-128 -36 -248 -184 -400 -492 -251 -510 -421 -1169 -490
-1899 -21 -227 -5 -649 29 -738 30 -80 121 -133 226 -133 72 1 117 21 186 83
91 82 153 185 311 522 l49 105 32 -59 c96 -179 326 -299 513 -268 105 17 159
66 217 197 42 96 58 172 64 297 9 187 -25 311 -131 471 -69 104 -70 128 -11
139 69 12 505 9 505 -3 0 -6 -14 -77 -31 -158 -56 -263 -56 -356 -1 -414 42
-44 137 -62 179 -32 25 18 87 117 178 288 36 67 82 144 101 171 54 73 61 54
41 -106 -9 -73 -14 -144 -10 -158 15 -62 122 -127 188 -114 63 11 107 73 300
419 88 159 89 160 163 273 56 85 147 192 163 192 16 0 9 -33 -27 -135 -178
-499 -246 -761 -290 -1117 -23 -188 -4 -315 53 -370 60 -58 177 -85 247 -58
49 18 158 182 306 460 39 74 75 139 80 144 5 4 25 -5 47 -22 50 -40 142 -66
202 -58 64 9 103 39 267 209 79 81 148 146 154 142 15 -9 13 -34 -15 -200 -20
-120 -23 -161 -15 -207 26 -163 126 -265 270 -276 56 -4 73 -1 116 21 114 58
233 205 491 607 306 477 351 590 231 578 -38 -3 -45 -14 -160 -218 -213 -377
-512 -775 -626 -834 -32 -17 -35 -17 -54 1 -19 16 -20 26 -15 108 7 99 41 271
88 440 28 102 110 315 214 560 58 138 97 259 93 292 -2 20 -13 33 -39 47 -63
34 -74 24 -213 -171 -70 -98 -136 -188 -147 -200 -31 -34 -53 -29 -72 16 -22
49 -84 114 -134 140 -65 33 -151 45 -219 31 -147 -30 -230 -114 -387 -386 -58
-100 -92 -193 -113 -304 -13 -68 -30 -112 -88 -225 -85 -164 -222 -395 -264
-444 -40 -48 -62 -38 -62 29 0 91 75 436 155 710 18 63 54 192 79 285 26 94
56 203 67 244 47 163 66 278 54 329 -9 42 -58 87 -110 102 -39 11 -49 10 -89
-9 -92 -45 -279 -265 -472 -556 -129 -193 -137 -205 -152 -205 -6 0 -12 46
-14 126 l-3 126 -37 33 c-43 40 -94 53 -134 33 -40 -19 -128 -129 -238 -298
-52 -80 -100 -145 -108 -145 -22 0 -20 50 7 160 47 194 85 397 85 461 0 56 -3
65 -26 83 -15 12 -41 21 -60 21 -45 0 -54 -18 -142 -285 -9 -27 -16 -51 -17
-52 0 -1 -136 -4 -300 -6 -303 -4 -381 -12 -438 -45 -47 -28 -44 -46 26 -160
35 -59 74 -125 85 -148 82 -162 72 -438 -20 -602 -40 -70 -105 -138 -140 -147
-40 -10 -89 25 -137 97 -62 92 -83 170 -83 308 0 364 131 721 342 938 36 37
60 69 58 79 -4 24 -82 45 -137 39 -60 -8 -115 -42 -182 -112 -167 -176 -292
-469 -330 -774 -13 -107 -71 -254 -202 -520 -79 -159 -213 -368 -252 -394 -24
-16 -26 -16 -45 16 -27 46 -33 112 -33 388 -1 318 30 617 95 920 23 112 40
144 140 272 259 330 493 687 604 922 111 236 135 429 63 520 -47 60 -159 88
-249 63z m136 -152 c15 -60 -31 -219 -116 -400 -90 -194 -308 -549 -386 -632
-35 -36 -37 -37 -45 -16 -8 22 3 67 68 268 77 240 178 457 301 645 95 147 162
198 178 135z m3274 -1464 c16 -16 32 -41 36 -57 8 -35 30 -61 66 -80 16 -8 28
-22 28 -30 0 -22 -174 -243 -304 -386 -59 -65 -136 -138 -171 -163 -113 -81
-137 -50 -91 118 81 296 250 587 358 619 40 11 49 9 78 -21z"/>
</g>
</svg>
