<svg fill="none" height="394" viewBox="0 0 415 394" width="415" xmlns="http://www.w3.org/2000/svg"><path d="m38.3 8.40009c6.4-.5 41.6001-.1 49.1001-.9 9.7-1.1 18.9999-1.3 28.9999-2 3.2-.2 33.7-2.6 35-2.4 6.9 1.1 13.7-1.7 20.7-1.2 6.1.5 12.2-.5 18.3 0 3.3.3 6.4 1.6 9.6 1.9 14.6 1.4 29.9-.1 44.3-1.9 14.2-1.700003 32.5 0 47.2 0 24 0 47.5.2 71.2 2.8 14 1.5 29.9-.5 40.4 11.30001 13 14.6 12 56.8 10.6 74.4-.3 4.4-1.6 8.8-1.9 13.1999-1 13.6 0 27.8 0 41.4 0 34 .5 67.9-1.9 101.7-1.7 23.8-3.8 47.7-3.8 71.6 0 8-.9 16.6 0 24.5 1.8 16.3 3.3 33.3-10.6 45.2-13.5 11.6-43.2.3-58.7-.9-10.5-.9-21.3.2-31.8.9-7.3.6-14.8-.4-22.1 0-15.1.9-30.1.9-45.2.9-7.3 0-13.9 1.4-21.2 1.9-14.2.9-44.7 1.1-58.7 0-14.4-1.2-28.8-3.8-43.3-3.8-14.9 0-35.9 1.7-50 0-6.7-.8-13.5-2.6-20.2-3.8-12.8-2.3-15.9999.5-26.8999-8.5-2.9-2.3-5.2-2.7-7.70004-5.7-7.5-8.8-6.90002-28.8-7.70002-39.6-1.799997-23.4-1.299997-47.2 0-70.6.6-11.2 0-22.7 0-33.9 0-26.7 0-53.4 0-80.1 0-10.2 1.90003-20 1.90003-30.1 0-19.6999 2.59999-37.8999 4.79999-57.4999.5-4.7.4-9.4 1-14.1.50004-3.8 2.49994-7.5 2.89994-11.3.6-5.3-.1-9.2 1.9-14.1 2.9-7.2 10.3-11.20001 23.1-9.40001" fill="#fff"/><path d="m38.3 8.40009c6.4-.5 41.6001-.1 49.1001-.9 9.7-1.1 18.9999-1.3 28.9999-2 3.2-.2 33.7-2.6 35-2.4 6.9 1.1 13.7-1.7 20.7-1.2 6.1.5 12.2-.5 18.3 0 3.3.3 6.4 1.6 9.6 1.9 14.6 1.4 29.9-.1 44.3-1.9 14.2-1.700003 32.5 0 47.2 0 24 0 47.5.2 71.2 2.8 14 1.5 29.9-.5 40.4 11.30001 13 14.6 12 56.8 10.6 74.4-.3 4.4-1.6 8.8-1.9 13.1999-1 13.6 0 27.8 0 41.4 0 34 .5 67.9-1.9 101.7-1.7 23.8-3.8 47.7-3.8 71.6 0 8-.9 16.6 0 24.5 1.8 16.3 3.3 33.3-10.6 45.2-13.5 11.6-43.2.3-58.7-.9-10.5-.9-21.3.2-31.8.9-7.3.6-14.8-.4-22.1 0-15.1.9-30.1.9-45.2.9-7.3 0-13.9 1.4-21.2 1.9-14.2.9-44.7 1.1-58.7 0-14.4-1.2-28.8-3.8-43.3-3.8-14.9 0-35.9 1.7-50 0-6.7-.8-13.5-2.6-20.2-3.8-12.8-2.3-15.9999.5-26.8999-8.5-2.9-2.3-5.2-2.7-7.70004-5.7-7.5-8.8-6.90002-28.8-7.70002-39.6-1.799997-23.4-1.299997-47.2 0-70.6.6-11.2 0-22.7 0-33.9 0-26.7 0-53.4 0-80.1 0-10.2 1.90003-20 1.90003-30.1 0-19.6999 2.59999-37.8999 4.79999-57.4999.5-4.7.4-9.4 1-14.1.50004-3.8 2.49994-7.5 2.89994-11.3.6-5.3-.1-9.2 1.9-14.1 2.9-7.2 10.3-11.20001 23.1-9.40001" stroke="#000" stroke-linecap="round" stroke-linejoin="round"/><path d="m389.6 27.3999c5 4.6 10.6 9 14.6 14.6" stroke="#000" stroke-linecap="round" stroke-linejoin="round"/><path d="m401.8 30.1001c-3.8 3.2-7 7-10.9 10.1" stroke="#000" stroke-linecap="round" stroke-linejoin="round"/><path d="m22.8 40.9999c5.4-.7 10.7 1 16 .5 35.5-3.2 71.4 1.7 107-.5 24.2-1.5 49.7-3.4 74-1.5 22.1 1.7 46 1.7 68-.5 10.2-1 20.8.4 31-.5 18.9-1.6 38.2 1 57 1" stroke="#000" stroke-linecap="round" stroke-linejoin="round"/><path d="m32.8001 31.2c-3.1 0-5.7-2.3-5.7-5.1s2.5-5.1 5.7-5.1 5.7 2.3 5.7 5.1c-.1 2.8-2.6 5.1-5.7 5.1z" fill="#fff"/><path d="m32.8001 21c3.1 0 5.7 2.3 5.7 5.1s-2.5 5.1-5.7 5.1-5.7-2.3-5.7-5.1 2.6-5.1 5.7-5.1zm0 1c-2.6 0-4.7 1.9-4.7 4.1s2.1 4.1 4.7 4.1 4.7-1.9 4.7-4.1c-.1-2.3-2.1-4.1-4.7-4.1z" fill="#000"/><path d="m51.2001 30.9001c-3 0-5.3-2.2001-5.3-4.8001s2.4-4.8 5.3-4.8c3 0 5.3 2.2 5.3 4.8s-2.3 4.8001-5.3 4.8001z" fill="#fff"/><path d="m51.2001 21.3c3 0 5.3 2.2 5.3 4.8s-2.4 4.8001-5.3 4.8001c-3 0-5.3-2.2001-5.3-4.8001s2.4-4.8 5.3-4.8zm0 1c-2.4 0-4.3 1.7-4.3 3.8s1.9 3.8001 4.3 3.8001 4.3-1.7001 4.3-3.8001c.1-2.1-1.9-3.8-4.3-3.8z" fill="#000"/><path d="m70 31.1001c-3 0-5.5-2.2-5.5-5s2.5-5 5.5-5 5.5 2.2 5.5 5c0 2.7-2.5 5-5.5 5z" fill="#fff"/><path d="m70 21.1001c3 0 5.5 2.2 5.5 5s-2.5 5-5.5 5-5.5-2.2-5.5-5 2.4-5 5.5-5zm0 1c-2.5 0-4.5 1.8-4.5 4s2 4 4.5 4 4.5-1.8 4.5-4-2-4-4.5-4z" fill="#000"/><path d="m134.2 60.5002c.7-.8 1.2 1.2 1.2 1.2.2 0 .9-1.6 1.4-1.8.4-.2.9.2 1.2 0 1.6-.7.4-.4 1.9 0 .2.1.5-.5.6-.5 2.4-1-.6 1.2 1.9-1.5.7-.7.7.5 1.1.3.3-.1.2-1.8.3-2 .4-1.3 1.3-.9 1.9-1.3.5-.4.7-1.4 1.2-1.8.3-.3 1 .1 1.2-.2.3-.4.6-1.4 1.2-1.5.7-.1.6.2 1.1.5s1.6-.7 2.2-.7c.2 0 1.8 1.3 2.2.8.5-.7.4-2.3 1.2-2.8.6-.4.5.5 1.1 0s.6-1.4 1.4-1.8c.3-.2 1.8.3 2-.2.1-.3-.2-.6-.2-.8.1-.5 1.7-3.7 1.9-3.8.7-.5 1.2-.2 1.7 0 .4.2 1.1-1.3 2-1 .5.2 1 1 1.6 1 .5 0 .8-.6 1.4-.5.3.1.5.6.8.5.9-.2.3-1.3 1.6-1.2.5.1 1 1 1.6 1 .8 0 .5-.9 1.1-1.2.5-.2 1.5.1 2-.2.8-.4.9-1.5 2-1.7.6-.1 1.5.4 2 .3.8-.2.6-1.2 1.6-1.2.4 0 .6.6.9.7.6.2 1.4-.9 2.3-.7.6.2.1.7.3 1 .1.1 1.3-.8 1.6-.8.9-.1 2.6.8 3.3 1.3.6.4.3 1.3 1.2 1.3.3.1.8-.2 1.1 0 .4.2 0 1.5.5 1.3.6-.2 1.1-1.2 1.7-1.5.7-.3.7.8 1.4.8.6 0 2.1.1 2.6-.2.3-.2.4-.8.8-.8 1-.2.7 1.8 1.4 1.7.5-.1.8-1.1 1.4-1 1 .2.5 1.7.8 2.2.3.4 1.7 0 2.3.5.4.4-.3 1-.2 1.2.3.3 1.4-.3 1.7-.2 1.1.4-.1.4.3.8.6.6 1.1-.5 1.7-.3.3.1.1.7.3.8.6.2.9-.7 1.6-.2.7 0 .1.6.3.8.6.6 2.4-.9 2.8-.7.8.4-.1.8 1.1 1 .3 0 1.2-.4 1.4-.2s-.2.7 0 .8c.8.4 1.8-.6 2.6.2.8.6 0 2 .8 1.8.5-.1 2.1-1.9 2.6-1.3.4.4-.5 1.5-.2 1.8.4.5 1.4.2 1.9.8s.1 1.9.5 2.2c.2.2 1.2.1 1.4.5.1.3-.2.7 0 1 .4.6 1.4.1 1.7.8.1.2-.1 1.2 0 1.3.3.2 1.2-.2 1.6 0 .7.4-.1 1.6.3 2s1.6-.3 2 0c.3.2-.2 1.4-.2 1.5.3.4 2.2-.3 2.8-.2 1.5.4.6 2 1.2 2.2.9.2 2.2-.7 3.1-.3.7.3.5.7.9 1.2.4.4 1.3.5 1.7 1 .3.3.2.9.5 1.2.5.5 1.2-.3 1.9.2 1 .7-.6 1-.2 1.5.5.5 1.3.4 1.6 1.3.8 3.3-.5-1.2-.5 1.3 0 .4 1.1.4 1.2.8.1.2 0 .9 0 1.2.2 1 1.6-.3001 2 .1999.4.4-.1 1.2001.2 1.7001s.8.2.9 1-.9 1.8-.8 2.2c.1.5.9.2.9.8s-1.4 1.2-.8 2c.4.5 1.4.9 1.9 1.5.3.4.1 1.6.6 1.7.8.1 2.9-.5 3.6 0 .6.5.1 1.6.5 2.2.5.7 1.7.5 1.4 1.8-.1.6-1.4 1.4-1.2 2 .2.8 1.6 1.3 1.7 2.2.1.5-.5 2-.3 2.3.2.4 1.2.1 1.6.3.7.6.1 1.8999.9 2.2999.6.3 1.4-.3 1.9.5.5.9-.4 1.9001-.5 2.7001-.1 1.0998 1.2 1.4998 1.1 2.6998 0 .3-.7 1.3-.6 1.5 0 .1.7 1.3.8 1.3.4.4 1.1.1 1.6.5.3.2.5 1 .8 1.2.7.4 1.6.5 2 1.5.4.9-.3 1.1-.3 1.8s.7 1.4.6 2.3c-.1.5-.5.9-.5 1.3.1.6 1 .7.8 1.7.6.5-.7 1.3-.8 1.5-.2.5 1.6 4.3 1.7 5 .5 2.4-1.5 2-1.7 3-.1.5.8.8.9 1.2.4 1.4-.8 1.6-.9 2.3 0 .2.3.3.3.5.3 1-.6 1.4-.6 2.2 0 2.9.7-1.4.3 1.3-.2 1.5-1.6 1.5-2 2.5-.2.6.4 1 .3 1.7-.1.6-.7.7-.9 1.2-.3.5.6 1.3.3 2-.2.5-.9.8-.8 1.3.1.3.3.5.3.8 0 1-1.8 1.6-1.7 2 .1.7 1.3 1.6 0 2.2-.2.1-.4 0-.5.2 0 .1 1.1 1.1.3 2.3-.2.3-.7.1-.8.5-.2 1.2 1.2 1.5.2 2.8-.7 1 .3 2.1-.8 3.2-.3.3-1.2 1.2-1.2.7 0-1.2 3.3-.5 1.1 1.8-.1.1-1.2.9-1.2 1 0 .6 1.5 1.3 1.1 2.3-.2.6-.9.9-1.2 1.3-.5.7 0 1.5-.3 2.3s-1.2 1.3-1.6 2c0 .1.2-.1.3 0 .2.2.3.4.3.7.1.3 0 1-.2 1.3-.4.9-1.8 1.1-2.2 1.8-.7 1.5 1.4-1.2.2.8-.5.7-2.4 1.4-3.1 1.7-1.4.5-3 .4-3 .5 2.2 2.4-.3 2.5-.5 2.8-.1.3.5.5.6.8.4 1-.2 1.6-.2 1.8 0 .4.5.7.5 1.2 0 1.1-1.3 1.2-1.6 1.8-.1.1.2.1.3.2s.2.2.2.3c-.6 1.2-3.4.9-4.4 1.7-4.7 4-14.6 4.4-20.1 3.3-3.7-.7-7-2.5-10.6-3.7-2.7-.9-5.6-1.3-8.1-2.7-3.7-1.9-6.9-4.8-10.6-6.7-3.6-1.8-7.1-2.9-10.3-5.5-4.9-4-8.4-9.6-13.2-13.7-2.7-2.3-5.6-4.2-8.1-6.8-2.9-3-5.4-6.3-8.2-9.3-1.4-1.4-3-2.6-4.4-4.2-3.3-3.8-10-17.3-11.2-22.5-1.7-7.3-1.2-14.8998-.3-22.2998.4-3.1 2.3-6.4 1.7-9.7-.3-1.7-1.6-3.1-1.9-4.8-.2-1.3.3-3.8-.5-5-.7-1.2-2-2.6-2.5-4-.5-1.5-.1-3.4-.5-5" fill="#000"/><path d="m134.2 60.5002c.7-.8 1.2 1.2 1.2 1.2.2 0 .9-1.6 1.4-1.8.4-.2.9.2 1.2 0 1.6-.7.4-.4 1.9 0 .2.1.5-.5.6-.5 2.4-1-.6 1.2 1.9-1.5.7-.7.7.5 1.1.3.3-.1.2-1.8.3-2 .4-1.3 1.3-.9 1.9-1.3.5-.4.7-1.4 1.2-1.8.3-.3 1 .1 1.2-.2.3-.4.6-1.4 1.2-1.5.7-.1.6.2 1.1.5s1.6-.7 2.2-.7c.2 0 1.8 1.3 2.2.8.5-.7.4-2.3 1.2-2.8.6-.4.5.5 1.1 0s.6-1.4 1.4-1.8c.3-.2 1.8.3 2-.2.1-.3-.2-.6-.2-.8.1-.5 1.7-3.7 1.9-3.8.7-.5 1.2-.2 1.7 0 .4.2 1.1-1.3 2-1 .5.2 1 1 1.6 1 .5 0 .8-.6 1.4-.5.3.1.5.6.8.5.9-.2.3-1.3 1.6-1.2.5.1 1 1 1.6 1 .8 0 .5-.9 1.1-1.2.5-.2 1.5.1 2-.2.8-.4.9-1.5 2-1.7.6-.1 1.5.4 2 .3.8-.2.6-1.2 1.6-1.2.4 0 .6.6.9.7.6.2 1.4-.9 2.3-.7.6.2.1.7.3 1 .1.1 1.3-.8 1.6-.8.9-.1 2.6.8 3.3 1.3.6.4.3 1.3 1.2 1.3.3.1.8-.2 1.1 0 .4.2 0 1.5.5 1.3.6-.2 1.1-1.2 1.7-1.5.7-.3.7.8 1.4.8.6 0 2.1.1 2.6-.2.3-.2.4-.8.8-.8 1-.2.7 1.8 1.4 1.7.5-.1.8-1.1 1.4-1 1 .2.5 1.7.8 2.2.3.4 1.7 0 2.3.5.4.4-.3 1-.2 1.2.3.3 1.4-.3 1.7-.2 1.1.4-.1.4.3.8.6.6 1.1-.5 1.7-.3.3.1.1.7.3.8.6.2.9-.7 1.6-.2.7 0 .1.6.3.8.6.6 2.4-.9 2.8-.7.8.4-.1.8 1.1 1 .3 0 1.2-.4 1.4-.2s-.2.7 0 .8c.8.4 1.8-.6 2.6.2.8.6 0 2 .8 1.8.5-.1 2.1-1.9 2.6-1.3.4.4-.5 1.5-.2 1.8.4.5 1.4.2 1.9.8s.1 1.9.5 2.2c.2.2 1.2.1 1.4.5.1.3-.2.7 0 1 .4.6 1.4.1 1.7.8.1.2-.1 1.2 0 1.3.3.2 1.2-.2 1.6 0 .7.4-.1 1.6.3 2s1.6-.3 2 0c.3.2-.2 1.4-.2 1.5.3.4 2.2-.3 2.8-.2 1.5.4.6 2 1.2 2.2.9.2 2.2-.7 3.1-.3.7.3.5.7.9 1.2.4.4 1.3.5 1.7 1 .3.3.2.9.5 1.2.5.5 1.2-.3 1.9.2 1 .7-.6 1-.2 1.5.5.5 1.3.4 1.6 1.3.8 3.3-.5-1.2-.5 1.3 0 .4 1.1.4 1.2.8.1.2 0 .9 0 1.2.2 1 1.6-.3001 2 .1999.4.4-.1 1.2001.2 1.7001s.8.2.9 1-.9 1.8-.8 2.2c.1.5.9.2.9.8s-1.4 1.2-.8 2c.4.5 1.4.9 1.9 1.5.3.4.1 1.6.6 1.7.8.1 2.9-.5 3.6 0 .6.5.1 1.6.5 2.2.5.7 1.7.5 1.4 1.8-.1.6-1.4 1.4-1.2 2 .2.8 1.6 1.3 1.7 2.2.1.5-.5 2-.3 2.3.2.4 1.2.1 1.6.3.7.6.1 1.8999.9 2.2999.6.3 1.4-.3 1.9.5.5.9-.4 1.9001-.5 2.7001-.1 1.0998 1.2 1.4998 1.1 2.6998 0 .3-.7 1.3-.6 1.5 0 .1.7 1.3.8 1.3.4.4 1.1.1 1.6.5.3.2.5 1 .8 1.2.7.4 1.6.5 2 1.5.4.9-.3 1.1-.3 1.8s.7 1.4.6 2.3c-.1.5-.5.9-.5 1.3.1.6 1 .7.8 1.7.6.5-.7 1.3-.8 1.5-.2.5 1.6 4.3 1.7 5 .5 2.4-1.5 2-1.7 3-.1.5.8.8.9 1.2.4 1.4-.8 1.6-.9 2.3 0 .2.3.3.3.5.3 1-.6 1.4-.6 2.2 0 2.9.7-1.4.3 1.3-.2 1.5-1.6 1.5-2 2.5-.2.6.4 1 .3 1.7-.1.6-.7.7-.9 1.2-.3.5.6 1.3.3 2-.2.5-.9.8-.8 1.3.1.3.3.5.3.8 0 1-1.8 1.6-1.7 2 .1.7 1.3 1.6 0 2.2-.2.1-.4 0-.5.2 0 .1 1.1 1.1.3 2.3-.2.3-.7.1-.8.5-.2 1.2 1.2 1.5.2 2.8-.7 1 .3 2.1-.8 3.2-.3.3-1.2 1.2-1.2.7 0-1.2 3.3-.5 1.1 1.8-.1.1-1.2.9-1.2 1 0 .6 1.5 1.3 1.1 2.3-.2.6-.9.9-1.2 1.3-.5.7 0 1.5-.3 2.3s-1.2 1.3-1.6 2c0 .1.2-.1.3 0 .2.2.3.4.3.7.1.3 0 1-.2 1.3-.4.9-1.8 1.1-2.2 1.8-.7 1.5 1.4-1.2.2.8-.5.7-2.4 1.4-3.1 1.7-1.4.5-3 .4-3 .5 2.2 2.4-.3 2.5-.5 2.8-.1.3.5.5.6.8.4 1-.2 1.6-.2 1.8 0 .4.5.7.5 1.2 0 1.1-1.3 1.2-1.6 1.8-.1.1.2.1.3.2s.2.2.2.3c-.6 1.2-3.4.9-4.4 1.7-4.7 4-14.6 4.4-20.1 3.3-3.7-.7-7-2.5-10.6-3.7-2.7-.9-5.6-1.3-8.1-2.7-3.7-1.9-6.9-4.8-10.6-6.7-3.6-1.8-7.1-2.9-10.3-5.5-4.9-4-8.4-9.6-13.2-13.7-2.7-2.3-5.6-4.2-8.1-6.8-2.9-3-5.4-6.3-8.2-9.3-1.4-1.4-3-2.6-4.4-4.2-3.3-3.8-10-17.3-11.2-22.5-1.7-7.3-1.2-14.8998-.3-22.2998.4-3.1 2.3-6.4 1.7-9.7-.3-1.7-1.6-3.1-1.9-4.8-.2-1.3.3-3.8-.5-5-.7-1.2-2-2.6-2.5-4-.5-1.5-.1-3.4-.5-5" stroke="#000" stroke-linecap="round" stroke-linejoin="round"/><path d="m134.3 61.2c-3.5 3.6-.9 3.5-.9 4 0 .4-1.1 1.1-.9 1.8.1.4 1 .4.9.8s-.8 1.1-.9 1.5c-.2.5.3.8.3 1.2 0 .3-.5.4-.6.7-.4.7-.5 2-.6 2.8-.1.6.6 1 .5 1.3-.3.6-1.7 1.6-1.6 2.5.1.4.9.7.9.5s-.4 0-.6 0c-.3 0-.7-.2-.9 0-.4.3-.1 1.3-.3 1.7-.3.5-1.1-.1-1.6.5-.3.4-.6 1.8-.9 1.8-1.9 0-.7-.2-1.6.7-.1.1-.7.1-.9.3-.2.3-.1.7-.3 1-.8 1.1-2.4 1.1-2.2 3 0 .2.3.2.3.3 0 .2-.4-.1-.6 0-.5.2-.8.2-1.1.7-.4.6.2 0-.3 1-.2.4-1.4.1-1.7.7-.2.3 0 .7-.2 1-1.2 1.6-3.1.7-2.5 3.8.1.4.8.4.8.3 0-.2-1.9.8-1.6 2.3.1.6 1.2.7 1.2.8.2.8-1.5 2.6-1.2 3.3.2.5 1.1.4.9 1-.3 1-1.5 2.6-.9 3.8.2.5.8.3 1.1.7.5.5.2.9.6 1.5.2.3.7.2.8.5 0 .1-.3.2-.3.3-.2.5.2 1.2.2 1.7 0 .2.7.5.5.5-.5 0-1.6.1-1.9.7-.8 1.6.8 2.2.8 1.7 0-.4-1.9 1.4-2 2-.2 1.6 1.4 1.8 1.1 1.5-.4-.4-.3.5-.2.7.2.2.7.1.9.3.2.3-.3 1.6-.3 2 0 .3-.1.9.2 1.2.2.2.7.1.6.3-.1.3-.7 0-.6.5.2 1.3.8.3 1.2 1 .4.6-1.9 1.7-1.2 2.7.1.1.5 0 .5.2s-1.1.8-1.2 1.2c-.3.8.7 1 .5 1.5-.4.9-1.7 1.1-1.9 2.2-.1.6.6.9.5 1.2-.2.5-1.3 1-1.6 1.7-.4 1.2.9 1.7.9 2.3 0 .4-.7.9-.2 1.5.8.8 1.8 0 2 0 .4 0-.1.8 0 1.2.2.7.9.6 1.1.8.4.7-.3 1.7.5 2.5.2.2 1 .3 1.1.3.3.4.2 1.1.5 1.5.2.2 2.3 1.7 2.6 1.8 1.3.4.6-.2 1.4-.2.3 0 1.2 1.1 1.7 1.2.2 0 .3-.5.5-.3.1.1 0 .3 0 .5 0 2.2-3.6 1.3-2.3 5 .1.4.9.8 1.2.8.2 0-.5-.2-.6 0-.2.2-.3 1.1-.2 1.3.2.5.8.3 1.1.8.1.3-.1.7 0 1 .1.2.6-.4.6-.2 0 .7-1.2 1.6-.5 2.3s.8 1.4 1.4 2.2c.1.1.9.4.9.5 0 .4-.8.8-.5 1.5.4.9 1.9 1 2 1.5.1.4-.2.8-.3 1.2-.1.7.1-.1.5.5 0 .1-.4 1.5-.3 1.8.1.6.7.5.9.8.3.4.2 1.2.5 1.7.7 1.3 1.5.3 1.4.3-.7 0 .7 2.3.8 2.3.2.3 2.1 1.3 1.6.5-.5-.7 0 .9.2 1.2.7 1 1.1.2 1.4.2s.3.7.6.8c1.5 1 1.9-2.5 1.9-2.3 0 1.2.8 1.7 1.9 1.5.4-.1.7-.6.8-1 .1-.3-.3-.8 0-.8.4 0 2.1.6 2.3 1 .5.7-.6 1.8.2 2.7.9 1 1.3.3 2.2.5.3.1 1.7 2.8 2.5 1.2 0-.1-1.3.9.2 1.5.4.2 1.2-.1 1.2-.7 0-.7-.6 1.6-.2 2.2 1.1 1.5 2.5-.9 1.7-.7-1.5.4.8 2.4 1.2 2.5.7.2 1.8 0 2.5.3.3.2.3.8.6 1 .4.2.9 0 1.2-.2.2-.1.3-.5.5-.3.1.1-.3.3-.3.5 0 1.1.9.8 1.2 1.5.3.6.2 1.7.8 2.2.5.5 2.8-.2 2.2-1-.7-1-1.6 1 .5 2.3.1.1.2.1.3.2.2 0 .3-.1.5 0 .5.2 1 1.5 1.7 1 .1-.1-.1-.3 0-.3.6 0-.7.6 1.7.2.5-.1 1.1.4 1.7.3.3 0 .5-.5.8-.5s.6 1.3 1.1 1.5c1.4.6 1.6-1 1.6-.8 0 .7-.5 2.3.6 2.7.4.1 2.1-.3 1.4-1-.7-.8-1.1 1.6-.9 2 .1.2 2.9 3.2 3.1 3.3 1.2.5.7-1.2 1.2-1.2 0 0-.2 1.6.5 2 .5.3 1-.1 1.2 0 .6.2.8 1.2 1.4 1.5.5.3 1-1.3 1.2-.7.3.7-.1 1.5.8 1.8 1.5.5 1.8-1.2 2.2-1.2.7 0 .8.7 1.4.7 1.1 0 .5-1.2 1.4-1.2.4 0 .8.6 1.2.5 1.3-.2 1.2-2.1 1.2-1.7 0 1 1.3 2.3 2.2 1.3.2-.2.7-1.5.8-1.5.4 0 .6.6.9.7.3 0 .6-.4.9-.3.5.2 1.1 1.3 1.9.8 1.1-.6.9-2.4 1.6-3.2.7-.7 2.3.7 3.3.2.6-.3 7.4-8.9 7.9-9.8 5.5-9.1 9.5-23.5 8.7-34.3-.5-6.4-2.3-12.6-3.3-19-.7-4.8-1.2-9.8-2.3-14.5-.8-3.4-2-6.7-3-10-4.3-14.8999-9.4-23.7-20.8-33.5-3.1-2.7-12.2-6.3-16.2-7.3-3-.7-1.1 0-4-.5-2.4-.4-4.7-1.7-7.2-2-2.4-.3-4.9.5-7.3.5-1.9 0-15.2-3.7-17.3-5" fill="#000"/><path d="m134.3 61.2c-3.5 3.6-.9 3.5-.9 4 0 .4-1.1 1.1-.9 1.8.1.4 1 .4.9.8s-.8 1.1-.9 1.5c-.2.5.3.8.3 1.2 0 .3-.5.4-.6.7-.4.7-.5 2-.6 2.8-.1.6.6 1 .5 1.3-.3.6-1.7 1.6-1.6 2.5.1.4.9.7.9.5s-.4 0-.6 0c-.3 0-.7-.2-.9 0-.4.3-.1 1.3-.3 1.7-.3.5-1.1-.1-1.6.5-.3.4-.6 1.8-.9 1.8-1.9 0-.7-.2-1.6.7-.1.1-.7.1-.9.3-.2.3-.1.7-.3 1-.8 1.1-2.4 1.1-2.2 3 0 .2.3.2.3.3 0 .2-.4-.1-.6 0-.5.2-.8.2-1.1.7-.4.6.2 0-.3 1-.2.4-1.4.1-1.7.7-.2.3 0 .7-.2 1-1.2 1.6-3.1.7-2.5 3.8.1.4.8.4.8.3 0-.2-1.9.8-1.6 2.3.1.6 1.2.7 1.2.8.2.8-1.5 2.6-1.2 3.3.2.5 1.1.4.9 1-.3 1-1.5 2.6-.9 3.8.2.5.8.3 1.1.7.5.5.2.9.6 1.5.2.3.7.2.8.5 0 .1-.3.2-.3.3-.2.5.2 1.2.2 1.7 0 .2.7.5.5.5-.5 0-1.6.1-1.9.7-.8 1.6.8 2.2.8 1.7 0-.4-1.9 1.4-2 2-.2 1.6 1.4 1.8 1.1 1.5-.4-.4-.3.5-.2.7.2.2.7.1.9.3.2.3-.3 1.6-.3 2 0 .3-.1.9.2 1.2.2.2.7.1.6.3-.1.3-.7 0-.6.5.2 1.3.8.3 1.2 1 .4.6-1.9 1.7-1.2 2.7.1.1.5 0 .5.2s-1.1.8-1.2 1.2c-.3.8.7 1 .5 1.5-.4.9-1.7 1.1-1.9 2.2-.1.6.6.9.5 1.2-.2.5-1.3 1-1.6 1.7-.4 1.2.9 1.7.9 2.3 0 .4-.7.9-.2 1.5.8.8 1.8 0 2 0 .4 0-.1.8 0 1.2.2.7.9.6 1.1.8.4.7-.3 1.7.5 2.5.2.2 1 .3 1.1.3.3.4.2 1.1.5 1.5.2.2 2.3 1.7 2.6 1.8 1.3.4.6-.2 1.4-.2.3 0 1.2 1.1 1.7 1.2.2 0 .3-.5.5-.3.1.1 0 .3 0 .5 0 2.2-3.6 1.3-2.3 5 .1.4.9.8 1.2.8.2 0-.5-.2-.6 0-.2.2-.3 1.1-.2 1.3.2.5.8.3 1.1.8.1.3-.1.7 0 1 .1.2.6-.4.6-.2 0 .7-1.2 1.6-.5 2.3s.8 1.4 1.4 2.2c.1.1.9.4.9.5 0 .4-.8.8-.5 1.5.4.9 1.9 1 2 1.5.1.4-.2.8-.3 1.2-.1.7.1-.1.5.5 0 .1-.4 1.5-.3 1.8.1.6.7.5.9.8.3.4.2 1.2.5 1.7.7 1.3 1.5.3 1.4.3-.7 0 .7 2.3.8 2.3.2.3 2.1 1.3 1.6.5-.5-.7 0 .9.2 1.2.7 1 1.1.2 1.4.2s.3.7.6.8c1.5 1 1.9-2.5 1.9-2.3 0 1.2.8 1.7 1.9 1.5.4-.1.7-.6.8-1 .1-.3-.3-.8 0-.8.4 0 2.1.6 2.3 1 .5.7-.6 1.8.2 2.7.9 1 1.3.3 2.2.5.3.1 1.7 2.8 2.5 1.2 0-.1-1.3.9.2 1.5.4.2 1.2-.1 1.2-.7 0-.7-.6 1.6-.2 2.2 1.1 1.5 2.5-.9 1.7-.7-1.5.4.8 2.4 1.2 2.5.7.2 1.8 0 2.5.3.3.2.3.8.6 1 .4.2.9 0 1.2-.2.2-.1.3-.5.5-.3.1.1-.3.3-.3.5 0 1.1.9.8 1.2 1.5.3.6.2 1.7.8 2.2.5.5 2.8-.2 2.2-1-.7-1-1.6 1 .5 2.3.1.1.2.1.3.2.2 0 .3-.1.5 0 .5.2 1 1.5 1.7 1 .1-.1-.1-.3 0-.3.6 0-.7.6 1.7.2.5-.1 1.1.4 1.7.3.3 0 .5-.5.8-.5s.6 1.3 1.1 1.5c1.4.6 1.6-1 1.6-.8 0 .7-.5 2.3.6 2.7.4.1 2.1-.3 1.4-1-.7-.8-1.1 1.6-.9 2 .1.2 2.9 3.2 3.1 3.3 1.2.5.7-1.2 1.2-1.2 0 0-.2 1.6.5 2 .5.3 1-.1 1.2 0 .6.2.8 1.2 1.4 1.5.5.3 1-1.3 1.2-.7.3.7-.1 1.5.8 1.8 1.5.5 1.8-1.2 2.2-1.2.7 0 .8.7 1.4.7 1.1 0 .5-1.2 1.4-1.2.4 0 .8.6 1.2.5 1.3-.2 1.2-2.1 1.2-1.7 0 1 1.3 2.3 2.2 1.3.2-.2.7-1.5.8-1.5.4 0 .6.6.9.7.3 0 .6-.4.9-.3.5.2 1.1 1.3 1.9.8 1.1-.6.9-2.4 1.6-3.2.7-.7 2.3.7 3.3.2.6-.3 7.4-8.9 7.9-9.8 5.5-9.1 9.5-23.5 8.7-34.3-.5-6.4-2.3-12.6-3.3-19-.7-4.8-1.2-9.8-2.3-14.5-.8-3.4-2-6.7-3-10-4.3-14.8999-9.4-23.7-20.8-33.5-3.1-2.7-12.2-6.3-16.2-7.3-3-.7-1.1 0-4-.5-2.4-.4-4.7-1.7-7.2-2-2.4-.3-4.9.5-7.3.5-1.9 0-15.2-3.7-17.3-5" stroke="#000" stroke-linecap="round" stroke-linejoin="round"/><path d="m191.2 178.5c2 5.9 6.9 19.3-.2 23-3.4 1.8-10.3 6.1-13 9.1-4.6 4.9-2.7 12.9-.3 18.6 6.9 16.1 9.7 17.6 20.9 30.2 6.8 7.7 14.8 14.3 25.4 12.5 8.5-1.4 17.7-7.7 22.9-14.7 1.2-1.6 1.6-3.5 2.8-5.2 1.1-1.5 2.7-2.6 3.9-4.2 3.3-4.4 10-15.7 13.1-20.9 2.9-4.9 13-10.1 12.2-15.3-.3-1.8-10-5.9-11.5-5.9-7.9 0-16.7-16-23.8-19.2-7.3-3.3-10.7-18.4-13.8-28.3-.6-1.8-.4-7.4-2.8-8.1-1.7-.5-3.4 1.8-4.6 2.7-5.3 4.3-10.4 9-15.4 13.7-2.2 2.1-5 3-7.3 4.9-2 1.6-5.6 2.4-7.4 4.2" fill="#613729"/><path d="m264.7 199.8c-1.5 2.4-3.7 4.1-5.8 5.9-4.1 3.5-8.9 7.4-13.7 9.6-4 1.8-14.1 0-18 8.3" stroke="#000" stroke-linecap="round" stroke-linejoin="round" stroke-opacity=".1"/><path d="m213.7 226.9c-4.5-3.9-10.4-2.1-15.7-1.7-2.5.2-13.6-.1-15.9-.6" stroke="#000" stroke-linecap="round" stroke-linejoin="round" stroke-opacity=".1"/><path d="m193.2 199.4c.1 9.4 1.3 19.1 4.8 27.8 10.4 25.9 27.2 21.7 38.6-.4 4.4-8.5 5.6-18.4 8.4-27.4.8-2.7 2.5-10.8-.2-12.7" stroke="#ffc200" stroke-linecap="round" stroke-linejoin="round"/><path d="m228.6 153.3c-.6 15.8-15.5 27.4-29.8 28.8-1.6.2-6.2.2-7-1.7-.1-.2 9.7-6.8 10.4-7.3 4.5-3.3 8.7-7 12.8-10.8 4.3-3.9 9-6.9 13.4-10.4" fill="#000" fill-opacity=".1"/><path d="m171 87.2001c-12.3 7.1-19.6 24.4999-15.7 39.1999 2 7.5 4.9 15 7.2 22.4 2 6.5 6.1 12.6 10.1 17.9 11.9 15.9 25.3 19.4 41 6.7 5.9-4.8 12.9-10.9 15-18.9 3.7-14-4.1-28.1-8.7-40.5-1.8-4.9-2.9-9.9-5.4-14.4999-7.5-14-19.7-21.6-34.5-15.6-3 1.2-7.6 1.5-9.7 4.3" fill="#613729"/><path d="m227.8 136.4c8.8 5.3 6.9-16.5 2.5-22-5.9-7.4-11.3-.3-8.5 8.8.7 2.2 1.1 4.6 2 6.7 1.2 2.9 2.4 4.9 4.2 7.3" fill="#613729"/><path d="m226.4 122.3c-.3 1.3.5 1.9.9 3 .6 1.5-.3 3.5.5 4.9 1.8 3.3 4.7-7.1-.4-8" fill="#000" fill-opacity=".1"/><path d="m183.6 162.8c.3-4.5 2-10 6.1-12.1.8-.4 1.7 0 2.5-.2.3-.1 1-1.5 1.6-1.8 3.9-2.1 8.3-.8 12.3.1.6.1 2.5.2 2.9.8.9 1.3-2.5 6.1-3.1 7.2-4.5 8.5-14.7 9.6-22.1 6.5" fill="#d85342"/><path d="m184.3 162.8c2.7-.6 4.2-3.1 6.4-4.5 1.3-.8 2.9-1.2 4.2-2 1.6-1 2.7-2.2 4.5-2.8 2.8-1 7.2-1.1 9.1-3.8" stroke="#000" stroke-linecap="round" stroke-linejoin="round" stroke-opacity=".1"/><path d="m180.5 142.2c-.3 1.3 1 6.4 3 5.3 1.3-.7-.1-2.8 1.8-3.2 1.7-.3 3.6 1.1 5.2-.2 1.4-1.1 2-3.9 3.9-4.3 1.6-.3 2.4 2.7 4.2.7 1.3-1.4 1.1-3.8-.1-5" stroke="#000" stroke-linecap="round" stroke-linejoin="round" stroke-opacity=".15"/><path d="m183.9 110.4c.5.4 1.8 2.7 2.7 2.4 1.1-.5 3.9-3.4 5-4.4 3.3-2.9 8.1-5.1 12.4-4.5 1.7.2 3.4.8 4.8 1.9.2.2 2.3 1.7 2.3 1.7.6-1.3-5.3-5.8-7.4-6.5-2-.7-4.2-.1-6.2.1-4.2.6-10 6.3-13.3 9" fill="#000"/><path d="m183.9 110.4c.5.4 1.8 2.7 2.7 2.4 1.1-.5 3.9-3.4 5-4.4 3.3-2.9 8.1-5.1 12.4-4.5 1.7.2 3.4.8 4.8 1.9.2.2 2.3 1.7 2.3 1.7.6-1.3-5.3-5.8-7.4-6.5-2-.7-4.2-.1-6.2.1-4.2.6-10 6.3-13.3 9" stroke="#000" stroke-linecap="round" stroke-linejoin="round"/><path d="m172.8 117.5c0 .7 1.1 1.8.9 2.5-.1.4-4.1 1-4.8 1.1-6.3 1.1-11.4 4.1-11.4 11.8 0 .3 0-.7 0-1 0-.7 0-1.5 0-2.2 0-2.6.1-4.8 1.4-7.1.7-1.2 1.8-2.5 3-3.2 1.8-1.2 8.4-2.6 10.6-2.6" fill="#000"/><path d="m172.8 117.5c0 .7 1.1 1.8.9 2.5-.1.4-4.1 1-4.8 1.1-6.3 1.1-11.4 4.1-11.4 11.8 0 .3 0-.7 0-1 0-.7 0-1.5 0-2.2 0-2.6.1-4.8 1.4-7.1.7-1.2 1.8-2.5 3-3.2 1.8-1.2 8.4-2.6 10.6-2.6" stroke="#000" stroke-linecap="round" stroke-linejoin="round"/><path d="m192.4 121.9c1.8-6.5 8.8-9.7 14.6-8" stroke="#000" stroke-linecap="round" stroke-linejoin="round"/><path d="m198.8 114.9c-.7.6-1.5 1.2-1.6 2.2-.3 2.7 3.7 4.4 4.9 1.8 1.4-2.9-.9-5.9-3-4.2" fill="#000"/><path d="m198.8 114.9c-.7.6-1.5 1.2-1.6 2.2-.3 2.7 3.7 4.4 4.9 1.8 1.4-2.9-.9-5.9-3-4.2" stroke="#000" stroke-linecap="round" stroke-linejoin="round"/><path d="m176.7 130.7c-5.4-2-10.8 1.1-13.6 6.2" stroke="#000" stroke-linecap="round" stroke-linejoin="round"/><path d="m170.3 130.8c-.7.1-1.3.5-1.8 1-1.8 2 .4 4.2 2.5 3.8 3.3-.5 2.6-4.3-.2-4.9" fill="#000"/><path d="m170.3 130.8c-.7.1-1.3.5-1.8 1-1.8 2 .4 4.2 2.5 3.8 3.3-.5 2.6-4.3-.2-4.9" stroke="#000" stroke-linecap="round" stroke-linejoin="round"/><path d="m176.9 124.7c2.2-2.7 6.5-5 9.9-4.4" stroke="#ffc200" stroke-linecap="round" stroke-linejoin="round"/><path d="m220.7 112c-2.2 0-7.1-2.1-8.9-1.9-.7.1-1.4.7-2 1" stroke="#ffc200" stroke-linecap="round" stroke-linejoin="round"/><path d="m155.2 135.7c-.4.2-.8.3-1.2.5" stroke="#ffc200" stroke-linecap="round" stroke-linejoin="round"/><path d="m189.2 125.1c-.7 1.7 2.2 6.8 4 5.2 1.7-1.5-2.2-5.4-3.5-5.6" fill="#fff" fill-opacity=".424"/><path d="m178.3 128.6c-.2.7-.3 1.5-.2 2.3 1.2 11.3 6.4-1.7.5-2.5" fill="#fff" fill-opacity=".424"/><path d="m206.5 108.4c3.5 1.6 5.5 5.8 6.2 9.6 3 15.9-16.4 19.7-23.4 7.6-5.7-9.8 8.6-22.9 17.2-17.1" fill="#fff" fill-opacity=".098"/><path d="m206.5 108.4c3.5 1.6 5.5 5.8 6.2 9.6 3 15.9-16.4 19.7-23.4 7.6-5.7-9.8 8.6-22.9 17.2-17.1" stroke="#ffc200" stroke-linecap="round" stroke-linejoin="round"/><path d="m176.5 124.1c-4.3-3.3-9.4-1.7-13.8.4-14 6.4-3.4 25.5 5.2 23.9 10-1.8 13.2-7.6 11.5-18.5-.3-1.9-.7-3.4-2.4-5.3" fill="#fff" fill-opacity=".098"/><path d="m176.5 124.1c-4.3-3.3-9.4-1.7-13.8.4-14 6.4-3.4 25.5 5.2 23.9 10-1.8 13.2-7.6 11.5-18.5-.3-1.9-.7-3.4-2.4-5.3" stroke="#ffc200" stroke-linecap="round" stroke-linejoin="round"/><path d="m192.8 192.6c-.3 12.6 5 23 10.1 33.8 1.7 3.5 2.4 7.6 3.9 11.2 2.4 5.5 5 10.6 7.8 15.9 1.8 3.4 2.9 7 4.4 10.4.6 1.4.7 3.1.9 4.7 0 .2.2.8.1.7-1.4-1.2-8.9-15.5-10.7-18.3-1.4-2.3-3.3-4.2-4.7-6.4-4.2-6.5-13.9-31.7-13.9-39.9 0-4.1 1.7-7.6 2.2-11.5" fill="#000" fill-opacity=".1"/><path d="m193.8 188c-1.2 10-1.4 20.7 3.7 29.1 1.3 2 2.2 5.8 3.1 8 .6 1.4 2.1 5.2 2.6 6.7 2.4 7.8 7.9 17.1 11.5 23.8 2.4 4.5 4.9 7.4 6 11.9 3.2 12.9-.6 24.7-2.3 38-.6 4.6.9 29.1-.9 32.2-1.5 2.6-12.4 7.3-15.8 7.2-6.5-.3-12.2-1.1-18.8-.3-1.6.2-8.5-.7-9.2 1.1-1.3 3.7 15.2 9 14.6 12.7-1.2 7.6 46.4 9.7 43.4 21.2-2.4 9.5-41.8 12.2-44.6 13-1 .3-29.6-1.3-30.4-1.5-2.6-.4-4.8 2.2-7.3 2-3.8-.2-7.5-1.5-11.3-2.1-7.4-1.3-18.9.2-24.8-6.3-6.7-7.5-4.3-22.9-3.8-32.1 1.3-24.9 6.2-48.7 13.1-72.7 1.8-6.4 2.6-13.4 4.8-19.6 1.4-4 3.4-8.2 4.2-12.4.5-2.5.2-5.2.7-7.8 1.6-7.7 5.5-15.3 10.1-21.4 6.8-9 15.1-9.5 25-12.5 2.8-.8 6-.2 8.7-1.1 2.7-.8 5.5-7 7.4-9 3-3.1 7.1-5 10.3-8.1z" fill="#0d0e3a"/><path d="m193.8 188c-1.2 10-1.4 20.7 3.7 29.1 1.3 2 2.2 5.8 3.1 8 .6 1.4 2.1 5.2 2.6 6.7 2.4 7.8 7.9 17.1 11.5 23.8 2.4 4.5 4.9 7.4 6 11.9 3.2 12.9-.6 24.7-2.3 38-.6 4.6.9 29.1-.9 32.2-1.5 2.6-12.4 7.3-15.8 7.2-6.5-.3-12.2-1.1-18.8-.3-1.6.2-8.5-.7-9.2 1.1-1.3 3.7 15.2 9 14.6 12.7-1.2 7.6 46.4 9.7 43.4 21.2-2.4 9.5-41.8 12.2-44.6 13-1 .3-29.6-1.3-30.4-1.5-2.6-.4-4.8 2.2-7.3 2-3.8-.2-7.5-1.5-11.3-2.1-7.4-1.3-18.9.2-24.8-6.3-6.7-7.5-4.3-22.9-3.8-32.1 1.3-24.9 6.2-48.7 13.1-72.7 1.8-6.4 2.6-13.4 4.8-19.6 1.4-4 3.4-8.2 4.2-12.4.5-2.5.2-5.2.7-7.8 1.6-7.7 5.5-15.3 10.1-21.4 6.8-9 15.1-9.5 25-12.5 2.8-.8 6-.2 8.7-1.1 2.7-.8 5.5-7 7.4-9 3-3.1 7.1-5 10.3-8.1z" stroke="#0d0e3a" stroke-linecap="round" stroke-linejoin="round"/><path d="m252.5 337.9c-11.6-2.5-23.2-.7-35-.3-10.8.4-21.5-1.3-32.3-2.2-2.1-.2-5.7-.4-7.8-.5-6-.3-11.5-.3-17.4-1.1-3.6-.5-5.9-3.1-9.4-3.6-2.5-.3-1.8 4.9-2.1 6.8-.5 2.9-3.6 5.9-3.8 8.3-.1 1.1.6 2 1.2 2.8 2.4 3.3 21.6 10 26.1 11.7 3.7 1.4 6.9 4.3 10.7 5.7 6.7 2.6 13.7 5.1 20.2 8.2 8.1 3.9 16.6 10.3 25.8 11.3 6.5.7 12.6 1 19 1.3 2.4.1 8.3 1.1 10.5-.4.9-.6.4-1.7.2-2.5-.6-2 0-4.4-.9-6.4-1.3-2.9-4.5-4.9-5.3-7.9-1.2-4.5-2.5-12-1.6-16.7 1-5.1 2.5-8.3 2-13.7" fill="#613729"/><path d="m252.5 337.9c-11.6-2.5-23.2-.7-35-.3-10.8.4-21.5-1.3-32.3-2.2-2.1-.2-5.7-.4-7.8-.5-6-.3-11.5-.3-17.4-1.1-3.6-.5-5.9-3.1-9.4-3.6-2.5-.3-1.8 4.9-2.1 6.8-.5 2.9-3.6 5.9-3.8 8.3-.1 1.1.6 2 1.2 2.8 2.4 3.3 21.6 10 26.1 11.7 3.7 1.4 6.9 4.3 10.7 5.7 6.7 2.6 13.7 5.1 20.2 8.2 8.1 3.9 16.6 10.3 25.8 11.3 6.5.7 12.6 1 19 1.3 2.4.1 8.3 1.1 10.5-.4.9-.6.4-1.7.2-2.5-.6-2 0-4.4-.9-6.4-1.3-2.9-4.5-4.9-5.3-7.9-1.2-4.5-2.5-12-1.6-16.7 1-5.1 2.5-8.3 2-13.7" stroke="#613729" stroke-linecap="round" stroke-linejoin="round"/><path d="m241.5 182.2c-4.2 11.3-1.5 23.4-7.5 34.1-.9 1.6-7 10.3-7 11.1-.1 2.7 3.4 5.3 2.8 8-.6 3.1-2.5 5.8-2.8 9.2-.7 8.3-6.5 18-7.3 26.2-.2 2.2.4 2.6.3 4.7-.5 8.8-1.4 18.9-1.9 27.6-.2 4.3-3.9 32.3-1.1 33.1.2.1-44.5-3.4-50.6-3.6-.8 0 0 5.4-.4 6.1-.7 1.4.6 3.2-.8 7.6-.8 2.4-4.6 14.3-4.1 19.3.2 2.1 11.5.4 15.5 1.4 11.8 2.7 41.6 14.6 42.6 16.6 1.4 2.6 35.4 3.4 39.4 2.5 3.3-.8 16.1 2.9 19.5 2.1 2-.5 2.5-2.3 4-3.5 3.9-3 7.9-5.2 11.2-9 1.4-1.6 2-3.5 3.4-5.1 5.2-5.7 13.5-11.1 16.6-18.5 8.2-19.5 4.1-46.8 3.9-67.6-.1-5.5-2.1-11.3-2-16.7.2-12.1 1.4-47.9-7-57.2-4.1-4.6-34.8-15-41.5-16.1-3.1-.5-7 .2-10-.6-.6-.2-3-3.2-3.6-3.7-3.1-2.4-8.4-6.4-11.3-8" fill="#0d0e3a"/><path d="m241.5 182.2c-4.2 11.3-1.5 23.4-7.5 34.1-.9 1.6-7 10.3-7 11.1-.1 2.7 3.4 5.3 2.8 8-.6 3.1-2.5 5.8-2.8 9.2-.7 8.3-6.5 18-7.3 26.2-.2 2.2.4 2.6.3 4.7-.5 8.8-1.4 18.9-1.9 27.6-.2 4.3-3.9 32.3-1.1 33.1.2.1-44.5-3.4-50.6-3.6-.8 0 0 5.4-.4 6.1-.7 1.4.6 3.2-.8 7.6-.8 2.4-4.6 14.3-4.1 19.3.2 2.1 11.5.4 15.5 1.4 11.8 2.7 41.6 14.6 42.6 16.6 1.4 2.6 35.4 3.4 39.4 2.5 3.3-.8 16.1 2.9 19.5 2.1 2-.5 2.5-2.3 4-3.5 3.9-3 7.9-5.2 11.2-9 1.4-1.6 2-3.5 3.4-5.1 5.2-5.7 13.5-11.1 16.6-18.5 8.2-19.5 4.1-46.8 3.9-67.6-.1-5.5-2.1-11.3-2-16.7.2-12.1 1.4-47.9-7-57.2-4.1-4.6-34.8-15-41.5-16.1-3.1-.5-7 .2-10-.6-.6-.2-3-3.2-3.6-3.7-3.1-2.4-8.4-6.4-11.3-8" stroke="#0d0e3a" stroke-linecap="round" stroke-linejoin="round"/><path d="m155.1 324.2c-.5 3.4-1.4 8.5-1.8 11.4-.2 1.4-.9 3.2-1.2 5-.4 2.4-.4 7-1.6 9.2-6 11.1-14.9-32 4.2-30.1" fill="#0d0e3a"/><path d="m155.1 324.2c-.5 3.4-1.4 8.5-1.8 11.4-.2 1.4-.9 3.2-1.2 5-.4 2.4-.4 7-1.6 9.2-6 11.1-14.9-32 4.2-30.1" stroke="#0d0e3a" stroke-linecap="round" stroke-linejoin="round"/><path d="m168.3 231.8c4.6-1.6 12.2-4.8 17-4.5s3.2 4.1 6.1 6.7c2 1.8 4.9 2.1 7 3.9 3.1 2.6 8.7 12.6 11.4 16.5 1.7 2.6 4.1 5.3 6.2 7.5 1.5 1.5 6.9 5.7 4.4 5.1-1.4-.3-3.3-2.9-4.7-3.8-5.4-3.4-10.6-7.8-14.4-13.2-2-2.9-2.6-7-4.8-9.7-2-2.6-5.5-1.6-7.7-3.5-1.5-1.3-2.4-4.2-3.9-5.2-3.1-2.1-12.6 2-15.9 3.4-.5.2-3.9.2-3.2-1.1.7-1.2 1.9-1.7 2.8-2.6" fill="#000" fill-opacity=".1"/><path d="m178.9 202.5c-2.6 3.1-14.3 29.9-13 31.5.5.7 19.7-5.8 20.7-5.3.7.4 1.2 4.7 2.4 5.8 2.5 2.1 5.9 1.4 8.4 3.9 4.3 4.3 5.7 11.6 9.9 16.2 5.5 6.2 8.6 6.6 13.6 12.8" fill="#0d0e3a"/><path d="m178.9 202.5c-2.6 3.1-14.3 29.9-13 31.5.5.7 19.7-5.8 20.7-5.3.7.4 1.2 4.7 2.4 5.8 2.5 2.1 5.9 1.4 8.4 3.9 4.3 4.3 5.7 11.6 9.9 16.2 5.5 6.2 8.6 6.6 13.6 12.8" stroke="#000" stroke-linecap="round" stroke-linejoin="round"/><path d="m227.9 228.4c.3-.7.9-.9 1.4-1.3 5.1-4.4 12.5 1.2 18.3 1.3.8 0 3.2.4 3.7-.4.4-.7-7.7-3.2-8.4-3.5-6-2.4-12-3.4-15.4 3.6" fill="#000" fill-opacity=".1"/><path d="m255.9 193c-.6 9.5-3.5 19-3.6 28.5 0 1 0 5.9-1.1 6.2-6.1 1.7-18.2-9.9-22.8-.5" fill="#0d0e3a"/><path d="m255.9 193c-.6 9.5-3.5 19-3.6 28.5 0 1 0 5.9-1.1 6.2-6.1 1.7-18.2-9.9-22.8-.5" stroke="#000" stroke-linecap="round" stroke-linejoin="round"/><path d="m231.4 232.9c1.8-2.9 6.4-4.5 7.1-8.1" style="stroke:#000;stroke-opacity:.15;stroke-width:.5;stroke-linecap:round;stroke-linejoin:round;stroke-dasharray:1.5 1.5"/><path d="m192.4 190.7c-1.8 9.7-6.6 28.9-5.6 38.2" stroke="#fff" stroke-dasharray="1.5 1.5" stroke-linecap="round" stroke-linejoin="round" stroke-width=".5"/><path d="m159.2 310.2c-2.6 9.7-2.2 16.7 3.4 23.8" stroke="#cda997" stroke-linecap="round" stroke-linejoin="round"/><path d="m157.7 315.9c-1.6 3.9 4.5 17.3 4.4 17.7-.1.7-8.2-1.8-8-2.9 1.1-5.3 3.1-10.7 3.5-14.7" fill="#fff"/><path d="m157.7 315.9c-1.6 3.9 4.5 17.3 4.4 17.7-.1.7-8.2-1.8-8-2.9 1.1-5.3 3.1-10.7 3.5-14.7" stroke="#fff" stroke-linecap="round" stroke-linejoin="round"/><path d="m150.5 351.1c-4.4-3.1-15.4-5.7-19.6-6.8" stroke="#000" stroke-linecap="round" stroke-linejoin="round" stroke-opacity=".1"/><path d="m243.5 337c-.2-8 6.1-15 9.5-21.8.9-1.9 1.7-4.1 2.1-6.1 1.9-8.3 6-12.2 12.4-19.6 1-1.2 7.9-7.6 8.8-3.4 1.2 5.6-9.2 14.8-9 14.9.5.3 4.2-1.8 4.7-2.1 2.7-1.6 14.7-5.4 15.8-3.4 3.6 6.6-6.5 8.6-9.8 9.9-2.2.9-6.3 2.9-8 4.5-.8.7-5.1 2.2-5 3.8 0 .4 6.9-4 7.4-4 2.3-.3 14.6-6.8 15.7-5 4.7 7.3-9.9 10.1-11.2 11.4-.5.5.4 1.4.3 2-.3 4.2-10.7 13.4-13.9 16.7-3.3 3.4-9.9 2.7-14.2 1.8-.7-.2-4 .1-4.6-.3" fill="#613729"/><path d="m271 320.7c.1-.8.6-1.4 1-2 .4-.5 1.1-1 1.7-1.4.3-.2 1.6-1.2 2-1.1.4.2.8 2.5.6 2.8-.6 1.3-4.7 3.7-5.3 1.7z" fill="#931c20"/><g stroke-linecap="round" stroke-linejoin="round"><path d="m271 320.7c.1-.8.6-1.4 1-2 .4-.5 1.1-1 1.7-1.4.3-.2 1.6-1.2 2-1.1.4.2.8 2.5.6 2.8-.6 1.3-4.7 3.7-5.3 1.7z" stroke="#931c20"/><path d="m252.8 319.3c5.6-9.4 3.5-10.4 8.7-14.7 1.9-1.6 4.4-2.1 6.5-3.6" stroke="#000" stroke-opacity=".1"/><path d="m267.3 312.8c-7.8 3.7-8.6 5.5-12.3 13.1" stroke="#000" stroke-opacity=".1"/><path d="m276.2 315.9c-6.1 2.1-9.6 6.6-14.4 12.6" stroke="#000" stroke-opacity=".1"/><path d="m275.8 298.5c-.1.5 0 1 .2 1.5" stroke="#000" stroke-opacity=".1"/><path d="m275.7 310.1c0 .6.2.8.4 1.3" stroke="#000" stroke-opacity=".1"/><path d="m265.6 293.2c.1.2.3.3.4.4" stroke="#000" stroke-opacity=".1"/><path d="m261.5 304.6c.3.9.2 1.8 0 2.7" stroke="#000" stroke-opacity=".1"/><path d="m260 306c0 .7.1 1.3.4 1.9" stroke="#000" stroke-opacity=".1"/><path d="m261.6 317.7c1.2.7 1.6 1.9 1.8 3.2" stroke="#000" stroke-opacity=".1"/><path d="m260.7 318.4c.2 1.4.9 2.3 1.9 3.1" stroke="#000" stroke-opacity=".1"/><path d="m265.9 324.5c.1.6.4 1 .8 1.4" stroke="#000" stroke-opacity=".1"/><path d="m257.5 303.9c.1.4.3.6.5.8" stroke="#000" stroke-opacity=".1"/><path d="m258.2 302.8c0 .2.1.4.1.6" stroke="#000" stroke-opacity=".1"/></g><path d="m268.5 289.2c.3-1.1 1.2-1.6 1.9-2.4.6-.8 1.5-1.1 2.2-1.6s1.6-.7 2.4-.8c2.3-.3-2.6 7-6.2 4.9" fill="#931c20"/><path d="m268.5 289.2c.3-1.1 1.2-1.6 1.9-2.4.6-.8 1.5-1.1 2.2-1.6s1.6-.7 2.4-.8c2.3-.3-2.6 7-6.2 4.9" stroke="#931c20" stroke-linecap="round" stroke-linejoin="round"/><path d="m268.8 288.7c1.5-2.4 3.6-3.7 6.1-4.5" stroke="#fff" stroke-linecap="round" stroke-linejoin="round" stroke-opacity=".5"/><path d="m280.8 297c.8-.3 1.7-.7 2.5-1 .9-.3 1.6-.7 2.6-.8 1.2-.1 2.2-.2 2.8 1 2.3 4.5-9 5.9-8 1" fill="#931c20"/><path d="m280.8 297c.8-.3 1.7-.7 2.5-1 .9-.3 1.6-.7 2.6-.8 1.2-.1 2.2-.2 2.8 1 2.3 4.5-9 5.9-8 1" stroke="#931c20" stroke-linecap="round" stroke-linejoin="round"/><path d="m281.2 297.4c2-1.3 4.6-2.7 6.8-1.5" stroke="#fff" stroke-linecap="round" stroke-linejoin="round" stroke-opacity=".5"/><path d="m281 306.8c.7-.5 1.7-.6 2.5-1 6-3.4 6 1.9 4.7 2.8-2 1.3-10 1.5-7.2-1.6" fill="#931c20"/><path d="m281 306.8c.7-.5 1.7-.6 2.5-1 6-3.4 6 1.9 4.7 2.8-2 1.3-10 1.5-7.2-1.6" stroke="#931c20" stroke-linecap="round" stroke-linejoin="round"/><path d="m281.6 306.9c2.1-1.1 4.2-2.5 6.4-1.2" stroke="#fff" stroke-linecap="round" stroke-linejoin="round" stroke-opacity=".5"/><path d="m271.3 320.1c1.1-1.8 2.5-3.1 4.3-3.3" stroke="#fff" stroke-linecap="round" stroke-linejoin="round" stroke-opacity=".5"/><path d="m163.4 267.4c-.2 1.3-.3 2.6-.3 3.9-.2 4.5.4 10.7.1 16.4-.2 4.7-2.8 9.9-3.1 14.6-.3 5.7-2.4 19.5-2.8 25.5-.4 6.3-2.3 8.2-2.5 9.9-.5 6.2.5 4.8-4.3 13.5" fill="#0d0e3a"/><path d="m163.4 267.4c-.2 1.3-.3 2.6-.3 3.9-.2 4.5.4 10.7.1 16.4-.2 4.7-2.8 9.9-3.1 14.6-.3 5.7-2.4 19.5-2.8 25.5-.4 6.3-2.3 8.2-2.5 9.9-.5 6.2.5 4.8-4.3 13.5" stroke="#000" stroke-linecap="round" stroke-linejoin="round"/><path d="m264.6 335.2c1.2-.9 2.4-.5 3.7-.7.5-.1.9-.5 1.4-.6 1-.2 2.3-.5 3.3-.4.9.1 1.6.5 2.4.8s1.4.2 2.1.2c2 .1 6.2 2.2 7.9 3.3 1.5 1 3 2.4 4.4 3.5 1.2 1.1 2 2.4 3.5 3.2" stroke="#000" stroke-linecap="round" stroke-linejoin="round" stroke-opacity=".1"/><path d="m268.2 333.4c.6-.1 1.1-.1 1.7-.2.8-.2 1.6-.9 2.4-1.2 1.5-.5 4.6-.8 6.2-.8 2.3 0 7.8 1.8 9.6 3.1 1.2.9 2.1 2.1 3.3 3 1 .7 2.2.8 3.1 1.7" stroke="#000" stroke-linecap="round" stroke-linejoin="round" stroke-opacity=".1"/><path d="m315.4 270.3c-.9 10.1-3.8 20.2-8.9 28.7-1.1 1.9-1.7 4.1-2.7 6-1.9 3.4-4 6.9-6.3 10" stroke="#000" stroke-linecap="round" stroke-linejoin="round" stroke-opacity=".1"/><path d="m299.9 367.2c-2 1.4-4.5 1.4-6.7 2.2-.9.3-1.7.9-2.6 1.2-2.6.9-5.4.7-8.1.8-1.7.1-2.9-.9-4.4-.1" stroke="#000" stroke-linecap="round" stroke-linejoin="round" stroke-opacity=".1"/><path d="m259.8 385.4c-3.5-2.3-6-6.4-7.4-10.4-.7-2-.8-5.6-1.8-7.2" stroke="#000" stroke-linecap="round" stroke-linejoin="round" stroke-opacity=".1"/><path d="m149.5 350.5c-7.4-.4-14.7 2.7-21.1 6.6" stroke="#000" stroke-linecap="round" stroke-linejoin="round" stroke-opacity=".1"/><path d="m131.7 246c-.5 7 .9 13.8 2 20.6" stroke="#000" stroke-linecap="round" stroke-linejoin="round" stroke-opacity=".1"/><path d="m163.3 270.7c.1 6-2.6 11.2-4.2 16.7" stroke="#000" stroke-linecap="round" stroke-linejoin="round" stroke-opacity=".1"/><path d="m154.5 391.3c4.1-2.2 5.7-6.6 8.4-10.2" stroke="#000" stroke-linecap="round" stroke-linejoin="round" stroke-opacity=".1"/><path d="m214.3 269.8c8.5-1.1 4.6 2.7-.2.6" style="stroke:#000;stroke-opacity:.15;stroke-width:.5;stroke-linecap:round;stroke-linejoin:round;stroke-dasharray:1.5 1.5"/><path d="m212.5 295.8c7.5-1.7 7.6 2.8 0 .5" style="stroke:#000;stroke-opacity:.15;stroke-width:.5;stroke-linecap:round;stroke-linejoin:round;stroke-dasharray:1.5 1.5"/><path d="m210.8 321.4c9.1-1.8 3.8 3-.1.4" style="stroke:#000;stroke-opacity:.15;stroke-width:.5;stroke-linecap:round;stroke-linejoin:round;stroke-dasharray:1.5 1.5"/><path d="m231.3 227.2c-4.9 3.1 4.5 4 1.2.2-.4-.4-.8-.3-1.2-.2z" fill="#ffc200"/><path d="m231.3 227.2c-4.9 3.1 4.5 4 1.2.2-.4-.4-.8-.3-1.2-.2z" stroke="#ffc200" stroke-linecap="round" stroke-linejoin="round"/><path d="m190.3 231.5c4.6-6.7.5 4.3 0 .1" stroke="#000" stroke-linecap="round" stroke-linejoin="round" stroke-opacity=".15" stroke-width=".5"/><path d="m215.7 268.1c-3 1.3.6 5.7 1.8 2.3.2-.5.3-1.1 0-1.6-.4-.6-.7-.8-1.4-.7" fill="#ffc200"/><path d="m215.7 268.1c-3 1.3.6 5.7 1.8 2.3.2-.5.3-1.1 0-1.6-.4-.6-.7-.8-1.4-.7" stroke="#ffc200" stroke-linecap="round" stroke-linejoin="round"/><path d="m214 294c-3.3 3.2 3.9 6 2.3.9-.3-.8-1.4-1.1-2-1.1" fill="#ffc200"/><path d="m214 294c-3.3 3.2 3.9 6 2.3.9-.3-.8-1.4-1.1-2-1.1" stroke="#ffc200" stroke-linecap="round" stroke-linejoin="round"/><path d="m212.8 319.6c-.9 0-1.5 1.1-1.5 2.1-.1 5.3 6.5-1.2 1.8-2.1" fill="#ffc200"/><path d="m212.8 319.6c-.9 0-1.5 1.1-1.5 2.1-.1 5.3 6.5-1.2 1.8-2.1" stroke="#ffc200" stroke-linecap="round" stroke-linejoin="round"/><path d="m163.6 366.5 1.1.1 2.2.2 2.1.3 2.1.3 2.1.4 2.1.4 2 .5 2 .5 2 .6 2 .6 1.9.7 1.9.7 1.9.7 1.9.7 2.8 1.1 3.7 1.4 3.7 1.4 5.5 2.2 5.5 2.1 3.6 1.3 3.6 1.2 2.7.8 1.8.5.9.2-1-.4-2-.9-2.9-1.3-3.9-1.8-3.9-1.9-5.8-2.8-5.8-2.7-3.9-1.7-3.8-1.6-2.8-1-1.9-.6-1.9-.6-1.9-.5-1.9-.5-1.9-.4-1.9-.3-1.9-.3-1.9-.2-1.7.1h-1.9-1.9l-1.9.1-1.9.2z" fill="#000" fill-opacity=".1"/><path d="m279.4 341.9c-4.3-2.7-9.8-1.6-14.6-2.9-6.3-1.6-12.2-2.1-18.6-2.3-21.3-.7-43 0-64.2-3.1-2.4-.3-14.5-2.4-16-.4" fill="#0d0e3a"/><path d="m279.4 341.9c-4.3-2.7-9.8-1.6-14.6-2.9-6.3-1.6-12.2-2.1-18.6-2.3-21.3-.7-43 0-64.2-3.1-2.4-.3-14.5-2.4-16-.4" stroke="#000" stroke-linecap="round" stroke-linejoin="round"/><path d="m162.5 357.4c.2 2.5-2.3 9.3 2 8.8" stroke="#000" stroke-linecap="round" stroke-linejoin="round" stroke-opacity=".15"/><path d="m220.4 267.2c2.1 11.6.2 25.2-1.2 37-.2 1.9.2 4.1.2 6-.2 8.5-1.4 17-1.8 25.4" stroke="#000" stroke-linecap="round" stroke-linejoin="round"/><path d="m146.4 216.6c10.6 15.1 14.7 33.9 16.7 52.4" stroke="#000" stroke-linecap="round" stroke-linejoin="round" stroke-opacity=".15"/><path d="m307 211.3c-21.2 3.5-32.4 30.3-35.5 50.8-1 6.7.3 15.3 1 22" stroke="#000" stroke-linecap="round" stroke-linejoin="round" stroke-opacity=".15"/><path d="m228.3 124.7c-3.3 1.3.1 3.4-.4 5.2-.4 1.4-.9 2.8-1.4 4.1-.5 1.4-2.7 7.3 1.3 5.2.7-.3 3.9-13.8.9-14.4" fill="#fff"/><path d="m228.3 124.7c-3.3 1.3.1 3.4-.4 5.2-.4 1.4-.9 2.8-1.4 4.1-.5 1.4-2.7 7.3 1.3 5.2.7-.3 3.9-13.8.9-14.4" stroke="#fff" stroke-linecap="round" stroke-linejoin="round"/><path d="m145.2 16.7002-.1 2v.2.2c0 .2-.1.4-.2.5s-.3.2-.6.2c-.2 0-.4-.1-.5-.2s-.2-.3-.2-.6v-.4l.1-2.7c0-.2.1-.4.2-.5s.3-.2.6-.2h5.6c.4 0 .7.1.9.2s.3.4.3.6c0 .1 0 .3-.1.5s-.2.3-.3.5l-5.8 8.4h4.5l.1-2.3c0-.7.3-1.1.7-1.1.2 0 .4.1.5.2s.2.3.2.6v.4l-.1 3c0 .2-.1.4-.2.5s-.3.2-.6.2h-6.1c-.3 0-.5-.1-.7-.2s-.3-.4-.3-.6 0-.3.1-.5.2-.4.4-.6l5.6-8.1h-4z" fill="#000"/><path d="m164.6 22.4002c0 1.4-.5 2.5-1.4 3.4s-2.2 1.3-3.7 1.3-2.7-.4-3.7-1.3-1.4-2-1.4-3.4.5-2.5 1.4-3.4 2.2-1.3 3.7-1.3 2.7.4 3.7 1.3 1.4 2 1.4 3.4zm-5.1 3.3c1 0 1.8-.3 2.5-1s1-1.4 1-2.4-.3-1.8-1-2.4c-.6-.6-1.5-1-2.5-1s-1.8.3-2.5 1c-.6.6-1 1.5-1 2.4 0 1 .3 1.8 1 2.4.7.7 1.5 1 2.5 1z" fill="#000"/><path d="m176.6 22.4002c0 1.4-.5 2.5-1.4 3.4s-2.2 1.3-3.7 1.3-2.7-.4-3.7-1.3-1.4-2-1.4-3.4.5-2.5 1.4-3.4 2.2-1.3 3.7-1.3 2.7.4 3.7 1.3 1.4 2 1.4 3.4zm-5.1 3.3c1 0 1.8-.3 2.5-1s1-1.4 1-2.4-.3-1.8-1-2.4c-.6-.6-1.5-1-2.5-1s-1.8.3-2.5 1c-.6.6-1 1.5-1 2.4 0 1 .3 1.8 1 2.4.7.7 1.5 1 2.5 1z" fill="#000"/><path d="m187.1 21.4001c0-.9-.1-1.5-.2-1.9s-.4-.5-.9-.5-.9.2-1.1.6-.4 1-.4 1.7v4.1h.2c.4 0 .7 0 .8.1s.2.3.2.5-.1.4-.2.5-.3.2-.5.2h-1.2c-.3 0-.5-.1-.6-.2s-.2-.4-.2-.8v-.3-4.1-.8c0-.5-.1-.9-.3-1.2s-.5-.4-.9-.4c-.3 0-.6.1-.8.3s-.5.4-.6.8v5.4h.4c.4 0 .6 0 .8.1s.2.3.2.5c0 .3-.1.5-.2.6s-.3.2-.6.2h-2.6c-.3 0-.4-.1-.6-.2s-.2-.3-.2-.5c0-.3.1-.4.2-.5.2-.1.4-.1.9-.1h.2v-6.3h-.2c-.5 0-.8-.1-.9-.2-.2-.1-.2-.3-.2-.5s.1-.4.2-.5.3-.2.6-.2h1.5c.2 0 .4 0 .4.1s.1.2.1.5c.3-.3.6-.5.9-.6s.7-.2 1-.2c.5 0 .8.1 1.1.3s.5.5.7.9c.3-.4.6-.7.9-.9.4-.2.8-.3 1.2-.3.8 0 1.5.3 1.8.8s.6 1.4.6 2.7v4.4h.2c.4 0 .7 0 .8.1s.2.3.2.5-.1.4-.2.5-.3.2-.5.2h-1.2c-.3 0-.5-.1-.6-.2s-.2-.4-.2-.7z" fill="#000"/><path d="m211.1 21.4001c0-.9-.1-1.5-.2-1.9-.2-.3-.4-.5-.9-.5s-.9.2-1.1.6-.4 1-.4 1.7v4.1h.2c.4 0 .7 0 .8.1s.2.3.2.5-.1.4-.2.5-.3.2-.5.2h-1.2c-.3 0-.5-.1-.6-.2s-.2-.4-.2-.8v-.3-4.1-.8c0-.5-.1-.9-.3-1.2s-.5-.4-.9-.4c-.3 0-.6.1-.8.3s-.5.4-.6.8v5.4h.4c.4 0 .6 0 .8.1s.2.3.2.5c0 .3-.1.5-.2.6s-.3.2-.6.2h-2.6c-.3 0-.4-.1-.6-.2s-.2-.3-.2-.5c0-.3.1-.4.2-.5s.4-.1.9-.1h.2v-6.3h-.2c-.5 0-.8-.1-.9-.2s-.2-.3-.2-.5.1-.4.2-.5.3-.2.6-.2h1.5c.2 0 .4 0 .4.1s.1.2.1.5c.3-.3.6-.5.9-.6s.7-.2 1-.2c.5 0 .8.1 1.1.3s.5.5.7.9c.3-.4.6-.7.9-.9.4-.2.8-.3 1.2-.3.8 0 1.5.3 1.8.8s.6 1.4.6 2.7v4.4h.2c.4 0 .7 0 .8.1s.2.3.2.5-.1.4-.2.5-.3.2-.5.2h-1.2c-.3 0-.5-.1-.6-.2-.1-.2-.2-.4-.2-.7z" fill="#000"/><path d="m216.2 22.8c.1.9.4 1.7 1 2.2s1.4.8 2.4.8c.8 0 1.6-.1999 2.5-.5999s1.4-.6001 1.6-.6001.4.1.5.2.2.3.2.5-.1.4-.2.5c-.1.2-.4.3-.7.5-.7.3-1.3.6-2 .7s-1.4.3-2.1.3c-1.5 0-2.7-.4-3.6-1.3s-1.3-2-1.3-3.4.5-2.6 1.4-3.5 2.2-1.3 3.7-1.3c1.4 0 2.5.4 3.4 1.2s1.4 1.8 1.4 3c0 .4-.1.6001-.2.7001-.2.1-.6.2-1.2.2h-.1-6.7zm0-1.3h6.4c-.1-.8-.4-1.4-1-1.9s-1.2-.6999-2-.6999c-.9 0-1.6.1999-2.2.6999s-1 1.1-1.2 1.9z" fill="#000"/><path d="m228.2 22.8c.1.9.4 1.7 1 2.2s1.4.8 2.4.8c.8 0 1.6-.1999 2.5-.5999s1.4-.6001 1.6-.6001.4.1.5.2.2.3.2.5-.1.4-.2.5c-.1.2-.4.3-.7.5-.7.3-1.3.6-2 .7s-1.4.3-2.1.3c-1.5 0-2.7-.4-3.6-1.3s-1.3-2-1.3-3.4.5-2.6 1.4-3.5 2.2-1.3 3.7-1.3c1.4 0 2.5.4 3.4 1.2s1.4 1.8 1.4 3c0 .4-.1.6001-.2.7001-.2.1-.6.2-1.2.2h-.1-6.7zm.1-1.3h6.4c-.1-.8-.4-1.4-1-1.9s-1.2-.6999-2-.6999c-.9 0-1.6.1999-2.2.6999-.7.5-1.1 1.1-1.2 1.9z" fill="#000"/><path d="m246.2 18.4001c.3 0 .6.1.7.2s.2.3.2.5-.1.4-.2.5-.3.2-.6.2h-4v3.2c0 1.1.1 1.8.4 2.1s.8.5 1.4.5 1.3-.2 2.1-.5 1.3-.5 1.5-.5.3.1.5.2.2.3.2.5-.1.4-.2.6c-.2.2-.4.3-.8.5-.6.3-1.2.4-1.7.6-.5.1-1 .2-1.4.2-.8 0-1.4-.1-1.9-.4s-.9-.6-1.2-1.1c-.1-.2-.2-.5-.3-.8s-.1-.8-.1-1.4v-.5-3.3h-1.7c-.3 0-.5-.1-.6-.2s-.2-.3-.2-.5c0-.3.1-.4.3-.5s.5-.1 1.1-.1h1.1v-2-.5c0-.3.1-.5.2-.6s.3-.2.6-.2.5.1.6.2c.1.2.2.5.2 1.1v2z" fill="#000"/><path d="m256.4 25.5001h3.1c.3 0 .4.1.6.2.1.1.2.3.2.5 0 .3-.1.5-.2.6s-.3.2-.6.2h-7.6c-.3 0-.5-.1-.6-.2s-.2-.3-.2-.5.1-.4.2-.5.3-.2.6-.2h3v-6.3h-1.9c-.3 0-.5-.1-.6-.2s-.2-.3-.2-.5.1-.4.2-.5.3-.2.6-.2h2.9c.2 0 .3 0 .4.1s.2.2.2.3v7.2zm-1.8-10.5c0-.7.1-1.1.2-1.3s.4-.3.8-.3.7.1.8.2c.1.2.2.5.2 1.1s-.1.9-.2 1-.4.2-.8.2-.7-.1-.8-.2-.2-.3-.2-.7z" fill="#000"/><path d="m263.9 25.5001v-6.3h-.2c-.4 0-.7-.1-.9-.2s-.2-.3-.2-.5.1-.4.2-.5.4-.2.7-.2h.5.9c.2 0 .3 0 .4.1s.1.2.1.3v.7c.5-.4.9-.8 1.4-1s.9-.3 1.5-.3c1 0 1.8.3 2.3.9.6.6.8 1.5.8 2.5v4.4h.5c.3 0 .6.1.7.2s.2.3.2.5c0 .3-.1.4-.2.5s-.4.2-.8.2h-2.2c-.4 0-.7 0-.8-.1s-.2-.3-.2-.6.1-.4.2-.5.4-.1.8-.1h.3v-4.1c0-.8-.2-1.3-.5-1.7s-.8-.6-1.5-.6-1.3.2-1.8.7-.8 1-.8 1.7v4.1h.3c.4 0 .7 0 .8.1s.2.3.2.5c0 .3-.1.5-.2.6s-.4.1-.9.1h-1.8-.5c-.3 0-.5-.1-.6-.2s-.2-.3-.2-.5c0-.3.1-.4.2-.5.2-.1.5-.1.9-.1h.4z" fill="#000"/><path d="m283.5 26.3c0 .9 0 1.6001-.1 1.9001s-.2.7-.5 1c-.4.5-.9.7999-1.5 1.0999s-1.4.4001-2.3.4001c-.7 0-1.3-.1001-1.6-.2001s-.5-.4-.5-.7c0-.2.1-.4.2-.5s.4-.2.6-.2.4.0001.8.1001c.4 0 .6.0999.8.0999 1 0 1.6-.2 2.1-.7.4-.4.6-1.2.6-2.3v-1.2c-.4.5-.8.8-1.3 1s-1 .3001-1.7.3001c-1.2 0-2.2-.4-3-1.2s-1.2-1.8001-1.2-3.1001c0-1.2.4-2.3 1.2-3.1s1.8-1.2 3-1.2c.5 0 1 .1 1.5.3s1 .5001 1.5.8001v-.7c0-.1 0-.2.1-.3s.2-.1001.4-.1001h1.5c.3 0 .5.1.6.2s.2.3.2.5c0 .3-.1.4-.2.5-.2.1-.5.2001-.9.2001h-.2v7.0999zm-4.3-7c-.9 0-1.5.3-2.1.8-.5.5-.8 1.2001-.8 2.1001 0 .8.3 1.5.8 2s1.2.7999 2.1.7999c.8 0 1.5-.2999 2.1-.7999.5-.5.8-1.2.8-2s-.3-1.5-.8-2c-.5-.7-1.2-.9001-2.1-.9001z" fill="#000"/></svg>