<svg fill="none" height="705" viewBox="0 0 542 705" width="542" xmlns="http://www.w3.org/2000/svg" xmlns:xlink="http://www.w3.org/1999/xlink"><mask id="a" fill="#fff"><path d="m419.306 154.456c48 12.9 58.6 30.3 66.6 75.1.7 3.9 7 29.3 5.5 31.4-1.6 2.3-45.7 6.1-47.5 14.4-.7 3.2 2.3 8.3 2.7 11.5 2.2 16.2-1.3 60-12.8 71.3-23.2 22.8-29.7 15.2-55.7 19.1-10 1.5-18.8 4.5-29.2 3-10.1-1.4-6-2.6-15.5-3.8-6.7-.8-13.9 1.2-20.5 0-12.1-2.2-43.3-12.8-50.2-22.9-2-2.9-14-48.3-14.6-53.9-.4-4.1.4-16.8-2.3-19.9-2-2.3-9.9-2.5-14.6-9.8-6.9-10.7-19.7-40.3-21.4-51.8-1.5-10.1 20.3-43 29.7-48.8 4.4-2.7 10.6-4.2 15.5-5.1 4.8-.9 35.1-12.3 36.5-11.9 2.1.6 5.1 14.2 6.4 16.1 10.4 15.5 31.7 26 51.6 22.9 23.5-3.6 29-10.9 42.4-27.6 1.6-2 10.5-16.3 12.3-15.7 1.6.5 3.7 3 5.5 3.8 3.7 1.7 8.5 2 12.3 3.4" fill="#fff"/></mask><path d="m163.706 511.456c1.8 12.9-2.2 26-.4 38.9.7 4.9 7.4 30.4 9.7 33.6 5.7 8 13.5 26.6 8.4 36.1-14.2 26.4-39.1 13.7-58.6 25.8-13.8 8.6-14.8 14-24.6996 21.7-16.5 12.8-42.3 33.6-63.4 36.9-7.5 1.2-10.5-4.7-15-5.7-1.4-.3-9.6 9.5-18.10003 1.6-5.8-5.4 5.69998-18.2 9.30003-22.5 4.5-5.6 14-18.9 19.8-22.5 9.2-5.7 21.2-9.9 29.1-17.2 8.3-7.8 16.3-16.7 23.4-25.4 3.2-3.9 7.8-6.9 11-10.7 3.9-4.5 8.2996-9.4 10.5996-14.8 7.1-16.5 8.9-50.1 5.7-67.6-1.1-5.9 1.9-13.3.4-18.8-.7-2.5-.3-5.8-1.3-8.2-.4-.9-1.8-1.5-1.8-2.5 0-1.9 15.3-6.4 18.1-7.4 3.6-1.2 10.1-4.2 14.1-3.3 2.5.6 4.5 2.5 6.2 4.1 1.3 1.2 3.5 1.2 4.8 2.5 6.3 5.9 11 16.3 11 24.6" fill="#ebb899"/><path d="m41.7064 674.156c-14.9 10.3-17.9 1.8-23.3 22.1" stroke="#000" stroke-linecap="round" stroke-linejoin="round" stroke-opacity=".1"/><path d="m155.806 556.156c.6 5-.5 7.6-5.3 9.8" stroke="#000" stroke-linecap="round" stroke-linejoin="round" stroke-opacity=".1"/><path d="m176.506 517.156c-18.2-3.7-45.3-5-62.1-10.2-15.5996-4.8-36.9996-5.9-53.2996-2.9-5.5 1-10.4 4.3-15.4 6.1-10.8 4-16.8 4.5-23.8 14.3-8 11.2-1.8 12.5-1.8 14.8 0 4.6-6.5 9-.9 13.1 1.3.9 3.2 1.2 4.4 2 1.1.8 1.8 2.7 3.1 3.7 4.6 3.4 12.3 6.1 18.5 4.9 3.6-.7 6.7-3.3 10.1-4.5 10-3.5 19.7-6.6 30-9 16.2996-3.8 44.9996.7 61.1996 3.7 3 .6 29.7 2.7 30 2.5 3.3-3.1 3.5-27.8 3.5-33.2" fill="#ebb899"/><path d="m27.6064 675.356c-6.4 5.3-14.4001 6.4-21.10005 11.5" stroke="#000" stroke-linecap="round" stroke-linejoin="round" stroke-opacity=".1"/><path d="m27.1063 668.756c-5.5 1.8-10 4.8-14.5 8.2" stroke="#000" stroke-linecap="round" stroke-linejoin="round" stroke-opacity=".1"/><path d="m47.3063 530.056c-9.2 1.5-15.6 14.7-25.6 11" stroke="#000" stroke-linecap="round" stroke-linejoin="round" stroke-opacity=".1"/><path d="m48.1064 539.556c-6.6 5.9-15.1 12-24.3 13.7" stroke="#000" stroke-linecap="round" stroke-linejoin="round" stroke-opacity=".1"/><path d="m52.0064 546.956c-6.5 4.4-11.6 10.6-19.2 13" stroke="#000" stroke-linecap="round" stroke-linejoin="round" stroke-opacity=".1"/><path d="m55.7064 549.356c-4.4 4.5-9.6 10.8-16.3 12" stroke="#000" stroke-linecap="round" stroke-linejoin="round" stroke-opacity=".1"/><path d="m262.406 337.456c-39.3-27.1-55.4-70.6-110.8-78-5.7-.8-12.4-3.1-18.2-2-15.8 2.9-26.2 13.1-34.6996 25-27.3 38.1-19.4001 76.4-14.8001 119.2 2.1 19.9-3.4 41.1 3.5 60.2 2.1 5.8 14.4997 35.9 19.0997 39.2 6.9 4.8 29.5-.4 38.2 1.2 4.9.9 9.5 2.3 14.3 3.2 1 .2 4.7 3.3 5.6 2.4 2-1.8 2.9-8.6 3.9-10.9 2-4.6 6.6-8.4 8.7-12.9 3.2-6.9 7.1-13.5 10-20.6 2.4-6.1 3.7-13 3.9-12.9 8.4 3.9 13.7 19.8 21.3 25.9 21.9 17.4 42.7 28.7 71.7 31.1 11.5 1 21 4.4 32.6.8 41.4-12.8-18.1-99.6-28.2-121.6-3.6-7.9-17.9-44.3-25.2-47.7" fill="#d5c4b4"/><path d="m465.906 509.656c-8.9 49.3-30.7 105.3-90.3 114.6-6.4 1-14.5-.4-21-1.3-8.8-1.2-18.1-.7-26.9-1.7-31.5-3.7-61.3-22.1-89.9-33.5-17.8-7.1-58.3-8.3-69.4-22.1-7-8.6 7-41.3 13.7-47.5 4.6-4.2 19.7-3.4 26-5.1 26.5-7.1 55.7-11.8 83.5-8.1 15 2 34.2 8.9 49.3 5.1 26.5-6.7 64.4-38.6 91.7-32.3 16.3 3.8 29.2 19.8 29.2 34.8" fill="#d5c4b4"/><path d="m166.806 312.756c11.7 46.2 22.6 92.9 22.6 140.6" stroke="#000" stroke-linecap="round" stroke-linejoin="round" stroke-opacity=".1"/><path d="m176.006 313.156c-.6 10.5 4.8 22.6.4 32.7" stroke="#000" stroke-linecap="round" stroke-linejoin="round" stroke-opacity=".1"/><path d="m324.406 516.456c1.6 6.4 4.2 14.3 10.5 17.8" stroke="#000" stroke-linecap="round" stroke-linejoin="round" stroke-opacity=".1"/><path d="m322.606 520.656c-.1 5.4-1.4 10.9.5 16.1" stroke="#000" stroke-linecap="round" stroke-linejoin="round" stroke-opacity=".1"/><path d="m266.506 390.356c-14.7-13.9-19.4-35.9-34.2-49.7-10-9.3-43.9-51.5-61.1-39.5-8.6 6-4.8 20.6-5.5 29.3-4.7 56.5-5.6 112.3-15.5 167.6" stroke="#fff" stroke-dasharray="3 3" stroke-linecap="round" stroke-linejoin="round"/><path d="m358.606 506.256c-4.9 9.1-11.1 17.1-18.7 24.2-11.4 10.6-75.5 8.3-91.3 7.2-24.2-1.7-49.5 3.9-73.5-1.7" stroke="#fff" stroke-dasharray="3 3" stroke-linecap="round" stroke-linejoin="round"/><path d="m319.706 138.456c-5.5 18-17.3 32.4-29.1 46.6-1.5 1.8-6.8 7.1-6.3 9.9 1.2 5.9 24 7.1 28.7 7.6 6.2.7 12.7 1.4 18.8 2.7 6.7 1.4 12.8 3.3 19.7 3.6 10.5.4 21.1-.4 31.3-2.7 3.2-.3 5.9-2 9-2.7 2.8-.7 13.3-2 15.2-4.5 2.3-2.8 1.3-14.9.4-17.5-1.1-3.3-3-6.4-4-9.8-1.1-3.6-1.3-7.3-3.1-10.7-1.8-3.3-4.9-5.5-7.2-8.5-1.2-1.5-2.3-4.3-3.1-5.8-1.9-3.3-4.3-6.1-6.7-9-1-1.1-2.6-3.1-4-3.6-2.4-.8-15.8 2.6-18.4 3.1-3.7.8-7.5.7-11.2 1.3-6.3 1.1-.9.7-7.6 2.2-5 1.2-9.8.4-14.8.9-2.2.2-4.4.7-6.7.4-2.1-.3-4.2-1.3-6.3-1.8" fill="#ebb899"/><path d="m419.306 154.456c48 12.9 58.6 30.3 66.6 75.1.7 3.9 7 29.3 5.5 31.4-1.6 2.3-45.7 6.1-47.5 14.4-.7 3.2 2.3 8.3 2.7 11.5 2.2 16.2-1.3 60-12.8 71.3-23.2 22.8-29.7 15.2-55.7 19.1-10 1.5-18.8 4.5-29.2 3-10.1-1.4-6-2.6-15.5-3.8-6.7-.8-13.9 1.2-20.5 0-12.1-2.2-43.3-12.8-50.2-22.9-2-2.9-14-48.3-14.6-53.9-.4-4.1.4-16.8-2.3-19.9-2-2.3-9.9-2.5-14.6-9.8-6.9-10.7-19.7-40.3-21.4-51.8-1.5-10.1 20.3-43 29.7-48.8 4.4-2.7 10.6-4.2 15.5-5.1 4.8-.9 35.1-12.3 36.5-11.9 2.1.6 5.1 14.2 6.4 16.1 10.4 15.5 31.7 26 51.6 22.9 23.5-3.6 29-10.9 42.4-27.6 1.6-2 10.5-16.3 12.3-15.7 1.6.5 3.7 3 5.5 3.8 3.7 1.7 8.5 2 12.3 3.4" fill="#fff"/><path d="m485.906 229.556-3.937.703v.004zm5.5 31.4-3.255-2.325-.014.021-.014.02zm-47.5 14.4 3.908.855.001-.007zm2.7 11.5-3.969.496.003.022.003.021zm-12.8 71.3-2.803-2.853zm-55.7 19.1.594 3.956zm-29.2 3 .571-3.959-.011-.001-.01-.002zm-15.5-3.8.502-3.968-.014-.002-.013-.002zm-20.5 0 .716-3.935zm-50.2-22.9 3.303-2.256-.005-.007-.005-.008zm-14.6-53.9-3.981.389.002.019.002.018zm-2.3-19.9-3.018 2.625.002.002zm-14.6-9.8 3.364-2.165-.002-.003zm-21.4-51.8 3.957-.585v-.002zm29.7-48.8-2.092-3.409-.008.005zm15.5-5.1.723 3.934.007-.001.007-.001zm36.5-11.9 1.099-3.846zm6.4 16.1 3.322-2.228-.01-.015-.01-.015zm51.6 22.9-.605-3.954-.01.002zm42.4-27.6 3.12 2.504.004-.005zm12.3-15.7-1.265 3.795.036.012.036.011zm5.5 3.8 1.67-3.634-.022-.011-.023-.01zm8.562 6.463c23.719 6.375 37.406 13.67 46.267 24.288 8.925 10.693 13.445 25.315 17.434 47.652l7.875-1.406c-4.011-22.462-8.791-38.94-19.167-51.372-10.438-12.508-26.051-20.362-50.333-26.888zm63.701 71.944c.354 1.971 2.181 9.672 3.596 16.482.733 3.531 1.381 6.924 1.753 9.533.188 1.316.291 2.33.314 3.019.005.165.005.293.003.389-.003.099-.008.142-.007.14 0-.002.003-.024.01-.063.007-.038.021-.104.047-.192.041-.141.162-.513.466-.94l6.51 4.65c.712-.996.859-2.081.91-2.507.07-.584.075-1.191.056-1.743-.037-1.117-.186-2.463-.389-3.884-.409-2.866-1.099-6.46-1.84-10.029-1.536-7.391-3.208-14.339-3.555-16.268zm6.154 28.409c.456-.656.977-.94 1.019-.964.122-.07.166-.079.067-.042-.193.074-.573.192-1.198.348-1.231.307-2.984.658-5.174 1.062-4.278.789-10.137 1.765-15.885 2.907-5.757 1.144-11.724 2.513-16.422 4.174-2.336.825-4.553 1.789-6.32 2.944-1.634 1.067-3.645 2.79-4.213 5.408l7.818 1.695c-.117.543-.357.331.772-.407.995-.65 2.531-1.363 4.608-2.097 4.127-1.459 9.623-2.739 15.316-3.87 5.702-1.133 11.28-2.057 15.777-2.887 2.197-.405 4.166-.794 5.661-1.167.737-.184 1.47-.392 2.1-.631.312-.118.695-.28 1.077-.5.304-.174 1.008-.605 1.564-1.404zm-48.124 15.83c-.34 1.553-.188 3.08.05 4.31.244 1.259.639 2.508 1.012 3.593.442 1.289.71 1.965 1.062 3.021.311.931.466 1.538.514 1.926l7.938-.992c-.151-1.212-.521-2.441-.864-3.467-.3-.901-.814-2.299-1.084-3.086-.34-.99-.588-1.815-.723-2.513-.14-.726-.1-1.036-.09-1.083zm2.644 12.893c1.032 7.603.749 22.205-1.26 36.388-.999 7.056-2.405 13.858-4.224 19.52-1.861 5.792-3.995 9.877-6.156 12l5.607 5.706c3.589-3.526 6.204-9.154 8.166-15.259 2.002-6.234 3.49-13.513 4.528-20.845 2.067-14.592 2.433-29.991 1.266-38.587zm-11.64 67.908c-11.287 11.092-18.024 14.319-24.724 15.557-3.548.656-7.204.78-11.929.976-4.66.194-10.117.456-16.837 1.465l1.187 7.911c6.279-.942 11.385-1.192 15.982-1.383 4.53-.188 8.825-.32 13.052-1.102 8.849-1.636 16.962-6.009 28.876-17.718zm-53.49 17.998c-2.599.389-5.104.874-7.494 1.342-2.416.473-4.699.926-6.987 1.287-4.54.717-8.902 1.038-13.555.367l-1.142 7.918c5.748.829 10.986.4 15.945-.383 2.463-.389 4.905-.873 7.276-1.338 2.398-.469 4.742-.922 7.144-1.282zm-28.057 2.993c-4.715-.653-5.856-1.21-6.918-1.676-1.79-.785-3.514-1.484-8.63-2.13l-1.003 7.937c4.384.553 5.36 1.055 6.42 1.519 1.787.784 3.646 1.528 9.032 2.274zm-15.575-3.81c-3.814-.455-7.721-.108-11.05.133-3.506.253-6.475.401-9.209-.096l-1.431 7.871c3.866.703 7.796.451 11.216.204 3.595-.26 6.639-.513 9.525-.168zm-20.259.037c-5.704-1.037-16.253-4.14-26.243-8.251-4.978-2.049-9.707-4.303-13.563-6.615-3.962-2.375-6.586-4.568-7.807-6.355l-6.606 4.513c2.23 3.263 6.093 6.182 10.3 8.704 4.313 2.585 9.433 5.012 14.631 7.151 10.36 4.263 21.461 7.561 27.857 8.724zm-47.623-21.236c.16.231.139.274-.067-.24-.161-.4-.367-.964-.616-1.696-.497-1.46-1.115-3.437-1.817-5.793-1.401-4.702-3.097-10.785-4.754-16.972-1.657-6.184-3.267-12.445-4.499-17.499-1.269-5.205-2.048-8.783-2.162-9.855l-7.955.852c.185 1.729 1.132 5.926 2.344 10.898 1.25 5.125 2.876 11.446 4.545 17.674 1.667 6.226 3.384 12.386 4.814 17.187.714 2.395 1.366 4.485 1.911 6.085.271.797.529 1.511.764 2.098.19.473.497 1.21.906 1.803zm-13.912-52.017c-.079-.818-.105-2.182-.129-4.066-.024-1.797-.046-3.937-.143-6.055-.097-2.102-.273-4.318-.632-6.274-.323-1.752-.918-4.087-2.36-5.744l-6.033 5.254c-.093-.106.225.309.524 1.937.263 1.426.418 3.222.509 5.195.09 1.958.112 3.955.135 5.79.023 1.746.047 3.507.167 4.74zm-3.262-22.136c-1.192-1.371-2.911-2.113-3.945-2.543-1.448-.604-2.298-.874-3.737-1.513-2.448-1.088-4.813-2.551-6.573-5.285l-6.727 4.331c2.939 4.565 6.874 6.853 10.051 8.265 1.374.61 3.168 1.278 3.91 1.587 1.157.482 1.176.628.984.407zm-14.257-9.344c-3.256-5.049-8.073-14.864-12.324-24.981-4.284-10.197-7.713-20.045-8.481-25.236l-7.914 1.17c.933 6.31 4.754 17.011 9.02 27.165 4.299 10.233 9.332 20.567 12.976 26.218zm-20.805-50.219c-.075-.506-.035-1.532.383-3.198.402-1.603 1.083-3.527 2.02-5.702 1.873-4.348 4.64-9.4 7.787-14.392 3.141-4.984 6.603-9.816 9.824-13.726 3.315-4.025 6.085-6.714 7.83-7.791l-4.201-6.808c-2.956 1.824-6.435 5.422-9.804 9.513-3.464 4.205-7.121 9.317-10.417 14.546-3.29 5.22-6.28 10.649-8.366 15.492-1.043 2.42-1.893 4.769-2.433 6.921-.523 2.089-.836 4.301-.536 6.32zm27.835-44.803c3.715-2.28 9.267-3.682 14.131-4.576l-1.445-7.868c-4.936.907-11.785 2.505-16.87 5.625zm14.145-4.578c1.54-.289 4.646-1.285 8.069-2.436 3.564-1.198 7.871-2.703 12.037-4.156 4.183-1.46 8.218-2.863 11.291-3.877 1.543-.509 2.795-.903 3.683-1.154.452-.128.743-.2.902-.233.084-.017.06-.009-.034.001-.049.005-.169.015-.335.013-.133-.003-.495-.014-.949-.144l2.198-7.692c-.839-.239-1.581-.15-1.711-.137-.292.029-.566.079-.782.123-.441.091-.949.224-1.469.371-1.056.299-2.439.737-4.008 1.255-3.152 1.039-7.255 2.467-11.421 3.92-4.185 1.46-8.44 2.947-11.951 4.127-3.652 1.228-6.133 1.994-6.994 2.156zm34.664-11.986c-.734-.21-1.156-.594-1.277-.711-.144-.139-.185-.217-.138-.146.095.145.281.485.542 1.092.512 1.191 1.074 2.842 1.659 4.689.519 1.64 1.189 3.874 1.651 5.317.255.797.512 1.565.76 2.22.208.546.539 1.377 1.001 2.052l6.603-4.517c.136.199.09.19-.124-.373-.173-.456-.379-1.066-.621-1.821-.532-1.66-.987-3.22-1.643-5.292-.591-1.866-1.254-3.847-1.935-5.433-.336-.782-.739-1.618-1.215-2.339-.239-.362-.561-.796-.98-1.201-.396-.383-1.087-.944-2.085-1.229zm4.178 14.483c11.205 16.7 33.997 27.979 55.537 24.624l-1.231-7.905c-18.26 2.844-38.069-6.877-47.663-21.176zm55.527 24.625c12.115-1.856 20.051-4.737 26.737-9.608 6.514-4.746 11.596-11.24 18.177-19.442l-6.24-5.007c-6.818 8.498-11.186 14.004-16.648 17.983-5.289 3.853-11.853 6.422-23.237 8.166zm44.918-29.055c.532-.665 1.517-2.133 2.536-3.643 1.092-1.619 2.386-3.539 3.682-5.372 1.311-1.855 2.55-3.517 3.529-4.65.506-.585.822-.888.96-.999.077-.062-.047.055-.339.183-.221.097-1.199.496-2.457.077l2.53-7.589c-1.483-.495-2.741-.054-3.291.188-.621.273-1.122.637-1.463.912-.7.564-1.387 1.296-1.994 1.998-1.246 1.442-2.669 3.368-4.008 5.263-1.355 1.916-2.698 3.909-3.781 5.515-1.156 1.715-1.883 2.785-2.151 3.119zm7.983-14.381c-.193-.06-.165-.092.17.144.304.214.658.501 1.146.905.442.367 1.015.848 1.59 1.277.568.424 1.313.934 2.163 1.312l3.249-7.311c-.275-.122-.76-.494-1.897-1.437-.462-.383-1.046-.865-1.642-1.285-.565-.398-1.399-.93-2.393-1.241zm5.023 3.617c2.297 1.055 4.824 1.63 6.937 2.087 2.276.493 4.081.853 5.651 1.432l2.765-7.507c-2.23-.822-4.725-1.311-6.724-1.744-2.162-.468-3.886-.893-5.289-1.537z" fill="#000" mask="url(#a)"/><path d="m419.306 154.456c48 12.9 58.6 30.3 66.6 75.1.7 3.9 7 29.3 5.5 31.4-1.6 2.3-45.7 6.1-47.5 14.4-.7 3.2 2.3 8.3 2.7 11.5 2.2 16.2-1.3 60-12.8 71.3-23.2 22.8-29.7 15.2-55.7 19.1-10 1.5-18.8 4.5-29.2 3-10.1-1.4-6-2.6-15.5-3.8-6.7-.8-13.9 1.2-20.5 0-12.1-2.2-43.3-12.8-50.2-22.9-2-2.9-14-48.3-14.6-53.9-.4-4.1.4-16.8-2.3-19.9-2-2.3-9.9-2.5-14.6-9.8-6.9-10.7-19.7-40.3-21.4-51.8-1.5-10.1 20.3-43 29.7-48.8 4.4-2.7 10.6-4.2 15.5-5.1 4.8-.9 35.1-12.3 36.5-11.9 2.1.6 5.1 14.2 6.4 16.1 10.4 15.5 31.7 26 51.6 22.9 23.5-3.6 29-10.9 42.4-27.6 1.6-2 10.5-16.3 12.3-15.7 1.6.5 3.7 3 5.5 3.8 3.7 1.7 8.5 2 12.3 3.4" stroke="#fff" stroke-linecap="round" stroke-linejoin="round"/><path d="m491.006 259.656c5.7 24.1 3.9 56.1 17.9 77.5 1.3 2 3.2 15.6.9 18.2-5.1 5.9-57.5-8-62.1-13.8-3-3.8-4-73.5-1.4-76 10.7-10 24.9-9.6 37.9-13.6" fill="#ebb899"/><path d="m244.606 269.456c-4.2 12-7.1 26.5-14.6 36.9-.8 1.2-6.1 8.4-7.8 7.6-3.3-1.6-5.9-8.4-8.7-11-23.9-22.3-20.9-27.3-30.6-54.3-1.3-3.6 26.5-34.4 28.7-34 7.9 1.5 18.5 22.7 22.8 29.3 4.9 7.6 5.7 17.3 11 24.6" fill="#ebb899"/><path d="m154.406 196.656c10.3-.2 20.7-1.1 31-1.1 6 0 38.4-1.8 41.7 0 2.1 1.2.1 9.7.7 11.7 3.4 11-3.2 60.4-13.1 66.9-6.6 4.4-13.3 3.4-21 4.1-5.3.4-13.4 1.6-18.2-.9-20.2-10.8-26.6-61-22.7-80.8" fill="#d4805c"/><path d="m154.406 196.656c10.3-.2 20.7-1.1 31-1.1 6 0 38.4-1.8 41.7 0 2.1 1.2.1 9.7.7 11.7 3.4 11-3.2 60.4-13.1 66.9-6.6 4.4-13.3 3.4-21 4.1-5.3.4-13.4 1.6-18.2-.9-20.2-10.8-26.6-61-22.7-80.8" stroke="#d4805c" stroke-linecap="round" stroke-linejoin="round"/><path d="m161.506 260.256c-2-1-10.1-6.7-10.1-8.4 0-5.3 7.2-1.7 8.6.4 1.1 1.7 4.6 8.6.4 6.2-1-.5-1.5.1-2.2-.8" fill="#d4805c"/><path d="m161.506 260.256c-2-1-10.1-6.7-10.1-8.4 0-5.3 7.2-1.7 8.6.4 1.1 1.7 4.6 8.6.4 6.2-1-.5-1.5.1-2.2-.8" stroke="#d4805c" stroke-linecap="round" stroke-linejoin="round"/><path d="m151.806 215.156c-5.5-4.3-11.7-12-18.8-9.2-7.4 3-29.6 12.9-28.1 22.4.4 2.7 3.7 2.4 4.4 4.7.9 3.3-1 8.2 1 11.1 1.8 2.6 6.2 2.6 8.7 4.5 1.9 1.4 2.6 4.8 4.7 6.6 2 1.8 4.4 1.2 6.6 2.3 1.1.6 2 1.9 2.9 2.7 4.1 3.8 11.1 1.9 15.9.5 1.8-.5 8.7-.3 9.8-2 1.3-2-5.7-3.4-6-4.9-.3-1.4 4-7.1 3.4-10.8-1.1-6.1-5.6-21.3-4.4-26.8" fill="#ebb899"/><path d="m153.206 206.956c-4.3-4.1-8-1.8-13.3-.5-1.5.3-5.6 2.3-4.2 1.6 1.6-.7 16.2 6.7 16.6 6.4.9-.7.1-6 .1-7.3" fill="#d4805c"/><path d="m153.206 206.956c-4.3-4.1-8-1.8-13.3-.5-1.5.3-5.6 2.3-4.2 1.6 1.6-.7 16.2 6.7 16.6 6.4.9-.7.1-6 .1-7.3" stroke="#d4805c" stroke-linecap="round" stroke-linejoin="round"/><path d="m128.306 207.556c.2-2.2-.7-4.6-.1-6.8.4-1.6.7-3.8 1.6-5.1 5.4-8.4 25.4 3.9 15 11.1-3.8 2.6-11.8-.8-11.8-.8-2.4 1.7 1.4 1.9-3.4 2.6" fill="#ebb899"/><path d="m151.206 219.356c-13.9-.7-21.2-2.9-31.2 8.3" stroke="#000" stroke-linecap="round" stroke-linejoin="round" stroke-opacity=".1"/><path d="m152.906 226.256c-10.2 1.4-22.2 4.5-25.4 14.9" stroke="#000" stroke-linecap="round" stroke-linejoin="round" stroke-opacity=".1"/><path d="m153.506 236.956c-6.3 2.4-10.5 8.5-15.2 12.9" stroke="#000" stroke-linecap="round" stroke-linejoin="round" stroke-opacity=".1"/><path d="m146.106 199.256c-2.8-1.7-7.6 5.3-8.8 4.2-4-3.7 2.7-8.1 6.7-6.5 1 .4 1.7 1.3 2.5 1.8" fill="#ffd6cc"/><path d="m146.106 199.256c-2.8-1.7-7.6 5.3-8.8 4.2-4-3.7 2.7-8.1 6.7-6.5 1 .4 1.7 1.3 2.5 1.8" stroke="#ffd6cc" stroke-linecap="round" stroke-linejoin="round"/><path d="m28.9063 528.356c-1.2.5-2.1999 1.3-3.1999 2-2.7 2.1-4.3 7.1-.2 9 1.5.7 8.5-1.9 6.6-7.3-.6-1.7-1-2.7-2.4-3.8" fill="#ff665b"/><path d="m28.9063 528.356c-1.2.5-2.1999 1.3-3.1999 2-2.7 2.1-4.3 7.1-.2 9 1.5.7 8.5-1.9 6.6-7.3-.6-1.7-1-2.7-2.4-3.8" stroke="#ff665b" stroke-linecap="round" stroke-linejoin="round"/><path d="m22.7063 546.256c-7.9-.1.4 10.3 2.1 6.2.4-.9.3-2.8-.2-3.7s-1.1-1.7-1.3-2.7" fill="#ff665b"/><path d="m22.7063 546.256c-7.9-.1.4 10.3 2.1 6.2.4-.9.3-2.8-.2-3.7s-1.1-1.7-1.3-2.7" stroke="#ff665b" stroke-linecap="round" stroke-linejoin="round"/><path d="m29.9063 554.756c-5.5.6 3 8.7 3 4.3 0-1.4-.5-2.5-1.5-3.6-.5-.5-1-.9-1.5-1.3" fill="#ff665b"/><path d="m29.9063 554.756c-5.5.6 3 8.7 3 4.3 0-1.4-.5-2.5-1.5-3.6-.5-.5-1-.9-1.5-1.3" stroke="#ff665b" stroke-linecap="round" stroke-linejoin="round"/><path d="m39.1063 559.456c-6.7-2.8 1.2 7.6-.2-.1z" fill="#ff665b"/><path d="m39.1063 559.456c-6.7-2.8 1.2 7.6-.2-.1" stroke="#ff665b" stroke-linecap="round" stroke-linejoin="round"/><path d="m45.5063 561.456c-1.2.6.4 1.2.1-.2z" fill="#ff665b"/><path d="m45.5063 561.456c-1.2.6.4 1.2.1-.2" stroke="#ff665b" stroke-linecap="round" stroke-linejoin="round"/><path d="m35.7064 685.356c-1.5-.9-2.4-2.6-3.9-3.5-1.3-.7-3-1-4.4-.8-8.4 1.1-.9 10 3.2 8.9.9-.2 1.7-.9 2.5-1.3 1.3-.6 3.2-2 3.2-3.5" fill="#ff665b"/><path d="m35.7064 685.356c-1.5-.9-2.4-2.6-3.9-3.5-1.3-.7-3-1-4.4-.8-8.4 1.1-.9 10 3.2 8.9.9-.2 1.7-.9 2.5-1.3 1.3-.6 3.2-2 3.2-3.5" stroke="#ff665b" stroke-linecap="round" stroke-linejoin="round"/><path d="m5.20639 691.156c-.9.7-1.90001 1.3-2.70001 2.2-5.2 6 8.40002 6.6 5.70001 0-.4-1-.30001-1.9-1.60001-2.2" fill="#ff665b"/><path d="m5.20639 691.156c-.9.7-1.90001 1.3-2.70001 2.2-5.2 6 8.40002 6.6 5.70001 0-.4-1-.30001-1.9-1.60001-2.2" stroke="#ff665b" stroke-linecap="round" stroke-linejoin="round"/><path d="m6.70635 681.856c-4.1 4.2 1.19998 6.5 1.19998 1.5z" fill="#ff665b"/><path d="m6.70635 681.856c-4.1 4.2 1.19998 6.5 1.19998 1.5" stroke="#ff665b" stroke-linecap="round" stroke-linejoin="round"/><path d="m374.606 37.8563c3.3 11.9 9.8 22.9 9.8 35.7 0 11.9-1.6 23-3.9 34.6997-2.1 10.5-6.2 18.9-10.6 28.5-6 13 6.7 36.2 19.9 21.6 4.4-4.9 3.2-12.5 5-18.4 7.2-23.5 11.3-32.8 2.1-56.8997-1.4-3.6-.1-13.6-1.3-17.1-3.7-11.3-8.7-21.9-20.5-28.8" fill="#271711"/><path d="m374.606 37.8563c3.3 11.9 9.8 22.9 9.8 35.7 0 11.9-1.6 23-3.9 34.6997-2.1 10.5-6.2 18.9-10.6 28.5-6 13 6.7 36.2 19.9 21.6 4.4-4.9 3.2-12.5 5-18.4 7.2-23.5 11.3-32.8 2.1-56.8997-1.4-3.6-.1-13.6-1.3-17.1-3.7-11.3-8.7-21.9-20.5-28.8" stroke="#271711" stroke-linecap="round" stroke-linejoin="round"/><path d="m311.406 36.8563c-5 5.9-6.4 13.8-8.3 21-5.1 19.5-2.5 35 2.5 54.2997 1.5 5.7 1.1 11.6 2.9 17.2 3.3 10.7 14.8 19.9 15.6 31.3 1 13.8-12.8 19.8-18.9 30.5-1.9 3.3-2.8 7.4-3.7 11-.1.6-2.6 6.9-2.7 6.8s9.3-31.1 3.7-26.7c-4.3 3.4-5.3 9.8-10.6 12.6-5.5 2.9-12.7 2.8-17.2 7.2-1.8 1.7-2.7 4-4.6 5.6-3.4 2.9-6.2 5.3-8.7 9-4.1 6.1-5 13.9-5 21 0 1.5-.1 11.9-1 11.2-12.4-8-.5-24.6 0-32.9.5-8.2-3.2-17-.4-25 2.7-7.9 11.5-12.8 12.3-21.4.3-3.8-.6-7.6-.2-11.4.8-7.3 4.7-13.9 5.4-21.2 2.6-27.9 13.9-100.0997 49.6-106.9997" fill="#271711"/><path d="m311.406 36.8563c-5 5.9-6.4 13.8-8.3 21-5.1 19.5-2.5 35 2.5 54.2997 1.5 5.7 1.1 11.6 2.9 17.2 3.3 10.7 14.8 19.9 15.6 31.3 1 13.8-12.8 19.8-18.9 30.5-1.9 3.3-2.8 7.4-3.7 11-.1.6-2.6 6.9-2.7 6.8s9.3-31.1 3.7-26.7c-4.3 3.4-5.3 9.8-10.6 12.6-5.5 2.9-12.7 2.8-17.2 7.2-1.8 1.7-2.7 4-4.6 5.6-3.4 2.9-6.2 5.3-8.7 9-4.1 6.1-5 13.9-5 21 0 1.5-.1 11.9-1 11.2-12.4-8-.5-24.6 0-32.9.5-8.2-3.2-17-.4-25 2.7-7.9 11.5-12.8 12.3-21.4.3-3.8-.6-7.6-.2-11.4.8-7.3 4.7-13.9 5.4-21.2 2.6-27.9 13.9-100.0997 49.6-106.9997" stroke="#271711" stroke-linecap="round" stroke-linejoin="round"/><path d="m341.006 26.2563c-9.7 1.8-17.7 5.8-25.4 11.7-16.3 12.6-18.5 52-15.8 70.2997 1.6 10.9 1.8 27.8 11.9 35.6 9.4 7.3 19.1 15.4 32.3 13.5 14.5-2.1 26-10 30.5-18.6 13.7-26.5 19.2-78.4997 2.3-102.0997-6-8.3-24.2-10.2-33.7-10.2" fill="#ebb899"/><path d="m356.506 12.9563c-2 3.4-.7 13.3001-4.4 15.4001-7.5 4.3-24.9-3.7-41.1 15-5.6 6.5-22.2 49-23.9 56.5-3.4 15.4996 2.2 17.5996-8.1 34.6996-1.6 2.7-2.6 5.9-4.6 8.4-3.3 4.2-7.9 6-10.2 11.4-.5 1.3-3.4 16.4-4.2 16-2.2-1.1 4.5-26.1 5-29.7 2.7-17.9 8.9-34.6 13.1-52.0996 1.9-8.1 2.4-16.9 4.8-24.8 4.1-13.6 19.2-34.8 29.9-45.1 9-8.70005 37.2-26.30003 44.2-5.8" fill="#271711"/><path d="m356.506 12.9563c-2 3.4-.7 13.3001-4.4 15.4001-7.5 4.3-24.9-3.7-41.1 15-5.6 6.5-22.2 49-23.9 56.5-3.4 15.4996 2.2 17.5996-8.1 34.6996-1.6 2.7-2.6 5.9-4.6 8.4-3.3 4.2-7.9 6-10.2 11.4-.5 1.3-3.4 16.4-4.2 16-2.2-1.1 4.5-26.1 5-29.7 2.7-17.9 8.9-34.6 13.1-52.0996 1.9-8.1 2.4-16.9 4.8-24.8 4.1-13.6 19.2-34.8 29.9-45.1 9-8.70005 37.2-26.30003 44.2-5.8" stroke="#271711" stroke-linecap="round" stroke-linejoin="round"/><path d="m358.606 12.1563c28 1.6 35.1 37.3 41.1 57.5 4 13.7 11 25.3 9.8 39.8997-.8 8.9-7.8 15.9-9.1 24.6-.6 4.2 3.6 6.8 3.1 10.8-.8 5.9-14.4 26.2-21.4 15-1.3-2.1 14.2-42.8 15-53.3.5-6.6997-4.2-32.6997-5.2-41.8997-.4-3.8-3.2-7.8-4.2-11.6-1.5-5.7-5.8-13.7-11-17-4.7-3-20.4-.9-22.4-7.6-1.4-4.7 1.7-10.5 2.5-15" fill="#271711"/><path d="m358.606 12.1563c28 1.6 35.1 37.3 41.1 57.5 4 13.7 11 25.3 9.8 39.8997-.8 8.9-7.8 15.9-9.1 24.6-.6 4.2 3.6 6.8 3.1 10.8-.8 5.9-14.4 26.2-21.4 15-1.3-2.1 14.2-42.8 15-53.3.5-6.6997-4.2-32.6997-5.2-41.8997-.4-3.8-3.2-7.8-4.2-11.6-1.5-5.7-5.8-13.7-11-17-4.7-3-20.4-.9-22.4-7.6-1.4-4.7 1.7-10.5 2.5-15" stroke="#271711" stroke-linecap="round" stroke-linejoin="round"/><path d="m337.806 177.356c1.9 4.1 5 7.6 6.9 11.6" stroke="#000" stroke-linecap="round" stroke-linejoin="round" stroke-opacity=".1"/><path d="m367.506 171.656c-.2 2.5.2 4.9.2 7.4" stroke="#000" stroke-linecap="round" stroke-linejoin="round" stroke-opacity=".1"/><path d="m353.506 130.056c-4.2 3-12.2 2.8-16.8 1.1-1.3-.5-2.4-1.5-3.7-2-.7-.3-3.1-.6-3.3-1.7-.4-2 3.3-2.4 4.3-2.4 4.4 0 17.8.2 20.8 4" fill="#fff"/><path d="m325.706 125.356c4.8-1.2 9.3-5 14.3-5 1.9 0 2.8 2.1 4.5 2.4s2.8-1.1 4.3-1.4c2.2-.4 5.1 2.1 6.8 3.2.8.5 4.7 2.6 4.7 3.7 0 .6-10.3-.3-11.1-.3-4.7 0-10-1-14.7-1.7-2.7-.4-5.8.7-8.4-.2" fill="#b55d6a"/><path d="m325.706 125.356c4.8-1.2 9.3-5 14.3-5 1.9 0 2.8 2.1 4.5 2.4s2.8-1.1 4.3-1.4c2.2-.4 5.1 2.1 6.8 3.2.8.5 4.7 2.6 4.7 3.7 0 .6-10.3-.3-11.1-.3-4.7 0-10-1-14.7-1.7-2.7-.4-5.8.7-8.4-.2" stroke="#b55d6a" stroke-linecap="round" stroke-linejoin="round"/><path d="m352.506 128.956c-4.4 1.9-10.1 2.3-14.8.8-1.7-.6-3.2-1.9-5-2.2-1.2-.2-2.5-.3-3.6-.6-.5-.1-3.2-1-3.7-.6-.5.5 3.2 4.2 3.6 4.8 3.5 4.6 12.6 7.3 18.3 6.2 4.4-.8 6.9-2.5 9.5-5.8.2-.2 2.7-2.5 2.5-2.7-.7-.6-5.1-.2-6.1-.2" fill="#b55d6a"/><path d="m352.506 128.956c-4.4 1.9-10.1 2.3-14.8.8-1.7-.6-3.2-1.9-5-2.2-1.2-.2-2.5-.3-3.6-.6-.5-.1-3.2-1-3.7-.6-.5.5 3.2 4.2 3.6 4.8 3.5 4.6 12.6 7.3 18.3 6.2 4.4-.8 6.9-2.5 9.5-5.8.2-.2 2.7-2.5 2.5-2.7-.7-.6-5.1-.2-6.1-.2" stroke="#b55d6a" stroke-linecap="round" stroke-linejoin="round"/><path d="m335.806 103.556c-1.9 1.4-1.9 7.4 1.4 6.7 1.2-.2 2.7-2.4 4.1-1.5 1.6.9 2.8 3.4 5.2 2.6 1.7-.5 2.9-2.2 4.8-2.2 1.6 0 2.1 3 3.8 2.2 2.2-.9 3.2-3.2 1.3-5" stroke="#000" stroke-linecap="round" stroke-linejoin="round" stroke-opacity=".15"/><path d="m358.506 70.2563c.1.8 0 2.9.8 3.3.9.5 10.7-2.5 14-1.3 3.5 1.3 6.3 3.1 8.9 5.6.2.2.7 1 1.1.8 1.1-.4-3.4-6.7-4.1-7.2-5.2-4.2-14.3-3.1-20.5-1.6" fill="#271711" fill-opacity=".672"/><path d="m339.206 67.4563c-.4.5-.4 2.4-1.1 2.6-.8.3-4.5-1.8-5.4-2.1-4.8-1.7-11.3-2.8001-16.3-1.7001-1.9.4-3.7 1.1001-5.6 1.6001-.1 0-.5.2-.5.2-1-1 7-5.4 7.8-5.7 7.6-2.8 14.5 1.1 21.2 4" fill="#271711" fill-opacity=".672"/><path d="m356.906 86.0563c6-6.4 13.9-3 19.8 1.3" stroke="#000" stroke-linecap="round" stroke-linejoin="round"/><path d="m368.506 83.1563c3.3 2.7-1.1 6.2-4.6 4.7s-2.2-5.3 2.1-5.3c.9 0 1.6.3 2.5.6z" fill="#000"/><path d="m368.506 83.1563c3.3 2.7-1.1 6.2-4.6 4.7s-2.2-5.3 2.1-5.3c.9 0 1.6.3 2.5.6z" stroke="#000" stroke-linecap="round" stroke-linejoin="round"/><path d="m336.106 83.5564c-3.9-6.4-14.2-8.2001-20.1-3.1001" stroke="#000" stroke-linecap="round" stroke-linejoin="round"/><path d="m329.506 78.6563c2.6 3-3 6.6-5.6 4.2-4-3.9 1.6-6.2 5.4-4.2" fill="#000"/><path d="m329.506 78.6563c2.6 3-3 6.6-5.6 4.2-4-3.9 1.6-6.2 5.4-4.2" stroke="#000" stroke-linecap="round" stroke-linejoin="round"/><path d="m322.006 122.856c-.6.7-.7 1.7-.7 2.6" stroke="#000" stroke-linecap="round" stroke-linejoin="round" stroke-opacity=".1"/><path d="m364.406 127.856c0 .4 0 .8-.1 1.2" stroke="#000" stroke-linecap="round" stroke-linejoin="round" stroke-opacity=".1"/><path d="m351.506 87.3563c1.2-3.5-4.6-4.5-7.2-4-1.3.2-2.5 1.1-2.5 2.4 0 .6.9 2.1001.3 1.8001-.4-.2-3.8-6.4001-3.6-6.9001 1.1-2.2 15.8-.3 17.1 1.7.4.6-3 4.0001-3.2 4.7001" fill="#000"/><path d="m351.506 87.3563c1.2-3.5-4.6-4.5-7.2-4-1.3.2-2.5 1.1-2.5 2.4 0 .6.9 2.1001.3 1.8001-.4-.2-3.8-6.4001-3.6-6.9001 1.1-2.2 15.8-.3 17.1 1.7.4.6-3 4.0001-3.2 4.7001" stroke="#000" stroke-linecap="round" stroke-linejoin="round"/><path d="m354.306 81.4563c4.8-4.3 18.3-7.2 24.7-5.6 2.5.6 5 2 7.6 2.3 2 .2 10 1.7 10.7 3.5.6 1.4.4 6.3-.8 7.4-.6.6-2.8.5-3.7.9-.3.1-1.9 1.4-2.1 1.3-1.8-.7-2-6-3.4-7.6-3.3-3.7-16.9-6.6-21.7-5.3-5.2 1.4-8.4 3.5-10.8 8.2-.6 1.2-1.3 6.9-3.4 5.4-2.1-1.6 1.9-8.8 3-10.3" fill="#000"/><path d="m354.306 81.4563c4.8-4.3 18.3-7.2 24.7-5.6 2.5.6 5 2 7.6 2.3 2 .2 10 1.7 10.7 3.5.6 1.4.4 6.3-.8 7.4-.6.6-2.8.5-3.7.9-.3.1-1.9 1.4-2.1 1.3-1.8-.7-2-6-3.4-7.6-3.3-3.7-16.9-6.6-21.7-5.3-5.2 1.4-8.4 3.5-10.8 8.2-.6 1.2-1.3 6.9-3.4 5.4-2.1-1.6 1.9-8.8 3-10.3" stroke="#000" stroke-linecap="round" stroke-linejoin="round"/><path d="m389.006 87.8563c5 16.4997-18 29.8997-30.6 17.6997-3.2-3.1-4.1-7.8997-4.1-12.1997 0-.8.1-3.3-.9-3.5-.2 0-1.9-.2-2.1 0-1.8 1.3 2.8 13.9997 3.9 15.7997.9 1.4 2.8 2.6 4.1 3.6 1.2.8 2.2 1.8 3.5 2.5 7.1 3.4 17.9-1.1 23-6 2.6-2.5 3.8-5.6 5.4-8.5997 1.3-2.5 4.8-8.5 3.8-11.3-.3-.8-3.6-.7-4.5-.9" fill="#000"/><path d="m389.006 87.8563c5 16.4997-18 29.8997-30.6 17.6997-3.2-3.1-4.1-7.8997-4.1-12.1997 0-.8.1-3.3-.9-3.5-.2 0-1.9-.2-2.1 0-1.8 1.3 2.8 13.9997 3.9 15.7997.9 1.4 2.8 2.6 4.1 3.6 1.2.8 2.2 1.8 3.5 2.5 7.1 3.4 17.9-1.1 23-6 2.6-2.5 3.8-5.6 5.4-8.5997 1.3-2.5 4.8-8.5 3.8-11.3-.3-.8-3.6-.7-4.5-.9" stroke="#000" stroke-linecap="round" stroke-linejoin="round"/><path d="m336.906 79.7563c7.6 15.6-8.5 34.8997-25.5 23.9997-1.3-.8-3.4-1.4-4.4-2.6-3.8-4.5997-3.5-9.8997-4-15.4997-.1-.8.6-3.3-.1-4-.5-.5-3.2-.4-3.4 1.6-.3 3.7.9 7.3 2.1 10.8 2.3 6.5997 9.3 13.4997 16.2 15.3997 9.7 2.7 24.3-9.9997 24.3-19.1997 0-2.9.5-8.4-3.2-9.2" fill="#000"/><path d="m336.906 79.7563c7.6 15.6-8.5 34.8997-25.5 23.9997-1.3-.8-3.4-1.4-4.4-2.6-3.8-4.5997-3.5-9.8997-4-15.4997-.1-.8.6-3.3-.1-4-.5-.5-3.2-.4-3.4 1.6-.3 3.7.9 7.3 2.1 10.8 2.3 6.5997 9.3 13.4997 16.2 15.3997 9.7 2.7 24.3-9.9997 24.3-19.1997 0-2.9.5-8.4-3.2-9.2" stroke="#000" stroke-linecap="round" stroke-linejoin="round"/><path d="m337.506 81.4563c-2.6-4.3-4.8-4.1-8.4-5.8-8-3.8-17.2-2.6-23.9 3-1.1.9-1.3 2.9-2.2 3.6-.3.2-3.5 1-3.7.9-1.3-1-2.9-9-1.6-9.8 3.6-2.1 8.6-1.4 12.5-1.8 12.2-1.5 31.1-.1 31.1 15.8" fill="#000"/><g stroke="#000"><path d="m337.506 81.4563c-2.6-4.3-4.8-4.1-8.4-5.8-8-3.8-17.2-2.6-23.9 3-1.1.9-1.3 2.9-2.2 3.6-.3.2-3.5 1-3.7.9-1.3-1-2.9-9-1.6-9.8 3.6-2.1 8.6-1.4 12.5-1.8 12.2-1.5 31.1-.1 31.1 15.8" stroke-linecap="round" stroke-linejoin="round"/><path d="m491.606 267.256c-.1-.7-.3-1.8-.9-2.2-1.4-1.1-2.9-.4-3.4 1.2-1.3 4.7-1.1 8.9.7 13.4" stroke-linecap="round" stroke-linejoin="round" stroke-opacity=".697"/><path d="m492.806 287.856c.6 1.1 1.3 1.9 1.7 3" stroke-linecap="round" stroke-linejoin="round" stroke-opacity=".697"/><path d="m486.206 291.056c.1-.5.2-1 .3-1.5.2-1.1.3-2.3.3-3.4 0-.4 0-1.7.1-1.3.2 1.6.3 3.2.5 4.9.1.9.1 1.7.2 2.6 1.6 12.2-2.1-6.8-.1-7.7 2.3-.9 3 4.1 1.7 5.4" stroke-linecap="round" stroke-linejoin="round" stroke-opacity=".697"/><path d="m490.506 281.056c-1.5-.2-1.7 7.8.4 6.3 1.1-.8.3-3.9 0-4.9-.2-.7-.3-1.7-.3-1.6-.7.9 1.2 5.2 2.3 3.9" stroke-linecap="round" stroke-linejoin="round" stroke-opacity=".697"/><path d="m493.106 282.556c.1-2.2.1-4.3-.2-6.5 0-.3-.6-6.4-1.7-5.4-1.4 1.2.9 12.6 2.7 14.1" stroke-linecap="round" stroke-linejoin="round" stroke-opacity=".697"/><path d="m469.806 310.856c2.3 6.7 6.5 3.8 11.7 5.1 1.5.4 2.9 2.8 4.6 2.2 1.5-.6 2-2.9 1.5-4.3-.6-1.7-4.3-9.7-5.3-11.1-.8-1.2-2.4-2.4-3.8-2.9-2-.7-5.1.8-7.3.6-4.3-.3-8.7-.1-11.9 3.3-2.5 2.5-1.9 5.5-2.1 8.7" stroke-linecap="round" stroke-linejoin="round" stroke-opacity=".697"/><path d="m481.306 318.056c1.5 9.5-8.4 13.1-16.1 11.1-2.1-.5-6.9-5.1-9-3.1-1.9 1.8 1.8 2.4 2.9 2.3" stroke-linecap="round" stroke-linejoin="round" stroke-opacity=".697"/><path d="m468.506 318.156c.3-.2 1.5-1 1.8-.9 1.2.4 3.2 3 .6 2.6-5-2.1-6.3-3.1-6.9-3.5-2.5-1.9-7.3-3.4-10.7-2.5-8.2 2.3-4.9 21.7-.6 25 3.4 2.6 7.2 1.1 10.8.1 4.1-1.1 16.9-3.3 20.2-.7 1.1.8 1.6 2.1 2.2 3.3 1 2.1 1.8 3.8 1.2 6.2-.7 2.9-4.3 2.6-6.5 2.2-1.8-.4-3.4-1.8-5.2-2.3-1.2-.3-2.5-.2-3.6-.7-2.1-.9-3.9-2.5-6.1-3-.8-.2-1.5.2-2.3.2-8.6-.3-10.8 8.4-9.9 15.6" stroke-linecap="round" stroke-linejoin="round" stroke-opacity=".697"/><path d="m481.906 324.256c13.7-2.2 24.6 25.4 17.7 34.3" stroke-linecap="round" stroke-linejoin="round" stroke-opacity=".697"/></g><path d="m481.006 321.556c-9.8 6.8-15.7-4.9-24.6-5.9-8-.9-7 13.8-2.9 19.2 1.8 2.4-1.1-3.9-1.3-4.8-.9-3.9-1.2-11.2 5.1-10.3 3 .5 5.4 3.2 6.8 3.9 4.7 1.9 15 5.6 16.9-2.1z" fill="#000" fill-opacity=".734"/><path d="m481.406 323.556c.1 1.9.1 4.1-1.1 5.6-3 3.8-16.1 7.6-19.9 3.6-.6-.6.4-1.6-.1-2.4-.3-.5-1.4-2.1-.8-2.7s3.9 1.1 4.6 1.3c1.9.5 4.1.4 6.1.4 4.9 0 9-1.2 11.1-5.9" fill="#000" fill-opacity=".734"/><path d="m484.306 307.756c0 1.7-2 .7-2.9 1.5-1.1.9.3 2.9-.7 3.5-1.3.7-2.3-1.5-3.6-1.6-2.5-.3-1.7 1.4-5-.6-.4-.2-1.3-.5-1.5-1-.9-2 3.5-.1 2.1-3.2-.5-1.2-1.6-1.5-2.7-1.8-3.6-1-4.8-1.2-7.9 1.9-.5.5-3.6 7-4.1 6.4-2.6-2.7 1.6-10.2 4.6-11.3 3.1-1.1 5.5.1 8.6.3 4.3.3 8.4-1 11.5 3 .6.8 1.2 1.8 1.4 2.8" fill="#000" fill-opacity=".734"/><path d="m467.606 309.256c-2.5 3.2 4.7 2.4 1.8.2-.5-.4-1.1-.4-1.6-.2" stroke="#000" stroke-linecap="round" stroke-linejoin="round" stroke-opacity=".697"/><path d="m467.106 359.256c12.8-12.5 25.9-27.4 26.6-46.1" stroke="#000" stroke-linecap="round" stroke-linejoin="round" stroke-opacity=".697"/><path d="m491.606 314.656c.1 1.5.8 2.8 1.3 4.2" stroke="#000" stroke-linecap="round" stroke-linejoin="round" stroke-opacity=".697"/><path d="m489.606 318.156c0 2.5 0 4.8 1.7 6.8" stroke="#000" stroke-linecap="round" stroke-linejoin="round" stroke-opacity=".697"/><path d="m494.906 315.756c0 1.4-.9 2.4-1.5 3.5" stroke="#000" stroke-linecap="round" stroke-linejoin="round" stroke-opacity=".697"/><path d="m495.106 320.056c-.1 1.9-1.7 2.7-2.7 4.1" stroke="#000" stroke-linecap="round" stroke-linejoin="round" stroke-opacity=".697"/><path d="m496.006 326.156c-.7.6-2 1-2.9 1.1" stroke="#000" stroke-linecap="round" stroke-linejoin="round" stroke-opacity=".697"/><path d="m482.806 328.856c.3 3-.7 7.1 1.1 9.8" stroke="#000" stroke-linecap="round" stroke-linejoin="round" stroke-opacity=".697"/><path d="m493.306 335.556c-2.8 2.1-6.1 2.6-9.4 3" stroke="#000" stroke-linecap="round" stroke-linejoin="round"/><path d="m486.106 327.556c-1.5.9.4 4.9 2 3.9 1.6-1.1.4-3.7-1.3-3.5" stroke="#000" stroke-linecap="round" stroke-linejoin="round" stroke-opacity=".697"/><path d="m492.406 331.056c3.7 4 4.2 9.5 6 14.5.1.4 1.6 5.3 1.9 5.1.5-.4 0-2.6 0-3.1-.6-4.8-2.8-14.1-7.7-16.2" fill="#000" fill-opacity=".74"/><path d="m259.306 334.356h263.9c9.9 0 18 7.5 18 16.7v138.5c0 9.2-8 16.7-18 16.7h-263.9c-9.9 0-18-7.5-18-16.7v-138.5c.1-9.2 8.1-16.7 18-16.7z" fill="#adadad"/><path d="m523.206 334.356c9.9 0 18 7.5 18 16.7v138.5c0 9.2-8 16.7-18 16.7h-263.9c-9.9 0-18-7.5-18-16.7v-138.5c0-9.2 8-16.7 18-16.7zm0 .5h-263.9c-9.6 0-17.5 7.3-17.5 16.2v138.5c0 8.9 7.8 16.2 17.5 16.2h263.9c9.6 0 17.5-7.3 17.5-16.2v-138.5c0-8.9-7.8-16.2-17.5-16.2z" fill="#adadad"/><path d="m391.306 453.356c-19 0-34.5-14.4-34.5-32.3s15.4-32.3 34.5-32.3 34.5 14.4 34.5 32.3-15.5 32.3-34.5 32.3z" fill="#deeaff"/><path d="m391.306 388.856c19 0 34.5 14.4 34.5 32.3s-15.4 32.3-34.5 32.3-34.5-14.4-34.5-32.3 15.4-32.3 34.5-32.3zm0 .5c-18.8 0-34 14.2-34 31.8s15.2 31.8 34 31.8 34-14.2 34-31.8-15.3-31.8-34-31.8z" fill="#deeaff"/><path d="m275.406 76.2563c-7.8 5-9.5 14-9.5 21.2 0 30.1997 27.4 33.7997 31.7 8.9997 1.4-7.8997 3.5-25.5997-6.3-31.5997-5.5-3.3-7.8-3.9-15.6.6" fill="#000"/><path d="m275.406 76.2563c-7.8 5-9.5 14-9.5 21.2 0 30.1997 27.4 33.7997 31.7 8.9997 1.4-7.8997 3.5-25.5997-6.3-31.5997-5.5-3.3-7.8-3.9-15.6.6" stroke="#000" stroke-linecap="round" stroke-linejoin="round"/><path d="m283.406 72.7563c.4-17.8-.8-38.7 10.8-53.5 14.6-18.599976 53.7-22.89999 74.5-13.29999 6.4 2.9 14.8 5.09999 19.4 10.79999 4.1 5.2 5.9 12.5 8.2 18.5 6.9 18 7.6 23.3 5.8 36.1-.4 2.7-1.3 7.9-4.5 7.3-.8-.1-2.3-12-2.2-13 .9-6.1-3.4-9.5-3.7-15.6-.9-18.8-13-34-30.9-40-5.3-1.79999-11-1.69997-16.4-2.29997-7.8-.9-16.2-.70002-23.6 2.29997-16.4 6.6-20.3 18.8-25 34.6-1.9 6.4-4.3 13-5.6 19.6-1 4.8-.2 12.1-6.3 10.3" fill="#000"/><path d="m283.406 72.7563c.4-17.8-.8-38.7 10.8-53.5 14.6-18.599976 53.7-22.89999 74.5-13.29999 6.4 2.9 14.8 5.09999 19.4 10.79999 4.1 5.2 5.9 12.5 8.2 18.5 6.9 18 7.6 23.3 5.8 36.1-.4 2.7-1.3 7.9-4.5 7.3-.8-.1-2.3-12-2.2-13 .9-6.1-3.4-9.5-3.7-15.6-.9-18.8-13-34-30.9-40-5.3-1.79999-11-1.69997-16.4-2.29997-7.8-.9-16.2-.70002-23.6 2.29997-16.4 6.6-20.3 18.8-25 34.6-1.9 6.4-4.3 13-5.6 19.6-1 4.8-.2 12.1-6.3 10.3" stroke="#000" stroke-linecap="round" stroke-linejoin="round"/><path d="m415.206 75.9563c7.1 6 7.8 15.4 7 22.8-3.2 30.7997-30.5 31.3997-32 5.5997-.5-8.1997-.7-26.5997 9.6-31.4997 5.7-2.8 9.3-2.9 15.4 3.1z" fill="#000"/><path d="m415.206 75.9563c7.1 6 7.8 15.4 7 22.8-3.2 30.7997-30.5 31.3997-32 5.5997-.5-8.1997-.7-26.5997 9.6-31.4997 5.7-2.8 9.3-2.9 15.4 3.1z" stroke="#000" stroke-linecap="round" stroke-linejoin="round"/><path d="m292.906 104.756c2.7 5 6.2 8.7 10.5 12 2.6 1.9 5 3.9 7.7 5.8 4.4 2.9 11.4 2.3 13.7 3.8.7.4 1.3 4.8.2 5-6.8 1.4-32.3-11.5-34.5-18-.4-1.3 1.9-4.6 2.6-5.8" fill="#000"/><path d="m375.406 429.056v.5c0 .2-.1.4-.3.6-.5.5-1 .9-1.6 1.3s-1.3.8-2 1.2-1.4.7-2.2 1-1.5.5-2.2.7c-.6.1-1 .2-1.4.2s-.8-.1-1.1-.3c-.5-.3-.8-.7-1-1.4-.2-.6-.2-1.4-.2-2.4.1-2.3 0-4.4-.1-6.2-.2-1.8-.3-3.4-.5-4.7-.1-.3 0-.6.2-.8s.4-.4.7-.4c.3-.1.5-.1.8 0 .2.1.4.3.5.7v.1c.3 1.6.5 3.4.6 5.3s.2 3.9.1 6v.7c0 .2 0 .4.1.5.1.2.1.3.2.4.2.1.5.1 1 0 .7-.2 1.3-.4 2-.7s1.3-.6 1.8-.9c.6-.3 1.1-.6 1.6-1 .5-.3.9-.6 1.2-1 .1-.1.2-.2.3-.2s.2-.1.3-.1c.4-.1.7 0 .9.2.1.4.2.5.3.7z" fill="#1d1d1b"/><path d="m386.006 423.456c-.1.2-.2.3-.3.5-.1.1-.2.1-.3.1s-.2.1-.3.1c.2.3.4.6.5 1 .1.3.1.6.1.9s-.1.7-.3 1.1c-.3.6-.6 1.1-1 1.6s-.8.9-1.2 1.2-.8.5-1.3.7c-.4.2-.9.4-1.5.5h-.1c-1.4.4-2.4.2-3.2-.6-.4-.3-.6-.9-.8-1.5-.1-.4-.2-.9-.2-1.3 0-1 .1-1.9.5-2.7s.9-1.6 1.5-2.1c.3-.3.6-.4 1-.5s.8-.1 1.2.1c.1-.1.3-.1.5-.2.1 0 .3-.1.4-.1h.9c.3.1.6.1.8.2l1.8-.5c.3-.1.6 0 .9.1.3.2.4.4.5.6 0 .5 0 .7-.1.8zm-2.6 2.2c-.1-.4-.4-.7-.8-.8l-1.6.4c-.4.1-.8.1-1.1.1-.3-.1-.5-.2-.6-.4 0 0 0 0-.1 0 0 0 0 0-.1 0-.2.3-.4.7-.6 1.2s-.3 1-.2 1.6c0 .3.1.5.1.7.1.3.2.5.3.6.3.2.7.3 1.1.2h.2c.4-.1.7-.2 1-.4.3-.1.5-.3.7-.4.3-.2.6-.6.9-.9.3-.4.5-.7.7-1.2.2-.2.2-.4.1-.7z" fill="#1d1d1b"/><path d="m409.406 421.156c-.1.2-.3.3-.5.4-.1 0-.1 0-.2 0 0 0-.1 0-.2 0-.1.1-.2.1-.4.2s-.4.2-.6.3-.4.2-.6.3-.4.2-.6.4c-.5.4-1 .6-1.5.7-.4.1-.8.1-1.2.1s-.8-.2-1.2-.5c-.5-.3-.9-.7-1.2-1.2-.4-.5-.7-1-1-1.6-.1-.2-.3-.3-.3-.3-.2.1-.5.3-1 .9-.1.1-.2.2-.4.5-.2.2-.3.5-.5.8s-.4.6-.5 1c-.2.3-.4.7-.5 1-.1.2-.2.4-.4.5s-.4.2-.6.3-.4.1-.7 0c-.2 0-.4-.2-.6-.3-.2-.2-.3-.4-.5-.6s-.3-.5-.4-.7-.3-.4-.4-.6-.3-.4-.4-.6c-.1-.1-.1-.1-.2-.1h-.1s0 0-.1 0c-.2.1-.4.3-.5.7-.1.3-.2.6-.4.9s-.3.6-.5.9c-.1.2-.3.5-.4.7-.2.4-.4.8-.5 1.2-.2.4-.3.7-.4 1-.1.2-.2.4-.4.6-.2.1-.3.2-.5.3-.1 0-.2 0-.3 0s-.2 0-.3 0c-.5-.1-.8-.4-1-.9-.1-.4-.3-.9-.4-1.3-.1-.5-.3-1-.4-1.5-.2-.6-.3-1.2-.5-1.8-.1-.6-.2-1-.3-1.4 0-.4 0-.7.2-.9s.4-.4.7-.4c.3-.1.5 0 .8.1s.4.3.5.6v.1c.1.4.2.9.3 1.4s.2.9.3 1.4l.1.5c0-.1.1-.2.1-.3s.1-.2.2-.3c.1-.2.2-.4.3-.7.1-.2.2-.5.3-.7l.2-.5c.2-.4.5-.8.8-1.2s.7-.7 1.1-.9c.1 0 .1-.1.2-.1s.1 0 .2-.1c.3-.1.6-.1 1 0 .3.1.7.3 1 .7.1.2.3.4.4.6.2.2.3.4.4.6s.2.3.2.4l.1-.1c.1-.2.2-.4.3-.6s.3-.4.4-.7c.1-.2.3-.4.4-.6s.3-.4.4-.5c.9-1.2 1.7-1.9 2.5-2.1.9-.2 1.7.2 2.2 1.4.2.5.5 1 .9 1.5.3.5.6.8.9 1 .2.1.4.2.7.1.2-.1.4-.1.6-.3.3-.2.5-.3.8-.5s.6-.3.8-.5c.3-.2.5-.3.8-.4s.5-.2.7-.3h.1c.2-.1.4-.1.6-.1s.3.1.5.1c.3.1.4.3.5.6.1.2 0 .4-.1.6.4.5.3.7.2.8z" fill="#1d1d1b"/><path d="m421.406 417.356v.6c0 .2-.1.4-.3.5-.4.4-1 .8-1.6 1.2s-1.2.7-1.7.9c-.1 0-.2.1-.3.1s-.2.1-.3.1c-.5.1-.9.2-1.3.1-.3-.1-.7-.3-1-.6-.1-.1-.3-.3-.5-.6s-.3-.5-.3-.7c0 0-.1 0-.1.1-.2.2-.4.4-.6.8-.2.3-.5.7-.7 1.1-.2.2-.3.4-.5.7-.2.2-.3.4-.4.6-.5.6-1.1 1-1.7 1.2-.5.1-.9.1-1.3-.1-.5-.3-.9-.8-1.1-1.5-.1-.7-.1-1.4 0-2.1.1-.5.3-1 .5-1.6.2-.5.5-1 .7-1.5.3-.5.6-.9.8-1.3.3-.4.6-.8.8-1.1l1.1-1.1c.4-.4.9-.7 1.5-.8.3-.1.6-.1 1-.1.3 0 .7.1 1.1.3.2.1.3.2.4.3s.2.2.2.4c.1.2.1.4 0 .6s-.2.4-.3.5c-.2.1-.3.2-.5.3s-.5 0-.7 0c-.1-.1-.3-.1-.4-.1s-.3 0-.4 0c-.4.1-.9.4-1.4 1-.2.3-.5.6-.7.9-.3.4-.5.7-.7 1.2-.2.4-.4.8-.6 1.3-.2.4-.3.8-.4 1.2v.3c0 .1 0 .2.1.4 0 .1.1.2.1.2h.1c.1 0 .2-.1.3-.3l.2-.3c.2-.3.4-.6.7-.9.2-.3.5-.7.8-1s.5-.7.8-1 .5-.6.7-.8c.3-.3.7-.6 1.1-.7.3-.1.6-.1.8.1.2.1.4.4.5.8l.1.3c.1.2.1.4.2.6s.1.3.2.4c.1.2.3.3.4.4.1 0 .3.1.4 0h.1c.2-.1.4-.2.6-.3s.5-.3.7-.4.5-.3.7-.5.4-.3.5-.4c.2-.1.3-.2.5-.3.3-.1.6 0 .9.2 0 0 .1.2.2.4z" fill="#1d1d1b"/></svg>