<svg fill="none" height="404" viewBox="0 0 393 404" width="393" xmlns="http://www.w3.org/2000/svg"><path d="m356.4 7.59994c-6-.5-39.3-.1-46.4-.9-9.2-1-17.9-1.20002-27.4-1.90002-3.1-.2-31.9-2.39998-33.1-2.19998-6.5 1.1-12.9-1.600011-19.5-1.10001-5.7.4-11.6-.500001-17.3 0-3.1.3-6 1.49999-9.1 1.79999-13.8 1.3-28.3-.09999-41.8-1.79999-13.5-1.600001-30.7 0-44.6 0-22.7 0-44.9.20001-67.3 2.70001-13.2 1.4-28.3-.40002-38.2 10.69996-12.300003 13.7-11.300003 53.5-10 70.2.3 4.2 1.5 8.3 1.8 12.4.9 12.9001 0 26.2001 0 39.1001 0 32-.5 64 1.8 95.9 1.6 22.4 3.6 45 3.6 67.5 0 7.5.9 15.6 0 23.1-1.7 15.3-3.1 31.4 10 42.6 12.8 10.9 40.8.3 55.5-.9 9.9-.8 20.2.1 30 .9 6.9.5 14-.4 20.9 0 14.3.9 28.4.9 42.8.9 6.9 0 13.1 1.4 20 1.8 13.5.8 42.2 1.1 55.5 0 13.6-1.1 27.2-3.6 40.9-3.6 14.1 0 33.9 1.6 47.3 0 6.3-.8 12.8-2.4 19.1-3.6 12.1-2.1 15.1.4 25.5-8 2.7-2.2 4.9-2.6 7.3-5.3 7.1-8.3 6.5-27.1 7.3-37.3 1.7-22.1 1.2-44.5 0-66.6-.6-10.6 0-21.4 0-32 0-25.2 0-50.3 0-75.5 0-9.6-1.8-18.9-1.8-28.4 0-18.6001-2.5-35.8001-4.5-54.2001-.5-4.4-.3-8.9-.9-13.3-.5-3.6-2.3-7.1-2.7-10.7-.6-5 .1-8.7-1.8-13.3-2.8-6.79996-9.8-10.49996-21.8-8.89996" fill="#fff"/><path d="m356.4 7.59994c-6-.5-39.3-.1-46.4-.9-9.2-1-17.9-1.20002-27.4-1.90002-3.1-.2-31.9-2.39998-33.1-2.19998-6.5 1.1-12.9-1.600011-19.5-1.10001-5.7.4-11.6-.500001-17.3 0-3.1.3-6 1.49999-9.1 1.79999-13.8 1.3-28.3-.09999-41.8-1.79999-13.5-1.600001-30.7 0-44.6 0-22.7 0-44.9.20001-67.3 2.70001-13.2 1.4-28.3-.40002-38.2 10.69996-12.300003 13.7-11.300003 53.5-10 70.2.3 4.2 1.5 8.3 1.8 12.4.9 12.9001 0 26.2001 0 39.1001 0 32-.5 64 1.8 95.9 1.6 22.4 3.6 45 3.6 67.5 0 7.5.9 15.6 0 23.1-1.7 15.3-3.1 31.4 10 42.6 12.8 10.9 40.8.3 55.5-.9 9.9-.8 20.2.1 30 .9 6.9.5 14-.4 20.9 0 14.3.9 28.4.9 42.8.9 6.9 0 13.1 1.4 20 1.8 13.5.8 42.2 1.1 55.5 0 13.6-1.1 27.2-3.6 40.9-3.6 14.1 0 33.9 1.6 47.3 0 6.3-.8 12.8-2.4 19.1-3.6 12.1-2.1 15.1.4 25.5-8 2.7-2.2 4.9-2.6 7.3-5.3 7.1-8.3 6.5-27.1 7.3-37.3 1.7-22.1 1.2-44.5 0-66.6-.6-10.6 0-21.4 0-32 0-25.2 0-50.3 0-75.5 0-9.6-1.8-18.9-1.8-28.4 0-18.6001-2.5-35.8001-4.5-54.2001-.5-4.4-.3-8.9-.9-13.3-.5-3.6-2.3-7.1-2.7-10.7-.6-5 .1-8.7-1.8-13.3-2.8-6.79996-9.8-10.49996-21.8-8.89996" stroke="#000" stroke-linecap="round" stroke-linejoin="round"/><path d="m361.8 29.5c4.8 4.4 10.1 8.5 14 13.8" stroke="#000" stroke-linecap="round" stroke-linejoin="round"/><path d="m373.4 32.0999c-3.7 3-6.7 6.7-10.4 9.6" stroke="#000" stroke-linecap="round" stroke-linejoin="round"/><path d="m10.7 42.4c5.1-.7 10.2.9 15.3.5 33.9-3.1 68.2999 1.6 102.4-.5 23.2-1.4 47.6-3.2 70.8-1.4 21.1 1.6 44 1.6 65.1-.5 9.8-1 19.9.3 29.7-.5 18.1-1.5 36.6.9 54.6.9" stroke="#000" stroke-linecap="round" stroke-linejoin="round"/><path d="m20.1999 33.1c-3 0-5.4-2.2-5.4-4.8 0-2.7 2.4-4.8 5.4-4.8s5.4 2.2 5.4 4.8-2.4 4.8-5.4 4.8z" fill="#fff"/><path d="m20.1999 23.3999c3 0 5.4 2.2 5.4 4.8 0 2.7-2.4 4.8-5.4 4.8s-5.4-2.2-5.4-4.8 2.4-4.8 5.4-4.8zm0 1c-2.5 0-4.4 1.7-4.4 3.8s2 3.8 4.4 3.8c2.5 0 4.4-1.7 4.4-3.8 0-2-1.9-3.8-4.4-3.8z" fill="#000"/><path d="m37.8999 32.7998c-2.8 0-5.1-1.9999-5.1-4.5999 0-2.5 2.3-4.6 5.1-4.6s5.1 2 5.1 4.6-2.3 4.5999-5.1 4.5999z" fill="#fff"/><path d="m37.8999 23.7c2.8 0 5.1 1.9999 5.1 4.5999 0 2.5-2.3 4.6-5.1 4.6s-5.1-2-5.1-4.6 2.3-4.5999 5.1-4.5999zm0 1c-2.3 0-4.1 1.5999-4.1 3.5999 0 1.9 1.8 3.6 4.1 3.6s4.1-1.6 4.1-3.6-1.8-3.5999-4.1-3.5999z" fill="#000"/><path d="m55.8 33.0001c-2.9 0-5.3-2.1-5.3-4.7s2.4-4.7 5.3-4.7 5.3 2.1 5.3 4.7-2.4 4.7-5.3 4.7z" fill="#fff"/><path d="m55.8 23.5c2.9 0 5.3 2.1 5.3 4.7s-2.4 4.7-5.3 4.7-5.3-2.1-5.3-4.7c.1-2.5 2.4-4.7 5.3-4.7zm0 1c-2.4 0-4.3 1.7-4.3 3.7s1.9 3.7 4.3 3.7 4.3-1.7 4.3-3.7-1.9-3.7-4.3-3.7z" fill="#000"/><path d="m237.2 358.9c-10.5-.9-21.1-2.5-31.7-1.5-5.4.5-10.5.2-15.9 1.3-3.5.7-16.3 5.7-19.1 2.7-1.6-1.7-2-4.5-2.7-6.6-.4-1.2-1.8-4.6-1.1-5.7 2-3 14.5-4.2 17.9-4.7 12.9-2 43.4-13.2 50.1 3.4 1.1 2.8 3.1 4.4 2.5 7.8" fill="#ffdac3"/><path d="m274.2 287c14.6 2.1 28.7 4.8 42.5 10.3 5.9 2.4 12.3 3.3 16.8 8.1 1 1 2.6 1.7 3.3 3 2.9 5.2 5 13.1 4.1 19.2-.4 2.3-1.6 4.5-2 6.8-.1.7-.7.8-1 1.4-.6.9-.1 1.5-.8 2.4-2.5 3.5-5.3 7.7-9.2 9.7-9.6 5.1-31.2 10-42.3 13-3.6 1-7 2.5-10.4 4.1-5.1 2.2-11.9 2.4-17.3 3.2-2.9.4-8.8 3.5-11.2 3-1.7-.4-3.6-4.8-4.6-6.2-1.4-2-3.9-3-5.3-4.9-1.7-2.1-3.3-4.2-4.6-6.5-2-3.5-6.2-5.7-8.1-9.2-.6-1.1-5-5.9-4.8-6.8.5-2.9 7-5.4 9.2-6.8 7.4-4.7 15.8-12 20.6-19.7 1-1.6 1.6-3.4 2.8-4.9 3.7-4.8 8.4-8.5 12.7-12.4 2.7-2.5 5.5-5.3 8.7-7" fill="#acc7de"/><path d="m274.2 287c14.6 2.1 28.7 4.8 42.5 10.3 5.9 2.4 12.3 3.3 16.8 8.1 1 1 2.6 1.7 3.3 3 2.9 5.2 5 13.1 4.1 19.2-.4 2.3-1.6 4.5-2 6.8-.1.7-.7.8-1 1.4-.6.9-.1 1.5-.8 2.4-2.5 3.5-5.3 7.7-9.2 9.7-9.6 5.1-31.2 10-42.3 13-3.6 1-7 2.5-10.4 4.1-5.1 2.2-11.9 2.4-17.3 3.2-2.9.4-8.8 3.5-11.2 3-1.7-.4-3.6-4.8-4.6-6.2-1.4-2-3.9-3-5.3-4.9-1.7-2.1-3.3-4.2-4.6-6.5-2-3.5-6.2-5.7-8.1-9.2-.6-1.1-5-5.9-4.8-6.8.5-2.9 7-5.4 9.2-6.8 7.4-4.7 15.8-12 20.6-19.7 1-1.6 1.6-3.4 2.8-4.9 3.7-4.8 8.4-8.5 12.7-12.4 2.7-2.5 5.5-5.3 8.7-7" stroke="#acc7de" stroke-linecap="round" stroke-linejoin="round"/><path d="m152.2 272.6c-.8-.9-1.9-1.8-2.7-2.7-1.9-2-3.8-5-5.9-7.3-1.7-1.8-4.2-2.8-5.9-4.6-2-2.1-3.3-5.2-5.2-7.3-.5-.5-3.8-7.4-4.4-6.9-1.4 1.1-1.1 11.9-1.7 13.9-2.9 9.3-5 19.3-6.4 29-1.5 10.4-26.5 3.4-23.5 14.7.6 2.2 16.8 23.2 18.3 24.8.7.8 5.4.9 6.1 1.8 2.4 3.2 6.1 4.6 9.3 6.3 3.1 1.6 5.5 5.3 8.9 6.5 7.8 2.8 16.2 3.5 24.4 4.6 3 .4 6.3-.8 9.3-.5 3.2.3 18.9-.2 21-1.9 2.8-2.4-3.2-11.8-4.3-13.8-1.8-3.3-4.2-6.2-5.9-9.4-1.5-2.9-2.8-6.3-4.8-8.9-2.5-3.3-5.3-6.8-7.5-10.4-2.4-4-10.9-17.2-14.8-18.6" fill="#acc7de"/><path d="m152.2 272.6c-.8-.9-1.9-1.8-2.7-2.7-1.9-2-3.8-5-5.9-7.3-1.7-1.8-4.2-2.8-5.9-4.6-2-2.1-3.3-5.2-5.2-7.3-.5-.5-3.8-7.4-4.4-6.9-1.4 1.1-1.1 11.9-1.7 13.9-2.9 9.3-5 19.3-6.4 29-1.5 10.4-26.5 3.4-23.5 14.7.6 2.2 16.8 23.2 18.3 24.8.7.8 5.4.9 6.1 1.8 2.4 3.2 6.1 4.6 9.3 6.3 3.1 1.6 5.5 5.3 8.9 6.5 7.8 2.8 16.2 3.5 24.4 4.6 3 .4 6.3-.8 9.3-.5 3.2.3 18.9-.2 21-1.9 2.8-2.4-3.2-11.8-4.3-13.8-1.8-3.3-4.2-6.2-5.9-9.4-1.5-2.9-2.8-6.3-4.8-8.9-2.5-3.3-5.3-6.8-7.5-10.4-2.4-4-10.9-17.2-14.8-18.6" stroke="#acc7de" stroke-linecap="round" stroke-linejoin="round"/><path d="m212.3 103.5c-1.2 8.2-.5 16.5 1 24.4.7 3.6 4.6 6.2 6.6 8.8 2.9 3.8.9 10.7-.2 14.7s-2 8.1-3.1 12.2c-2.2 7.8-5.5 15-6.2 23.2-.3 4.1-1.4 21.7-3.3 24.3s-4.7 7.6-8.2 8c-1 .1-2.2 0-3.1.2-1.3.3-2.7 1.2-4 1.7-4.4 1.4-9-.8-13.5-.8-3.4 0-10.3.5-12.7-2.5-1.8-2.2-2.1-4.4-3.3-6.9-.5-1-1.4-1.9-1.8-3-4.6-12.2 6.2-24.1 7.6-36.4.2-1.6-.7-3.2-.9-4.8-.7-7.1-2.5-22.9 1-29.3 2.9-5.3 18-8.3 22.5-12.3 3.4-3 6.5-6.2 9.4-9.8 3.8-4.5 3.8-13.5 11.2-12.4" fill="#ffdac3"/><path d="m175.2 135.8c10-2.7 20-8.5 27.5-16.5 1.6-1.7 3-10.4 3.3-8.1.7 5.9-2.4 11.6-3.3 13-6.4 9.4-12.2 14.5-23.2 15.7-2.1.2-9 .7-9-3.3 0-1.6 4.8-.9 5.6-.7" fill="#000" fill-opacity=".05"/><path d="m159.7 72.2001c-5.2 5.4-5.2 14.4999-3.8 21.6999.5 2.7 2.6 5.1 2.9 8 .5 4-1.1 8.7.3 12.5.8 2.1 2.6 3.3 3.6 5.4.5 1 .5 2.2 1 3.1.3.5 1 .7 1.2 1.2.3.8 0 2.1.4 2.7.5.7 1.4.6 1.7 1.7.9 3 .9 6.3 3.7 8.1 3.3 2.1 10.3-.1 13.4-1.8 4.2-2.3 9.5-3.8 13-7.5 11-11.7 10.9-28.7999 7.3-44.0999-2.1-8.8-14.1-17.9001-22.4-18.6001-3.2-.3-6.2 1.7-9.3 2.3-3.7.7-10.4 1.8-12.6 5.6" fill="#ffdac3"/><path d="m188.9 146.8c2.1 1.4 3.9 4.5 4.3 7.1" stroke="#000" stroke-linecap="round" stroke-linejoin="round" stroke-opacity=".1"/><path d="m197.3 147.2c-.3 2.2-.2 4.5-.2 6.8" stroke="#000" stroke-linecap="round" stroke-linejoin="round" stroke-opacity=".1"/><path d="m186.9 151.9c-6.2-3-14-.9-20.7-.9" stroke="#000" stroke-linecap="round" stroke-linejoin="round" stroke-opacity=".1"/><path d="m208 93.3998c4.3-8.1 8.7-2 6.3 4.7" stroke="#000" stroke-linecap="round" stroke-linejoin="round"/><path d="m216.7 133.3c1.6 2.2 2.9 4.5 1 7-1.6 2.2-3.9 4.7-6 6.3-1.7 1.3-4.2 2-5.5 3.8-.8 1-1.9 6.1-2.9 7.9-9.4 17.4-9.3 50.4-7.6 70.2.9 10.3 7.6 26.7 16.6 31.5 8.2 4.3 17.3 2.5 26 3.6 12.8 1.6 25.4 3.8 38.2 4.8 5.7.4 16.9 7.4 21.1 1 .8-1.1.5-3.1.5-4.5 0-3-.7-5.5-1.8-8.2-.7-1.8-1-3.6-1.9-5.3-2.6-4.9-8-7.4-10.2-12.8-.9-2.2 0-6.2-.6-8.9-1.3-5.5-4.3-10.3-5.5-15.9-1.5-7.3-1.2-14.8-2.6-22.1-.6-2.9-1.8-5.9-2.6-8.7-1-3.8-1.5-8.2-3.2-11.8-.6-1.2-1.5-2.1-2.1-3.3-.7-1.4-.8-2.9-1.5-4.3-1.2-2.6-3.4-4.3-5.2-6.5-7.4-9.5-8.3-10.6-19.2-15.6-6.7-3-7.1-3.8-14.5-5.1-2.8-.5-5.7-2.2-8.5-2.2" fill="#d4805c"/><path d="m216.7 133.3c1.6 2.2 2.9 4.5 1 7-1.6 2.2-3.9 4.7-6 6.3-1.7 1.3-4.2 2-5.5 3.8-.8 1-1.9 6.1-2.9 7.9-9.4 17.4-9.3 50.4-7.6 70.2.9 10.3 7.6 26.7 16.6 31.5 8.2 4.3 17.3 2.5 26 3.6 12.8 1.6 25.4 3.8 38.2 4.8 5.7.4 16.9 7.4 21.1 1 .8-1.1.5-3.1.5-4.5 0-3-.7-5.5-1.8-8.2-.7-1.8-1-3.6-1.9-5.3-2.6-4.9-8-7.4-10.2-12.8-.9-2.2 0-6.2-.6-8.9-1.3-5.5-4.3-10.3-5.5-15.9-1.5-7.3-1.2-14.8-2.6-22.1-.6-2.9-1.8-5.9-2.6-8.7-1-3.8-1.5-8.2-3.2-11.8-.6-1.2-1.5-2.1-2.1-3.3-.7-1.4-.8-2.9-1.5-4.3-1.2-2.6-3.4-4.3-5.2-6.5-7.4-9.5-8.3-10.6-19.2-15.6-6.7-3-7.1-3.8-14.5-5.1-2.8-.5-5.7-2.2-8.5-2.2" stroke="#d4805c" stroke-linecap="round" stroke-linejoin="round"/><path d="m280.4 258.6c-4.4-7.2-11.8-10.8-20-9.5-1.5.2-3 .9-4.5.9" stroke="#000" stroke-linecap="round" stroke-linejoin="round" stroke-opacity=".1"/><path d="m254.3 243.7c1.7 1.7 3.4 3.5 3.9 5.9" stroke="#000" stroke-linecap="round" stroke-linejoin="round" stroke-opacity=".1"/><path d="m258.2 243.9c1 1.7 1.9 3.7 2.1 5.7" stroke="#000" stroke-linecap="round" stroke-linejoin="round" stroke-opacity=".1"/><path d="m261.4 241.5c1.8 1.9 2.5 4.2 3.1 6.7" stroke="#000" stroke-linecap="round" stroke-linejoin="round" stroke-opacity=".1"/><path d="m267.9 240.1c1.5 2.7 1.3 5.4.4 8.3" stroke="#000" stroke-linecap="round" stroke-linejoin="round" stroke-opacity=".1"/><path d="m275.5 242.9c-.6 2.3-2.1 4.5-3.2 6.3" stroke="#000" stroke-linecap="round" stroke-linejoin="round" stroke-opacity=".1"/><path d="m281.2 251.7c-1.2.6-1.8 1.8-2.7 2.8" stroke="#000" stroke-linecap="round" stroke-linejoin="round" stroke-opacity=".1"/><path d="m280.3 259.8c-5-4-20.7-12.1-26.4-13-2.8-.4-5.7 1.2-8.6.8-4.3-.7-8.2-1.1-12.5-.3-3.3.6-6.7-1.5-9.9.2-4.1 2.2-7.7 10.1-10.3 14.1-2.4 3.6-6.4 5.2-8.9 8.5-4.5 6-8.4 13.1-12.5 19.5-3.2 4.9-15.3 21.4-13.1 28.5 1.5 4.9 9.2 12.4 13.4 15 2.7 1.6 6.4 2 9.3 2.5 5.5.8 11.2 2.2 16.9 1.5 9.4-1.1 20.8-7.2 27.1-14.7 2.6-3.2 4.5-6.8 6.8-10.2 2.7-3.9 6.1-7 8-11.6 2.7-6.6-3.2-9.5 1.5-18.7 3.7-7.2 15.8-13.7 19.4-21.2" fill="#ffd298"/><path d="m280.3 259.8c-5-4-20.7-12.1-26.4-13-2.8-.4-5.7 1.2-8.6.8-4.3-.7-8.2-1.1-12.5-.3-3.3.6-6.7-1.5-9.9.2-4.1 2.2-7.7 10.1-10.3 14.1-2.4 3.6-6.4 5.2-8.9 8.5-4.5 6-8.4 13.1-12.5 19.5-3.2 4.9-15.3 21.4-13.1 28.5 1.5 4.9 9.2 12.4 13.4 15 2.7 1.6 6.4 2 9.3 2.5 5.5.8 11.2 2.2 16.9 1.5 9.4-1.1 20.8-7.2 27.1-14.7 2.6-3.2 4.5-6.8 6.8-10.2 2.7-3.9 6.1-7 8-11.6 2.7-6.6-3.2-9.5 1.5-18.7 3.7-7.2 15.8-13.7 19.4-21.2" stroke="#ffd298" stroke-linecap="round" stroke-linejoin="round"/><path d="m221.4 135.2c.6 2.7-.5 5.2-1.4 7.6-1.6 4.2-6.3 6.6-7.9 9.9-4.9 10.4-12 36.3-12.7 47.5-1 15.7-1 33 3.1 48.2" stroke="#fff" stroke-dasharray="1.5 1.5" stroke-linecap="round" stroke-linejoin="round" stroke-width=".5"/><path d="m209 149.7c-.2.4-.6.9-.7 1.4-.3 1.4 1.6 1.9 2.3.8.5-.9 0-3-1-1.9" fill="#fff"/><path d="m209 149.7c-.2.4-.6.9-.7 1.4-.3 1.4 1.6 1.9 2.3.8.5-.9 0-3-1-1.9" stroke="#fff" stroke-linecap="round" stroke-linejoin="round"/><path d="m204.9 163.9c-.5.5-.9 1.2-.9 1.9 0 2.4 4.1 1.1 3.2-1.1-.3-.7-1.6-1.2-2-.5" fill="#fff"/><path d="m204.9 163.9c-.5.5-.9 1.2-.9 1.9 0 2.4 4.1 1.1 3.2-1.1-.3-.7-1.6-1.2-2-.5" stroke="#fff" stroke-linecap="round" stroke-linejoin="round"/><path d="m199 186.3c-.1.2-.6.8-.7 1.1-.1.5.1 1.3.4 1.6 2 2.1 3.7-2.6 1.3-2.6" fill="#fff"/><path d="m199 186.3c-.1.2-.6.8-.7 1.1-.1.5.1 1.3.4 1.6 2 2.1 3.7-2.6 1.3-2.6" stroke="#fff" stroke-linecap="round" stroke-linejoin="round"/><path d="m169.2 137c-3.9 7.6-3.1 16.5 0 24.2.9 2.3 3.7 6.2 3.2 8.8-1.3 6.7-6.7 11.8-9.5 17.6-4.8 10.2-10 25-20 30.7-4.9 2.8-10.7 1.3-16 1.3-4.4 0-9.6.7-13.3-2.5-4.2-3.7-1.1-10.7-.7-15.3 1.4-13.1 6.9-26.5 12-38.5 2.7-6.4 5.2-14.6 11.2-18.4 5.6-3.6 11.9-2.9 18.2-4 4.8-1 10.2-2.3 14.9-3.9z" fill="#d4805c"/><path d="m169.2 137c-3.9 7.6-3.1 16.5 0 24.2.9 2.3 3.7 6.2 3.2 8.8-1.3 6.7-6.7 11.8-9.5 17.6-4.8 10.2-10 25-20 30.7-4.9 2.8-10.7 1.3-16 1.3-4.4 0-9.6.7-13.3-2.5-4.2-3.7-1.1-10.7-.7-15.3 1.4-13.1 6.9-26.5 12-38.5 2.7-6.4 5.2-14.6 11.2-18.4 5.6-3.6 11.9-2.9 18.2-4 4.8-1 10.2-2.3 14.9-3.9z" stroke="#d4805c" stroke-linecap="round" stroke-linejoin="round"/><path d="m243.2 155.6c-.5 6.8-.4 13.7-.8 20.5-.6 11.3-2.4 23-1.5 34.4 1 11.6 4 24.8 4 36.1" stroke="#000" stroke-linecap="round" stroke-linejoin="round" stroke-opacity=".1"/><path d="m250.1 182.6c-.7 2.9-1.2 5.8-1.6 8.7-1 6.4-2.2 13.1-1.6 19.7.5 5 1.9 11.3 1.1 16.3-.3 1.7-.9 3.4-1.1 5.1-.2 1.8.4 3.9.2 5.6-.4 2.9-1 5.1-1 8" stroke="#000" stroke-linecap="round" stroke-linejoin="round" stroke-opacity=".1"/><path d="m282.5 235.5c-3-1.1-5.9-2.4-9-2.9-5.6-.9-20.3.5-24.2 5.3-1.6 1.9-2.5 4.6-3.5 6.8" stroke="#000" stroke-linecap="round" stroke-linejoin="round" stroke-opacity=".1"/><path d="m273.6 203c-2.7 8.7-5.5 17.7-12.3 23.8-6.1 5.4-8.8 4.4-13.9 12.5" stroke="#000" stroke-linecap="round" stroke-linejoin="round" stroke-opacity=".1"/><path d="m269.8 186.2c-1.9 9.4-6.8 17.8-12.6 25.2-3.2 4.1-7.3 8.2-9.4 13.2-.7 1.8-.7 3.8-1.3 5.6" stroke="#000" stroke-linecap="round" stroke-linejoin="round" stroke-opacity=".1"/><path d="m255.9 171.8c-2 7.8-4.3 15.5-7.1 22.9" stroke="#000" stroke-linecap="round" stroke-linejoin="round" stroke-opacity=".1"/><path d="m223.2 138.6c7.5 17.3 10.1 36.6 12.6 55.3.3 2.6 1.6 5.6 1.6 8.2" stroke="#000" stroke-linecap="round" stroke-linejoin="round" stroke-opacity=".1"/><path d="m222.2 143.2c3.7 31.3 8.1 62.5 12.3 93.6" stroke="#000" stroke-linecap="round" stroke-linejoin="round" stroke-opacity=".1"/><path d="m220.9 149.1c-2.2 31.9 2.3 63.8 2.3 95.7" stroke="#000" stroke-linecap="round" stroke-linejoin="round" stroke-opacity=".1"/><path d="m134.6 158.9c3 8.5 5.6 17.3 6.5 26.3" stroke="#000" stroke-linecap="round" stroke-linejoin="round" stroke-opacity=".1"/><path d="m141.6 153.4c3.1 10.6 2.4 22.1 2.4 33.1" stroke="#000" stroke-linecap="round" stroke-linejoin="round" stroke-opacity=".1"/><path d="m158.2 147c-5.4 14.9-1.1 31.7-5.9 46.7" stroke="#000" stroke-linecap="round" stroke-linejoin="round" stroke-opacity=".1"/><path d="m163.7 158.2c-1.3 11.9-.9 24.4-3.6 36" stroke="#000" stroke-linecap="round" stroke-linejoin="round" stroke-opacity=".1"/><path d="m166.9 138.4c-3.7 10.9-4.1 25.6 4.1 34.4" stroke="#fff" stroke-dasharray="1.5 1.5" stroke-linecap="round" stroke-linejoin="round" stroke-width=".5"/><path d="m177.1 50.8999c-4.2 4.5-8.9 9-12 14.6-.8 1.4-.7 3.7-1.7 5-1.1 1.4-3.5 2.3-5 3.4-1.7 1.2-2.1 3.4-2.9 5.3-.2.6.2 2.1-.3 1.8-1.3-.7-.8-7-.6-8.3 1.4-10.5 5.6-11.9 13.4-17.1 1.9-1.3 3.6-3.2 5.4-4.6.6-.5.8-1.6 1.4-2.1.5-.5 5.8-2.8 6-2.1s-3.7 4.1-4.2 4.8" fill="#ffe1af"/><path d="m177.1 50.8999c-4.2 4.5-8.9 9-12 14.6-.8 1.4-.7 3.7-1.7 5-1.1 1.4-3.5 2.3-5 3.4-1.7 1.2-2.1 3.4-2.9 5.3-.2.6.2 2.1-.3 1.8-1.3-.7-.8-7-.6-8.3 1.4-10.5 5.6-11.9 13.4-17.1 1.9-1.3 3.6-3.2 5.4-4.6.6-.5.8-1.6 1.4-2.1.5-.5 5.8-2.8 6-2.1s-3.7 4.1-4.2 4.8" stroke="#ffe1af" stroke-linecap="round" stroke-linejoin="round"/><path d="m168.2 60.7999c-.8 2.4-4.5 8.2001-3.3 10.9001.1.2 6.2 2.7 7.1 3.5 3.3 2.9 7.4 4.9999 10.8 8.0999 4.5 4.1 10.3 9.5001 16.4 10.8001 2.9.6 5.4-1.3 8.1-.9 4.4.7 5.4 7.7 5.4 11.4 0 .8-1.5 7.1-.5 6.6 1.6-.7 4-3.5 5.1-4.9 1.6-2 3.6-3.5 4.9-5.8 2.1-3.8 1.3-12.5.5-16.4-.8-4.3-.2-8.7-.8-13-.5-3.9-3.2-14.0001-5.7-16.6001-3.1-3.3-19.7-13.3999-24-12.8999-5.7.7-12.8 6.1999-16.6 10.2999-2.3 2.4-8.5 8.1-8.9 11.5" fill="#ffe1af"/><path d="m168.2 60.7999c-.8 2.4-4.5 8.2001-3.3 10.9001.1.2 6.2 2.7 7.1 3.5 3.3 2.9 7.4 4.9999 10.8 8.0999 4.5 4.1 10.3 9.5001 16.4 10.8001 2.9.6 5.4-1.3 8.1-.9 4.4.7 5.4 7.7 5.4 11.4 0 .8-1.5 7.1-.5 6.6 1.6-.7 4-3.5 5.1-4.9 1.6-2 3.6-3.5 4.9-5.8 2.1-3.8 1.3-12.5.5-16.4-.8-4.3-.2-8.7-.8-13-.5-3.9-3.2-14.0001-5.7-16.6001-3.1-3.3-19.7-13.3999-24-12.8999-5.7.7-12.8 6.1999-16.6 10.2999-2.3 2.4-8.5 8.1-8.9 11.5" stroke="#ffe1af" stroke-linecap="round" stroke-linejoin="round"/><path d="m222.7 100.4c5.5 3.9 6.4 16.5 2.3 21.8-1.6 2-4.3 3.2-6.1 5.1-.7.8-4.5 4.3-5.7 3.5-1.4-.9-1.4-5.5-1.4-6.9-.8-13.8-1.3-16.7 10.6-24.3001" fill="#ffe1af"/><path d="m222.7 100.4c5.5 3.9 6.4 16.5 2.3 21.8-1.6 2-4.3 3.2-6.1 5.1-.7.8-4.5 4.3-5.7 3.5-1.4-.9-1.4-5.5-1.4-6.9-.8-13.8-1.3-16.7 10.6-24.3001" stroke="#ffe1af" stroke-linecap="round" stroke-linejoin="round"/><path d="m206.2 92.5999c.5-2.2 2-3.9 4-4.6 11.8-4.2 5.2 17.6001-3.9 19.2001-3 .5-2.5-4.5-2.2-6.6.2-1.2001.6-2.5001 1-3.6001.6-1.5.9-3.4 1.2-5" fill="#ffdac3"/><path d="m208.5 95.7c-1.1 1.1-.2 2.2999-.3 3.5999 0 .2-.8 2.2001-.4 2.3001.7.2.8-1.5 1.1-1.8001.2-.2 5.5 0 2.2-2.9-.6-.5-1.5-.5999-2.1-1.1999" fill="#000" fill-opacity=".1"/><g stroke-linecap="round" stroke-linejoin="round"><path d="m223.2 102.6c3.3 5.7 2.8 12.4 1.8 18.6" stroke="#ecc88b"/><path d="m213.5 111.1c-.2 3.5-.4 6.9-.9 10.4" stroke="#ecc88b"/><path d="m215.5 109.6c.2 6.5.3 12.8-2.4 18.7" stroke="#ecc88b"/><path d="m217.7 107.1c1.4 8.2 1 16-2.5 23.4" stroke="#ecc88b"/><path d="m219.1 105.3c2.1 7.1 1.7 14.7-.5 21.8" stroke="#ecc88b"/><path d="m221.3 104.1c3 6.7 2.2 14.6 0 21.5" stroke="#ecc88b"/><path d="m163.1 68.7998c-3.6 2.2-7.8 5.3-8.8 9.9" stroke="#ecc88b"/><path d="m164.2 66.7998c-4 .9-8.8 3.6-10.3 7.9" stroke="#ecc88b"/><path d="m164.6 64.6c-3.9-.2-8 2.9-9.4 6.7" stroke="#ecc88b"/><path d="m166.1 62.4998c-4.3-1-7.3 2.4001-10.4 4.7001" stroke="#ecc88b"/><path d="m166.7 60.2c-2.9-.1-6.1.4-8 3" stroke="#ecc88b"/><path d="m168.9 57.8999c-1.9-.4-3.6-.4-5.2.8" stroke="#ecc88b"/><path d="m170.7 55.8999c-1.1 0-2.7.1-3.5.8" stroke="#ecc88b"/><path d="m172.8 53.9c-1.1-.3-2 .0999-2.9.3999" stroke="#ecc88b"/><path d="m174.7 51.7998c-1.1-.1-2 .1-2.8.8" stroke="#ecc88b"/><path d="m176.4 49.8998c-.8-.2-1.4.0001-2.1.3001" stroke="#ecc88b"/><path d="m177.7 48.6c-.7-.2-1.3-.1-1.9.1" stroke="#ecc88b"/><path d="m165.9 68.5c2.1 3.4 6.6 5 9.9 7.2 5.3 3.6 9.4 9.1 15.5 11.4 10.6 4 27.4-.2 25.2 18.1" stroke="#ecc88b"/><path d="m166.9 67.0999c2 2.8 5.4 3.5999 8.1 5.3999 6.3 4.1 12 8.6001 18.9 11.7001 9.5 4.3 27 3.9999 25.1 20.2001" stroke="#ecc88b"/><path d="m166.4 70.2c5.5 4.1 11.8 7.5999 17 12.2999 3.1 2.8 5.9 5.9001 9.7 7.7001 8 3.9 14.2.1999 19.5 10.3 1.3 2.4 2.5 4.7 2.5 7.5" stroke="#ecc88b"/><path d="m167.8 65c2 2.2 5 3.2 7.3 4.9 3.6 2.6 6.7 5.4 10.6 7.5 3.1 1.6 7 2.5 10.3 3.6 3.5 1.1 6.8 3.1 10.1 4.8 9 4.5 10.5 5.4 13.8 15.8" stroke="#ecc88b"/><path d="m168.1 62.5c2.4 1.1 4.8 2.2 7 3.6 2.3 1.5 4.3 3.6 6.6 4.9 5.1 2.8 10.3 5.2 15.5 7.9 2.6 1.4 5.5 1.7 8.2 2.8 8.3 3.6 13.6 11.2 15.3 20.3" stroke="#ecc88b"/><path d="m169.4 60.5999c7.4 3.2 14.2 7.6 21.5 11 4.4 2.1 9.8 3.2 13.8 6 3.8 2.7 6.5 5.9 9.8 9 3.6 3.3 8.2 7.9999 7 13.7001" stroke="#ecc88b"/><path d="m171 59.5999c1.5 1.1 3.2 1.4 4.9 2 2.9 1 5.5 3.2 8.4 4.1 6.6 2.1 13.3 2.9999 19.6 6.1999 8.6 4.3 20 15.5001 18.6 26.8001" stroke="#ecc88b"/><path d="m171.6 57.5c9.2 4.7 19.7 6.4 28.9 11.3 3.3 1.7 7.2 2 10.3 4.4 2.9 2.2 5 5.2 7.2 8.1 2.1 2.8 4.2 5.6 5.3 9.1" stroke="#ecc88b"/><path d="m173.5 56.3999c10.8 4.9 23.4 5.4 33.7 11.9 4.8 3.1 9.8 8 13.2 12.8.9 1.3 1.3 2.9 2.2 4.1" stroke="#ecc88b"/><path d="m175 54.7c5.3.2 10.3 2.1 15.4 3.5 15.7 4.4 22.5 7.1 31.6 21.5" stroke="#ecc88b"/><path d="m177.4 52.5c8.1.3 25 4.9 31.6 9.4 2.1 1.5 3.9 3.8 5.8 5.6 2.7 2.7 5.3 5 6.6 8.8" stroke="#ecc88b"/><path d="m178.6 50.1998c2.7-.5 5.2.6 7.7 1.1 14.8 3 29.9 8.2 35.7 24.5" stroke="#ecc88b"/><path d="m181.2 48.5999c12-1.4 22.2 4.4 31.4 11.7 1.8 1.4 4.3 2.8 5.6 4.8 1.7 2.7 2.7 5.7 3.9 8.6" stroke="#ecc88b"/><path d="m182.8 46.7999c10-2.3 18.1.4 26.4 6.4 7.6 5.4 10.4 11.8 12.5 20.8" stroke="#ecc88b"/></g><path d="m147 231.8c2.6-3.7 7.2-5.6 11.1-7.7 2.4-1.3 4.8-2.9 7.1-4.3 5.5-3.3 12.4-.5 18.2-1.4 1.5-.2 2.9-1.2 4.4-1.6 1.9-.6 4.2.2 6.1-.3 9.6-2.5.8-7.5 4.3-11.2 5.4-5.7 16.9-3.8 21.2 2.6.5.8 0 2.8.2 3.7 1 4.7 3.3 8.7 3.8 13.5 1.1 9-7.6 13.2-13.9 16.1-.7.3-3.9 1.7-3.9 2.6 0 1.1 10 13.3 10.8 17.9.4 2.5-15.6 15.3-17.9 18.2-2.6 3.2-4 6.8-6.3 10.1-2.9 4.3-7.7 7.2-9.3 12.5-.7 2.1-1.9 4.4-2.2 6.5-.3 1.9.2 4.1-.8 5.8-.6 1.1-4.5 6.2-5.9 5.5-3.9-2.1-10.2-22.6-12.4-27.7-3.1-7.1-7.9-13.8-11.8-20.5-4.3-7.2-8.4-11.6-11-20.3-.9-3-1.2-4.9-.8-8.2.3-3 6.4-10.6 8.7-12.2" fill="#ffb9a3"/><path d="m147 231.8c2.6-3.7 7.2-5.6 11.1-7.7 2.4-1.3 4.8-2.9 7.1-4.3 5.5-3.3 12.4-.5 18.2-1.4 1.5-.2 2.9-1.2 4.4-1.6 1.9-.6 4.2.2 6.1-.3 9.6-2.5.8-7.5 4.3-11.2 5.4-5.7 16.9-3.8 21.2 2.6.5.8 0 2.8.2 3.7 1 4.7 3.3 8.7 3.8 13.5 1.1 9-7.6 13.2-13.9 16.1-.7.3-3.9 1.7-3.9 2.6 0 1.1 10 13.3 10.8 17.9.4 2.5-15.6 15.3-17.9 18.2-2.6 3.2-4 6.8-6.3 10.1-2.9 4.3-7.7 7.2-9.3 12.5-.7 2.1-1.9 4.4-2.2 6.5-.3 1.9.2 4.1-.8 5.8-.6 1.1-4.5 6.2-5.9 5.5-3.9-2.1-10.2-22.6-12.4-27.7-3.1-7.1-7.9-13.8-11.8-20.5-4.3-7.2-8.4-11.6-11-20.3-.9-3-1.2-4.9-.8-8.2.3-3 6.4-10.6 8.7-12.2" stroke="#ffb9a3" stroke-linecap="round" stroke-linejoin="round"/><path d="m199.2 213.4c5.1-6.1 15.4-4.3 20.3.9" stroke="#000" stroke-linecap="round" stroke-linejoin="round" stroke-opacity=".1"/><path d="m199.3 214.6c5.6-2.1 12.2-.7 15.4 5" stroke="#000" stroke-linecap="round" stroke-linejoin="round" stroke-opacity=".1"/><path d="m199 214.3c5.3 2.3 8.4 6.3 10.5 11.6" stroke="#000" stroke-linecap="round" stroke-linejoin="round" stroke-opacity=".1"/><path d="m199.1 214.9c1.7 4.2 3.4 8.4 5.8 12.2" stroke="#000" stroke-linecap="round" stroke-linejoin="round" stroke-opacity=".1"/><path d="m205.3 243.1c-11.7-1-23.9 2.1-35.5-.3-4.8-1-12.7-4.5-16.9-7.1-1.6-.9-2.8-2.6-4.4-3.5" stroke="#000" stroke-linecap="round" stroke-linejoin="round" stroke-opacity=".1"/><path d="m192.6 243.9c6.1 3.3 7.2 11 10.6 16.5 1.8 2.8 4.2 5.3 5.6 8.3" stroke="#000" stroke-linecap="round" stroke-linejoin="round" stroke-opacity=".1"/><path d="m163.9 200.7c4.9-.4 15 11.1 9.1 15.3-4.9 3.5-12.7-9.6-9.9-14.8" fill="#bc806b"/><path d="m163.9 200.7c4.9-.4 15 11.1 9.1 15.3-4.9 3.5-12.7-9.6-9.9-14.8" stroke="#bc806b" stroke-linecap="round" stroke-linejoin="round"/><path d="m166.7 252.1c-2.3-2.5-6-13.4-7.8-14.9-5.1-4.3-11.7-6.6-18.1-7.3-1.9-.2-4.2 1.2-6.1.7-1.2-.3-1.5-1.1-2.8-1-4.8.5-9.3 2.7-13.7 4.7-1.6.7-4.6-.1-5.8 1.3-.1.1 3.6 15.3 4.9 16.3 1.1.9 3.2-2.3 4.3-2.9 3.5-1.8 8.9-2.2 12.7-1.4 2.8.5 6.8 3.3 10 4.1 5.6 1.5 10.6.6 16.2.1 2.1-.2 6.7 2.5 5.5-1.1" fill="#d4805c"/><path d="m166.7 252.1c-2.3-2.5-6-13.4-7.8-14.9-5.1-4.3-11.7-6.6-18.1-7.3-1.9-.2-4.2 1.2-6.1.7-1.2-.3-1.5-1.1-2.8-1-4.8.5-9.3 2.7-13.7 4.7-1.6.7-4.6-.1-5.8 1.3-.1.1 3.6 15.3 4.9 16.3 1.1.9 3.2-2.3 4.3-2.9 3.5-1.8 8.9-2.2 12.7-1.4 2.8.5 6.8 3.3 10 4.1 5.6 1.5 10.6.6 16.2.1 2.1-.2 6.7 2.5 5.5-1.1" stroke="#d4805c" stroke-linecap="round" stroke-linejoin="round"/><path d="m119.4 251.8c6.6 7.1 14.5 13.7 23.2 17.7 2.8 1.3 5.9 1.6 8.7 2.6 4.7 1.7 9.8.8 13.9 4 4 3 7.6 8.3 9.7 3.7 2.7-5.7 7.7-10.5 11.1-15.7.2-.3 2.4-3.7 2.1-4-.4-.4-5.8-1.8-6.8-2.3-2.1-1-4.2-2.7-6.6-3-1.7-.3-3.5-.2-5.2-.7-1.8-.5-3.4-1.9-5.2-2.3-4.5-1-9-1.3-13.6-2.4-7.4-1.9-12.2-4.2-19.9-5-3.1-.3-12.5.2-11.9 5.3" fill="#ffdac3"/><path d="m196.9 206.8c-2.8-2.6-6.3-3.7-9.3-6.1-7.8-6.2 2-4.3 2.6-4.8.9-.7-3.6-1.7-3.2-2.9.7-2.3 5.2-3.3 7.1-4 .9-.3 2.2.1 3.1.2 5.6 1.2 6.8 5 9.5 9.7.4.7 1.9 2 1.8 2.9-.2 1.4-9 4.8-10.7 5.3" fill="#ffd1b6"/><path d="m196.9 206.8c-2.8-2.6-6.3-3.7-9.3-6.1-7.8-6.2 2-4.3 2.6-4.8.9-.7-3.6-1.7-3.2-2.9.7-2.3 5.2-3.3 7.1-4 .9-.3 2.2.1 3.1.2 5.6 1.2 6.8 5 9.5 9.7.4.7 1.9 2 1.8 2.9-.2 1.4-9 4.8-10.7 5.3" stroke="#ffd1b6" stroke-linecap="round" stroke-linejoin="round"/><path d="m152 185c4.1 1.9 9.5 7.6 11 12.2.5 1.7.4 3.9 1 5.5.5 1.3 3.8 2.1 4.9 3.1 3.5 3.1 6.3 10 4.1 14.7-.9 1.8-2.2 2.5-3.5 3.7s-3.8 2.7-5.3 3.2c-2.3.7-4.3.5-6.6.5-2.7 0-5.4.1-8-1.2-10.5-5.2-14.7-36.1-3.3-41.3 2.5-1.1 3.9-.2 6.3-.2" fill="#ffd1b6"/><path d="m152 185c4.1 1.9 9.5 7.6 11 12.2.5 1.7.4 3.9 1 5.5.5 1.3 3.8 2.1 4.9 3.1 3.5 3.1 6.3 10 4.1 14.7-.9 1.8-2.2 2.5-3.5 3.7s-3.8 2.7-5.3 3.2c-2.3.7-4.3.5-6.6.5-2.7 0-5.4.1-8-1.2-10.5-5.2-14.7-36.1-3.3-41.3 2.5-1.1 3.9-.2 6.3-.2" stroke="#ffd1b6" stroke-linecap="round" stroke-linejoin="round"/><path d="m152.3 184.6c-5.2-3.8-10.5-3.7-16.6-2.9-1.4.2-2.6-.6-4.1-.1-10.1 3.6-27.5 19.1-28.9 31.2-.5 4.5 1.1 7.6 2.4 11.6.9 3 3.5 7 5.8 8.9 4.7 4 12.5 1.6 18 1.1 2.9-.2 5.9.1 8.8-.2 2.1-.2 4.1-1.4 6.2-1.7 1.8-.2 3.1 1.5 4.9 1s3.5-2 5-3.2c.9-.8 5-3.2 5-4.7 0-.7-1.4-2-1.6-3.1-.3-2.1.5-4.7.7-6.8.5-5.2-3-13.9-5.9-18.1-1.5-2.2-2.8-5.6-4.9-7.3-.3-.2-2.6-2.5-2.6-2.7.3-.7 3.1-.3 3.6-.4 1.7-.3 2.9-1.6 4.5-2.1" fill="#d2a76d"/><path d="m152.3 184.6c-5.2-3.8-10.5-3.7-16.6-2.9-1.4.2-2.6-.6-4.1-.1-10.1 3.6-27.5 19.1-28.9 31.2-.5 4.5 1.1 7.6 2.4 11.6.9 3 3.5 7 5.8 8.9 4.7 4 12.5 1.6 18 1.1 2.9-.2 5.9.1 8.8-.2 2.1-.2 4.1-1.4 6.2-1.7 1.8-.2 3.1 1.5 4.9 1s3.5-2 5-3.2c.9-.8 5-3.2 5-4.7 0-.7-1.4-2-1.6-3.1-.3-2.1.5-4.7.7-6.8.5-5.2-3-13.9-5.9-18.1-1.5-2.2-2.8-5.6-4.9-7.3-.3-.2-2.6-2.5-2.6-2.7.3-.7 3.1-.3 3.6-.4 1.7-.3 2.9-1.6 4.5-2.1" stroke="#d2a76d" stroke-linecap="round" stroke-linejoin="round"/><path d="m158 221c-.6 2.1-2.6 3.5-4.6 3.7-9 1.1-10.4-14.3-1.1-8.9.9.5 1.7 1.5 2.5 2.2 1.1.9 2.3 1.8 3.2 3z" fill="#ffd1b6"/><path d="m158 221c-.6 2.1-2.6 3.5-4.6 3.7-9 1.1-10.4-14.3-1.1-8.9.9.5 1.7 1.5 2.5 2.2 1.1.9 2.3 1.8 3.2 3z" stroke="#ffd1b6" stroke-linecap="round" stroke-linejoin="round"/><path d="m153.1 218.2c-.7 0-1 .9-1 1.5 0 1.3 5 1.6 2.3-.4-.7-.5 0-1-1.2-1.2" fill="#000" fill-opacity=".1"/><path d="m166.7 276.6c5.1 7.6 10.2 15.1 15.8 22.4 4.2 5.6 2.4 9.5 10.6 15.2.9.6 3 2.3 4 1.2 1.4-1.4 0-4 .4-3.5 2.3 2 6.8 8.8 10.3 7.3 2.2-.9 1-3.3.4-4.8-2.4-6.5-8.9-10.9-11.3-17.5-.2-.7-1.3-3.2-.7-3.9 1.3-1.4 8.9 6.2 10.7 7.3 2.8 1.8 13.6 8.9 15.8 4.2.3-.6.8-1.3.7-2-.6-3.4-15.5-11.2-18.2-14-.3-.4-4.6-3.8-3.8-4.4 2.1-1.5 19.8 11.2 22.7 13.1 2 1.2 6.6 1.3 5.9-2.4-1.1-6.1-18.9-15-23.4-18.5-2-1.6-6.4-3.1-7-6.1-.2-1.1 3.7-.5 4.2-.5 6.7 0 7.9 2.4 14.1-2.6 1-.8 2-1.4 1.7-3-.8-3.2-7.9-1.9-10.2-1.9-4.8 0-9.2-2.7-13.9-3.7-6.6-1.4-15.5-1.4-21.8 1.2-2.8 1.1-5.2 5.1-6.1 7.9-.7 2.3-.4 5.1-.4 7.4" fill="#ffdac3"/><path d="m188.1 297.9c2.5 5 5.1 10.3 9.3 13.9" stroke="#000" stroke-linecap="round" stroke-linejoin="round" stroke-opacity=".1"/><path d="m185.2 289.4c-.1 1 .3 1.5.9 2" stroke="#000" stroke-linecap="round" stroke-linejoin="round" stroke-opacity=".1"/><path d="m189.8 283c-.8 1.1-.4 2 .6 2.7" stroke="#000" stroke-linecap="round" stroke-linejoin="round" stroke-opacity=".1"/><path d="m196.8 275.2c-.5.8-.6 1.4-.3 2.3" stroke="#000" stroke-linecap="round" stroke-linejoin="round" stroke-opacity=".1"/><path d="m208.6 294.9c-1 .8-1.5 1.9-1.8 3.1" stroke="#000" stroke-linecap="round" stroke-linejoin="round" stroke-opacity=".1"/><path d="m209.6 295.3c-.2 1-.6 1.7-1.4 2.3" stroke="#000" stroke-linecap="round" stroke-linejoin="round" stroke-opacity=".1"/><path d="m213.1 283.9c-.5.8-1 1.7-1.1 2.7" stroke="#000" stroke-linecap="round" stroke-linejoin="round" stroke-opacity=".1"/><path d="m213.9 284.8c.1.8-.4 1.3-.7 2" stroke="#000" stroke-linecap="round" stroke-linejoin="round" stroke-opacity=".1"/><path d="m195.5 303.6c-.6.6-1.1 1.4-1.5 2.2" stroke="#000" stroke-linecap="round" stroke-linejoin="round" stroke-opacity=".1"/><path d="m196 305.3c-.3.6-.8.9-1.2 1.3" stroke="#000" stroke-linecap="round" stroke-linejoin="round" stroke-opacity=".1"/><path d="m204.2 315.8c-.3.5-.2 1.2.1 1.7.2.5.6.9 1.1 1.1 4.3 2.3 3.4-3.7.4-3.7-.7 0-1 0-1.4.6" fill="#ffb9ac"/><path d="m204.2 315.8c-.3.5-.2 1.2.1 1.7.2.5.6.9 1.1 1.1 4.3 2.3 3.4-3.7.4-3.7-.7 0-1 0-1.4.6" stroke="#ffb9ac" stroke-linecap="round" stroke-linejoin="round"/><path d="m193.7 313.7c.7 3.8 6.9.6.3-.5z" fill="#ffb9ac"/><path d="m193.7 313.7c.7 3.8 6.9.6.3-.5" stroke="#ffb9ac" stroke-linecap="round" stroke-linejoin="round"/><path d="m225.4 294.3c-.3.4-.7 1-.5 1.6.7 1.8 4.6 2.9 4.9.3.4-2.8-2.8-3.7-4.4-1.9z" fill="#ffb9ac"/><path d="m225.4 294.3c-.3.4-.7 1-.5 1.6.7 1.8 4.6 2.9 4.9.3.4-2.8-2.8-3.7-4.4-1.9z" stroke="#ffb9ac" stroke-linecap="round" stroke-linejoin="round"/><path d="m213.7 263.5c-1.4 2.4 4.7 2.8 5.4 1.4 1-2.2-4-2.2-5-1.7" fill="#ffb9ac"/><path d="m213.7 263.5c-1.4 2.4 4.7 2.8 5.4 1.4 1-2.2-4-2.2-5-1.7" stroke="#ffb9ac" stroke-linecap="round" stroke-linejoin="round"/><path d="m257.5 286.2c-5.2 4.5-9.8 12-17 12.9-5.7.8-11.4-1.7-17.2-1-4.7.6-9.5 1.9-14.2 1.9-1.9 0-7.6-1.5-8.5.9-.4 1.2.5 2.3.9 3.3 3.3 8.1 21.3-.6 18 7.7-2.5 6.2-11.6 7.9-17.1 8.9-1.9.3-6-1-7.4.7-2 2.6 1.6 3.2 2.4 4.6.3.5-.8 1.6-.4 2.4.9 1.9 3.3 1.3 4.2 2.5.4.5-.4 1.7 0 2.3 1.5 2.4 5.4 2 7.7 3 1.2.5.7 2.8 3.4 3.2 6.6.9 17.2-.2 22.8-4.4 3.7-2.8 6.7-6.3 10.2-9.4 3.8-3.4 7.2-7 10.7-10.7 3.3-3.5 5-8.6 7.6-12.6 1.9-2.9 4.3-5.6 5.8-8.7 2.3-4.8 12.8-13.7 4.5-18.1-3.6-1.9-13.3 9-16.8 10.9" fill="#ffdac3"/><path d="m204.9 300.6c-9.9-2.6.1 9.6 1.1.7z" fill="#ffb9ac"/><path d="m204.9 300.6c-9.9-2.6.1 9.6 1.1.7" stroke="#ffb9ac" stroke-linecap="round" stroke-linejoin="round"/><path d="m224.7 306.1c-1.9.9-3.7 1.8-5.7 2.2" stroke="#000" stroke-linecap="round" stroke-linejoin="round" stroke-opacity=".1"/><path d="m216.1 327c-6.1 1.4-11.9.4-17.9-.7" stroke="#000" stroke-linecap="round" stroke-linejoin="round" stroke-opacity=".1"/><path d="m222 333.7c-6.4.1-13 .2-19.1-2" stroke="#000" stroke-linecap="round" stroke-linejoin="round" stroke-opacity=".1"/><path d="m225.5 336c-4.8.5-10.5 3-15.3 1.3" stroke="#000" stroke-linecap="round" stroke-linejoin="round" stroke-opacity=".1"/><path d="m217.7 323.6c-.5 0-.9 0-1.4.1" stroke="#000" stroke-linecap="round" stroke-linejoin="round" stroke-opacity=".1"/><path d="m225.3 330.5c-.7-.5-1.5-.4-2.2-.2" stroke="#000" stroke-linecap="round" stroke-linejoin="round" stroke-opacity=".1"/><path d="m203.6 325.5c-.1-.3-.1-.6-.1-.8" stroke="#000" stroke-linecap="round" stroke-linejoin="round" stroke-opacity=".1"/><path d="m205.2 325.3c-.7-2.6.2.6-.3-1" stroke="#000" stroke-linecap="round" stroke-linejoin="round" stroke-opacity=".1"/><path d="m211.5 304.3c-.3-1-.3-2.1.2-2.7" stroke="#000" stroke-linecap="round" stroke-linejoin="round" stroke-opacity=".1"/><path d="m212.9 303.5c0-.3.1-.6.1-.8 0-.1.1-.2.1-.3" stroke="#000" stroke-linecap="round" stroke-linejoin="round" stroke-opacity=".1"/><path d="m289.3 265.2c-4.3 4-8 8.8-12.4 12.7-2.3 2-4.6 4.9-7.1 6.5-2.2 1.3-3.7-.1-6 .3-1.3.2-8.4 6.5-10.2 1.7-.7-1.9 2-4.2 2.8-5.6 1.2-2.2 1.6-4.8 2.9-7 2.8-4.7 10.3-11.1 14.7-14.2 4.3-3 16.3-.2 15.3 6.2" fill="#ffd298"/><path d="m289.3 265.2c-4.3 4-8 8.8-12.4 12.7-2.3 2-4.6 4.9-7.1 6.5-2.2 1.3-3.7-.1-6 .3-1.3.2-8.4 6.5-10.2 1.7-.7-1.9 2-4.2 2.8-5.6 1.2-2.2 1.6-4.8 2.9-7 2.8-4.7 10.3-11.1 14.7-14.2 4.3-3 16.3-.2 15.3 6.2" stroke="#ffd298" stroke-linecap="round" stroke-linejoin="round"/><path d="m222.4 257.1c-2.6 12.9 4.9 17.5 8.6 27.1 1.1 2.8 1.1 5.9 2.2 8.7" stroke="#000" stroke-linecap="round" stroke-linejoin="round" stroke-opacity=".1"/><path d="m238.6 264.9c-.3 7.6-.8 15.9 2.9 22.7" stroke="#000" stroke-linecap="round" stroke-linejoin="round" stroke-opacity=".1"/><path d="m246.1 263.2c.7 6.7-.5 14.7 2.9 20.7" stroke="#000" stroke-linecap="round" stroke-linejoin="round" stroke-opacity=".1"/><path d="m258.9 269.1c-1.2 3.9-.2 8-1.6 11.8" stroke="#000" stroke-linecap="round" stroke-linejoin="round" stroke-opacity=".1"/><path d="m289 265.8c9.2 2.8 16.6 9.6 25.8 12.4 1.7.5 7.3 1 7.5 1.3 0 0-6.3 10.6-6.7 12.2-.3 1.5-.5 3.3 0 4.8.2.7 1.5 2.1 1.1 2.3-3.9 1.4-13.5-5.7-17.8-6.4-7.9-1.4-15.6-1.5-22.7-6.1-1.7-1.1-5.7-2.9-5.7-5.4 0-4.6 14.2-11.9 17.3-15.1" fill="#ffd1b6"/><path d="m289 265.8c9.2 2.8 16.6 9.6 25.8 12.4 1.7.5 7.3 1 7.5 1.3 0 0-6.3 10.6-6.7 12.2-.3 1.5-.5 3.3 0 4.8.2.7 1.5 2.1 1.1 2.3-3.9 1.4-13.5-5.7-17.8-6.4-7.9-1.4-15.6-1.5-22.7-6.1-1.7-1.1-5.7-2.9-5.7-5.4 0-4.6 14.2-11.9 17.3-15.1" stroke="#ffd1b6" stroke-linecap="round" stroke-linejoin="round"/><path d="m319.2 278.8c6-1.2 11.7-7.9 18.2-6.8.8.1 1 1 1.6 1.2 1 .3 2.3.1 3.2.8 1.4 1.1-.2 4.2.6 5 .9 1 2.7 2.2 1.6 3.9-3 4.8-10.8 3.5-14.8 7.1-3.4 3-3.6 8.9-8.6 9.6-10.6 1.6-3.3-19.4 0-21.2" fill="#ffd1b6"/><path d="m319.2 278.8c6-1.2 11.7-7.9 18.2-6.8.8.1 1 1 1.6 1.2 1 .3 2.3.1 3.2.8 1.4 1.1-.2 4.2.6 5 .9 1 2.7 2.2 1.6 3.9-3 4.8-10.8 3.5-14.8 7.1-3.4 3-3.6 8.9-8.6 9.6-10.6 1.6-3.3-19.4 0-21.2" stroke="#ffd1b6" stroke-linecap="round" stroke-linejoin="round"/><path d="m310.2 283.8c-.4 1.7.1 3.1 1.8 3.3" stroke="#000" stroke-linecap="round" stroke-linejoin="round" stroke-opacity=".1"/><path d="m171.4 103.4c3.1 1.2 6.4.8 8.9-1.5" stroke="#000" stroke-linecap="round" stroke-linejoin="round"/><path d="m171.4 103.9c-.2.6-.6 1-1 1.4" stroke="#000" stroke-linecap="round" stroke-linejoin="round"/><path d="m172.5 104c-.1.7-.5 1.1-.9 1.6" stroke="#000" stroke-linecap="round" stroke-linejoin="round"/><path d="m173.2 104.4c-.1.4-.2.7-.4 1.1" stroke="#000" stroke-linecap="round" stroke-linejoin="round"/><path d="m174 104.9c0 .4-.1.7-.2 1" stroke="#000" stroke-linecap="round" stroke-linejoin="round"/><path d="m175.2 104.6c.1.4.1.8.1 1.2" stroke="#000" stroke-linecap="round" stroke-linejoin="round"/><path d="m176.3 104.2c0 .6.1 1.1.4 1.6" stroke="#000" stroke-linecap="round" stroke-linejoin="round"/><path d="m177.5 104.5c.3 1.2-.1-.3.3.6" stroke="#000" stroke-linecap="round" stroke-linejoin="round"/><path d="m178.4 103.5c.2.5.3 1 .8 1.3" stroke="#000" stroke-linecap="round" stroke-linejoin="round"/><path d="m179.6 103.3c.2.5 0 .3.5.5" stroke="#000" stroke-linecap="round" stroke-linejoin="round"/><path d="m161.8 102c-1.4.2-3.1 2-4.4 1.3" stroke="#000" stroke-linecap="round" stroke-linejoin="round"/><path d="m159.7 102.4c-.5.3-.9.7-1.5.7" stroke="#000" stroke-linecap="round" stroke-linejoin="round"/><path d="m160.3 102.6c-.3.8-.9.9-1.5 1.1" stroke="#000" stroke-linecap="round" stroke-linejoin="round"/><path d="m161.3 102.4c-.3.7-.7 1-1.3 1.3" stroke="#000" stroke-linecap="round" stroke-linejoin="round"/><path d="m170.7 113c.3.6.4 1.7-.1 2.3-1.7 2.1-3.3-.3-5.5.3-.9.3-1.5 1.2-3 1.5-.5.1-1.1-.3-1.5-.5-2.2-1.5-1.4-4.1-.3-6.1" fill="#ffdac3"/><path d="m170.7 113c.3.6.4 1.7-.1 2.3-1.7 2.1-3.3-.3-5.5.3-.9.3-1.5 1.2-3 1.5-.5.1-1.1-.3-1.5-.5-2.2-1.5-1.4-4.1-.3-6.1" stroke="#000" stroke-linecap="round" stroke-linejoin="round" stroke-opacity=".1"/><path d="m176.1 123.9c-1.4-.4-10.7-1.7-11.4-.7-.6.8.1 1 .3 1.5.2.4-.6 1.6-.2 2.4 1.5 2.7 9.3-1.9 10.9-2.9" fill="#e3997e"/><path d="m176.1 123.9c-1.4-.4-10.7-1.7-11.4-.7-.6.8.1 1 .3 1.5.2.4-.6 1.6-.2 2.4 1.5 2.7 9.3-1.9 10.9-2.9" stroke="#e3997e" stroke-linecap="round" stroke-linejoin="round"/><path d="m174.9 124.2c-2.8 1.8-7.1-1.1-9.6 1.1" stroke="#000" stroke-linecap="round" stroke-linejoin="round" stroke-opacity=".1"/><path d="m165.4 94.2999c-.1 1.2 0 2.1001 1.3 1.9001 3.2-.5 7.2-.6 10.5-.2.5.1 5.8 1 5.8.9 0 0-2.2-1.1-2.5-1.3-5.2-2.8-9.4-.7-14.9-1.4" fill="#ecc88b"/><path d="m165.4 94.2999c-.1 1.2 0 2.1001 1.3 1.9001 3.2-.5 7.2-.6 10.5-.2.5.1 5.8 1 5.8.9 0 0-2.2-1.1-2.5-1.3-5.2-2.8-9.4-.7-14.9-1.4" stroke="#ecc88b" stroke-linecap="round" stroke-linejoin="round"/><path d="m158.9 93.6999c-.1 0 0 .8-.1.9-.2.2-1.4-.4-1.7-.5-.5-.1-1.2.2-1.7 0-1.4-.6-.4-2.9 2.3-1.5.4.2.9.3 1.2.4" fill="#ecc88b"/><path d="m158.9 93.6999c-.1 0 0 .8-.1.9-.2.2-1.4-.4-1.7-.5-.5-.1-1.2.2-1.7 0-1.4-.6-.4-2.9 2.3-1.5.4.2.9.3 1.2.4" stroke="#ecc88b" stroke-linecap="round" stroke-linejoin="round"/><path d="m308.1 307.6c-17.2-.9-37 .6-52.7 8.9" stroke="#000" stroke-linecap="round" stroke-linejoin="round" stroke-opacity=".1"/><path d="m306.8 302.4c-16.2-1-27.7 2.8-41.8 10.3" stroke="#000" stroke-linecap="round" stroke-linejoin="round" stroke-opacity=".1"/><path d="m145.6 303.1c6.7 12.4 12.1 25.2 21.7 35.3 7.2 7.7 13.5 12.6 19 22.2 2.7 4.8 3.2 10.5 5.7 15.2 2.8 5.2 4.7 10.8 3.6 16.9-.1.3 0 1.5-.2 1.7-2.4 2.5-3.4 4.5-7 5.1-1.5.3-5.1-1.7-6.3-.8-.6.5-.6 1.7-1.1 2.3-1.8 2.3-3.9-.3-5.7.2-.6.2-.8 1.4-2 1.5-1.3.2-4.7-.7-3.6-1.3.9-.5.6 2.7-2.1 1.7-2.6-.9-5.2-3.9-4.8-7 .5-4.7 3.9-12.3 3-16.7-.8-4.5-9.6-21.6-12.5-25.4-6.8-9-23.4-22.9-32.2-30.4-1.7-1.5-14.2-15.8-16.1-17-6-3.8-4-2.7-4.5-10.2-.9-13.1 23.5-15.5 31.1-10.1 4.4 3.1 12 10.8 14.3 15.8" fill="#ffdac3"/><path d="m146.3 345.6c-6.7-.2-10.6 7.5-9.8 14.1.2 1.3 1 2.6.7 4-.6 3.4-3.2 6 1.1 8 2.6 1.2 25.5-.7 27.9-2.5 3.9-2.9-1.8-14.5-5.7-17.5-4.9-3.8-11.2-3.4-12.9-4.6" fill="#ffdac3"/><path d="m205.8 100.3c1.7 7-.5 12.6-3.1 19" stroke="#000" stroke-linecap="round" stroke-linejoin="round" stroke-opacity=".1"/><path d="m122.3 225.7c-3.5-2.8-15.2-5.9-17.3-7.3-2.5-1.6-6-3.2-8.7-4.1-2.5-.9-5.5-1-8.2-1-4.1 0-8.9 3.4-11.6 6.3-1.3 1.4-3.3 2.4-4.8 3.6-2.7 2.3-4.6 7.5-5.7 10.9-3.9 12.3 4.5 24.5 9.3 34.8 1.9 4.1 3 8.8 5.7 12.6 7.8 11.1 14.5 23.2 23 33.6.4.5 7.2 9.1 7.7 8.5.1-.1-2.3-3.5-3.4-5.3-2.6-4.1-6.4-9.2-5.7-14.5.9-6.5 8.5-9.7 14.1-8.9 1.7.2 3 1.8 4.6 2.2 5.1 1.1 9.7 4.4 15 4.4.6 0 10.4 3.9 10.7 2.4.5-2.4-8.1-14.9-9.3-18.1-3.5-9.3-6.1-18.3-8.4-28-1-4.4-2.5-10.6-1.6-15.2.3-1.4 1-3.1.7-4.6-.2-1-5.2-11.1-5.9-11.8" fill="#acc7de"/><path d="m122.3 225.7c-3.5-2.8-15.2-5.9-17.3-7.3-2.5-1.6-6-3.2-8.7-4.1-2.5-.9-5.5-1-8.2-1-4.1 0-8.9 3.4-11.6 6.3-1.3 1.4-3.3 2.4-4.8 3.6-2.7 2.3-4.6 7.5-5.7 10.9-3.9 12.3 4.5 24.5 9.3 34.8 1.9 4.1 3 8.8 5.7 12.6 7.8 11.1 14.5 23.2 23 33.6.4.5 7.2 9.1 7.7 8.5.1-.1-2.3-3.5-3.4-5.3-2.6-4.1-6.4-9.2-5.7-14.5.9-6.5 8.5-9.7 14.1-8.9 1.7.2 3 1.8 4.6 2.2 5.1 1.1 9.7 4.4 15 4.4.6 0 10.4 3.9 10.7 2.4.5-2.4-8.1-14.9-9.3-18.1-3.5-9.3-6.1-18.3-8.4-28-1-4.4-2.5-10.6-1.6-15.2.3-1.4 1-3.1.7-4.6-.2-1-5.2-11.1-5.9-11.8" stroke="#acc7de" stroke-linecap="round" stroke-linejoin="round"/><path d="m194.8 323c.3.7 1 1.1 1.5 1.5.4.3.6.5 1.1.7 3.5 1.2.4-4.6-2-3.3-.4.2-.5.1-.5.6" fill="#ffb9ac"/><path d="m194.8 323c.3.7 1 1.1 1.5 1.5.4.3.6.5 1.1.7 3.5 1.2.4-4.6-2-3.3-.4.2-.5.1-.5.6" stroke="#000" stroke-linecap="round" stroke-linejoin="round" stroke-opacity=".1"/><path d="m197.5 328.2c.1.4.4.7.7 1 .4.3.8.4 1.2.6 3.1 1.6.6-2.2-1.7-2.5-.6-.1-.3.6-.2.9z" fill="#ffb9ac"/><path d="m197.5 328.2c.1.4.4.7.7 1 .4.3.8.4 1.2.6 3.1 1.6.6-2.2-1.7-2.5-.6-.1-.3.6-.2.9z" stroke="#000" stroke-linecap="round" stroke-linejoin="round" stroke-opacity=".1"/><path d="m201.6 333.2c2.2 3.3 5.8 1.4 0-.6z" fill="#ffb9ac"/><path d="m201.6 333.2c2.2 3.3 5.8 1.4 0-.6" stroke="#000" stroke-linecap="round" stroke-linejoin="round" stroke-opacity=".1"/><path d="m356.4 7.59994c-6-.5-39.3-.1-46.4-.9-9.2-1-17.9-1.20002-27.4-1.90002-3.1-.2-31.9-2.39998-33.1-2.19998-6.5 1.1-12.9-1.600011-19.5-1.10001-5.7.4-11.6-.500001-17.3 0-3.1.3-6 1.49999-9.1 1.79999-13.8 1.3-28.3-.09999-41.8-1.79999-13.5-1.600001-30.7 0-44.6 0-22.7 0-44.9.20001-67.3 2.70001-13.2 1.4-28.3-.40002-38.2 10.69996-12.300003 13.7-11.300003 53.5-10 70.2.3 4.2 1.5 8.3 1.8 12.4.9 12.9001 0 26.2001 0 39.1001 0 32-.5 64 1.8 95.9 1.6 22.4 3.6 45 3.6 67.5 0 7.5.9 15.6 0 23.1-1.7 15.3-3.1 31.4 10 42.6 12.8 10.9 40.8.3 55.5-.9 9.9-.8 20.2.1 30 .9 6.9.5 14-.4 20.9 0 14.3.9 28.4.9 42.8.9 6.9 0 13.1 1.4 20 1.8 13.5.8 42.2 1.1 55.5 0 13.6-1.1 27.2-3.6 40.9-3.6 14.1 0 33.9 1.6 47.3 0 6.3-.8 12.8-2.4 19.1-3.6 12.1-2.1 15.1.4 25.5-8 2.7-2.2 4.9-2.6 7.3-5.3 7.1-8.3 6.5-27.1 7.3-37.3 1.7-22.1 1.2-44.5 0-66.6-.6-10.6 0-21.4 0-32 0-25.2 0-50.3 0-75.5 0-9.6-1.8-18.9-1.8-28.4 0-18.6001-2.5-35.8001-4.5-54.2001-.5-4.4-.3-8.9-.9-13.3-.5-3.6-2.3-7.1-2.7-10.7-.6-5 .1-8.7-1.8-13.3-2.8-6.79996-9.8-10.49996-21.8-8.89996" stroke="#000" stroke-linecap="round" stroke-linejoin="round"/><path d="m207.1 84.3999c-1.6 2.8-3.2 6.1-3.2 9.5 0 16.1001 13.5 16.6001 16.8 4.4 3.6-13.4-9.7-21.3-13.6-13.9z" fill="#000"/><path d="m163.9 57.4998c3.7-7.8 11.3-10 18.7-7.1 8.6 3.4 18.8 14.5001 22.4 23.2001.5 1.2 3.8 10.9 4.8 11.1 5.4 1.4-2.1-14.5001-2.8-16.7001-2.6-8.2-7.8-15.9999-14.3-21.3999-7.2-6-29.9-1.2-29.9 11.5" fill="#723828"/><path d="m163.9 57.4998c3.7-7.8 11.3-10 18.7-7.1 8.6 3.4 18.8 14.5001 22.4 23.2001.5 1.2 3.8 10.9 4.8 11.1 5.4 1.4-2.1-14.5001-2.8-16.7001-2.6-8.2-7.8-15.9999-14.3-21.3999-7.2-6-29.9-1.2-29.9 11.5" stroke="#723828" stroke-linecap="round" stroke-linejoin="round"/><path d="m207.1 84.4c-1.1-4.3-3.2-7.0999 1.3-8.6999 4.6-1.6 4.6 3.8 5.5 8" stroke="#000" stroke-linecap="round" stroke-linejoin="round"/><path d="m128.2 17.8999-.1 2v.2.2c0 .2-.1.4-.2.5s-.3.2-.6.2c-.2 0-.4-.1-.5-.2s-.2-.3-.2-.6v-.4l.1-2.7c0-.2.1-.4.2-.5s.3-.2.6-.2h5.6c.4 0 .7.1.9.2s.3.4.3.6c0 .1 0 .3-.1.5s-.2.3-.3.5l-5.8 8.4h4.5l.1-2.3c0-.7.3-1.1.7-1.1.2 0 .4.1.5.2s.2.3.2.6v.4l-.1 3c0 .2-.1.4-.2.5s-.3.2-.6.2h-6.1c-.3 0-.5-.1-.7-.2s-.3-.4-.3-.6 0-.3.1-.5.2-.4.4-.6l5.6-8.1h-4z" fill="#000"/><path d="m147.6 23.5999c0 1.4-.5 2.5-1.4 3.4s-2.2 1.3-3.7 1.3-2.7-.4-3.7-1.3-1.4-2-1.4-3.4.5-2.5 1.4-3.4 2.2-1.3 3.7-1.3 2.7.4 3.7 1.3 1.4 2 1.4 3.4zm-5.1 3.4c1 0 1.8-.3 2.5-1s1-1.4 1-2.4-.3-1.8-1-2.4c-.6-.6-1.5-1-2.5-1s-1.8.3-2.5 1c-.6.6-1 1.5-1 2.4 0 1 .3 1.8 1 2.4.7.7 1.5 1 2.5 1z" fill="#000"/><path d="m159.6 23.5999c0 1.4-.5 2.5-1.4 3.4s-2.2 1.3-3.7 1.3-2.7-.4-3.7-1.3-1.4-2-1.4-3.4.5-2.5 1.4-3.4 2.2-1.3 3.7-1.3 2.7.4 3.7 1.3 1.4 2 1.4 3.4zm-5.1 3.4c1 0 1.8-.3 2.5-1s1-1.4 1-2.4-.3-1.8-1-2.4c-.6-.6-1.5-1-2.5-1s-1.8.3-2.5 1c-.6.6-1 1.5-1 2.4 0 1 .3 1.8 1 2.4.7.7 1.5 1 2.5 1z" fill="#000"/><path d="m170.1 22.6999c0-.9-.1-1.5-.2-1.9s-.4-.5-.9-.5-.9.2-1.1.6-.4 1-.4 1.7v4.1h.2c.4 0 .7 0 .8.1s.2.3.2.5-.1.4-.2.5-.3.2-.5.2h-1.2c-.3 0-.5-.1-.6-.2s-.2-.4-.2-.8v-.3-4.1-.8c0-.5-.1-.9-.3-1.2s-.5-.4-.9-.4c-.3 0-.6.1-.8.3s-.5.4-.6.8v5.4h.4c.4 0 .6 0 .8.1s.2.3.2.5c0 .3-.1.5-.2.6s-.3.2-.6.2h-2.6c-.3 0-.4-.1-.6-.2s-.2-.3-.2-.5c0-.3.1-.4.2-.5.2-.1.4-.1.9-.1h.2v-6.3h-.2c-.5 0-.8-.1-.9-.2-.2-.1-.2-.3-.2-.5s.1-.4.2-.5.3-.2.6-.2h1.5c.2 0 .4 0 .4.1s.1.2.1.5c.3-.3.6-.5.9-.6s.7-.2 1-.2c.5 0 .8.1 1.1.3s.5.5.7.9c.3-.4.6-.7.9-.9.4-.2.8-.3 1.2-.3.8 0 1.5.3 1.8.8s.6 1.4.6 2.7v4.4h.2c.4 0 .7 0 .8.1s.2.3.2.5-.1.4-.2.5-.3.2-.5.2h-1.2c-.3 0-.5-.1-.6-.2s-.2-.4-.2-.7z" fill="#000"/><path d="m194.1 22.6999c0-.9-.1-1.5-.2-1.9s-.4-.5-.9-.5-.9.2-1.1.6-.4 1-.4 1.7v4.1h.2c.4 0 .7 0 .8.1s.2.3.2.5-.1.4-.2.5-.3.2-.5.2h-1.2c-.3 0-.5-.1-.6-.2s-.2-.4-.2-.8v-.3-4.1-.8c0-.5-.1-.9-.3-1.2s-.5-.4-.9-.4c-.3 0-.6.1-.8.3s-.5.4-.6.8v5.4h.4c.4 0 .6 0 .8.1s.2.3.2.5c0 .3-.1.5-.2.6s-.3.2-.6.2h-2.6c-.3 0-.4-.1-.6-.2s-.2-.3-.2-.5c0-.3.1-.4.2-.5.2-.1.4-.1.9-.1h.2v-6.3h-.2c-.5 0-.8-.1-.9-.2-.2-.1-.2-.3-.2-.5s.1-.4.2-.5.3-.2.6-.2h1.5c.2 0 .4 0 .4.1s.1.2.1.5c.3-.3.6-.5.9-.6s.7-.2 1-.2c.5 0 .8.1 1.1.3s.5.5.7.9c.3-.4.6-.7.9-.9.4-.2.8-.3 1.2-.3.8 0 1.5.3 1.8.8s.6 1.4.6 2.7v4.4h.2c.4 0 .7 0 .8.1s.2.3.2.5-.1.4-.2.5-.3.2-.5.2h-1.2c-.3 0-.5-.1-.6-.2s-.2-.4-.2-.7z" fill="#000"/><path d="m199.2 24c.1.9.4 1.7 1 2.2s1.4.8 2.4.8c.8 0 1.6-.2 2.5-.6s1.4-.6 1.6-.6.4.1.5.2.2.3.2.5-.1.4-.2.5c-.1.2-.4.3-.7.5-.7.3-1.3.6-2 .7s-1.4.3-2.1.3c-1.5 0-2.7-.4-3.6-1.3s-1.3-2-1.3-3.4.5-2.6 1.4-3.5 2.2-1.3 3.7-1.3c1.4 0 2.5.4 3.4 1.2s1.4 1.8 1.4 3c0 .4-.1.6-.2.7s-.6.2-1.2.2h-.1-6.7zm.1-1.2h6.4c-.1-.8-.4-1.4-1-1.9s-1.2-.7-2-.7c-.9 0-1.6.2-2.2.7s-1.1 1-1.2 1.9z" fill="#000"/><path d="m211.2 24c.1.9.4 1.7 1 2.2s1.4.8 2.4.8c.8 0 1.6-.2 2.5-.6s1.4-.6 1.6-.6.4.1.5.2.2.3.2.5-.1.4-.2.5c-.1.2-.4.3-.7.5-.7.3-1.3.6-2 .7s-1.4.3-2.1.3c-1.5 0-2.7-.4-3.6-1.3s-1.3-2-1.3-3.4.5-2.6 1.4-3.5 2.2-1.3 3.7-1.3c1.4 0 2.5.4 3.4 1.2s1.4 1.8 1.4 3c0 .4-.1.6-.2.7s-.6.2-1.2.2h-.1-6.7zm.1-1.2h6.4c-.1-.8-.4-1.4-1-1.9s-1.2-.7-2-.7c-.9 0-1.6.2-2.2.7s-1.1 1-1.2 1.9z" fill="#000"/><path d="m229.2 19.5999c.3 0 .6.1.7.2s.2.3.2.5-.1.4-.2.5-.3.2-.6.2h-4v3.3c0 1.1.1 1.8.4 2.1s.8.5 1.4.5 1.3-.2 2.1-.5 1.3-.5 1.5-.5.3.1.5.2.2.3.2.5-.1.4-.2.6-.4.3-.8.5c-.6.3-1.2.4-1.7.6s-1 .2-1.4.2c-.8 0-1.4-.1-1.9-.4s-.9-.6-1.2-1.1c-.1-.2-.2-.5-.3-.8s-.1-.8-.1-1.4v-.3-3.5h-1.7c-.3 0-.5-.1-.6-.2s-.2-.3-.2-.5c0-.3.1-.4.3-.5s.5-.1 1.1-.1h1.1v-2-.5c0-.3.1-.5.2-.6s.3-.2.6-.2.5.1.6.2.2.5.2 1.1v2h3.8z" fill="#000"/><path d="m239.4 26.7h3.1c.3 0 .4.0999.6.1999s.2.3.2.5c0 .3-.1.5-.2.6s-.3.2001-.6.2001h-7.6c-.3 0-.5-.1001-.6-.2001s-.2-.3-.2-.5.1-.4.2-.5.3-.2.6-.2h3v-6.3h-1.9c-.3 0-.5-.1-.6-.2s-.2-.3-.2-.5.1-.4.2-.5.3-.2.6-.2h2.9c.2 0 .3.0001.4.1001s.2.1999.2.2999v7.2001zm-1.8-10.4001c0-.7.1-1.1.2-1.3s.4-.2999.8-.2999.7.0999.8.1999.2.5.2 1.1-.1.9-.2 1-.4.2001-.8.2001-.7-.1001-.8-.2001-.2-.3-.2-.7z" fill="#000"/><path d="m246.9 26.6998v-6.3h-.2c-.4 0-.7-.1-.9-.2s-.2-.3-.2-.5.1-.4.2-.5.4-.2.7-.2h.5.9c.2 0 .3 0 .4.1s.1.2.1.3v.7c.5-.4.9-.8 1.4-1s.9-.3 1.5-.3c1 0 1.8.3 2.3.9s.8 1.5.8 2.5v4.4h.5c.3 0 .6.1.7.2s.2.3.2.5c0 .3-.1.4-.2.5s-.4.2-.8.2h-2.2c-.4 0-.7 0-.8-.1s-.2-.3-.2-.6.1-.4.2-.5.4-.1.8-.1h.3v-4.1c0-.8-.2-1.3-.5-1.7s-.8-.6-1.5-.6-1.3.2-1.8.7-.8 1-.8 1.7v4.1h.3c.4 0 .7 0 .8.1s.2.3.2.5c0 .3-.1.5-.2.6s-.4.1-.9.1h-1.8-.5c-.3 0-.5-.1-.6-.2s-.2-.3-.2-.5c0-.3.1-.4.2-.5s.5-.1.9-.1h.4z" fill="#000"/><path d="m266.5 27.5999c0 .9 0 1.5999-.1 1.8999s-.2.7-.5 1c-.4.5-.9.8001-1.5 1.1001s-1.4.3999-2.3.3999c-.7 0-1.3-.1-1.6-.2s-.5-.3999-.5-.6999c0-.2.1-.4.2-.5s.4-.2001.6-.2001.4 0 .8.1.6.1001.8.1001c1 0 1.6-.2001 2.1-.7001s.6-1.1999.6-2.2999v-1.2001c-.4.5-.8.8-1.3 1s-1 .3001-1.7.3001c-1.2 0-2.2-.4001-3-1.2001s-1.2-1.8-1.2-3.1c0-1.2.4-2.3 1.2-3.1s1.8-1.1999 3-1.1999c.5 0 1 .0999 1.5.2999s1 .5001 1.5.8001v-.7001c0-.1 0-.1999.1-.2999s.2-.1.4-.1h1.5c.3 0 .5.0999.6.1999s.2.3.2.5c0 .3-.1.4-.2.5s-.5.2-.9.2h-.2v7.1001zm-4.3-7.1001c-.9 0-1.5.3-2.1.8s-.8 1.2-.8 2.1c0 .8.3 1.5.8 2s1.2.8001 2.1.8001c.8 0 1.5-.3001 2.1-.8001s.8-1.2.8-2-.3-1.5-.8-2-1.2-.9-2.1-.9z" fill="#000"/></svg>