<svg fill="none" height="399" viewBox="0 0 424 399" width="424" xmlns="http://www.w3.org/2000/svg"><path d="m39.3 8.19996c6.5-.5 42.4001-.1 50.0001-1 9.9-1.1 19.2999-1.3 29.5999-2.1 3.3-.2 34.4-2.6 35.7-2.4 7 1.1 13.9-1.800009 21.1-1.20001 6.2.5 12.5-.499999 18.6 0 3.3.3 6.5 1.6 9.8 1.9 14.9 1.39999 30.5-.1 45.1-1.9 14.5-1.799999 33.1 0 48.1 0 24.5 0 48.4.19999 72.6 2.9 14.2 1.5 30.5-.5 41.2 11.49995 13.3 14.8 12.2 57.6 10.8 75.4-.4 4.5-1.6 8.9001-2 13.4001-1 13.8 0 28.1 0 42 0 34.4.6 68.8-2 103.1-1.8 24.1-3.9 48.4-3.9 72.6 0 8.1-.9 16.8 0 24.8 1.9 16.5 3.3 33.8-10.8 45.8-13.8 11.7-44 .3-59.8-1-10.7-.9-21.7.2-32.4 1-7.5.6-15.1-.5-22.6 0-15.4.9-30.7 1-46.1 1-7.4 0-14.2 1.5-21.6 1.9-14.5.9-45.5 1.2-59.8 0-14.7-1.2-29.3-3.8-44.1-3.8-15.2 0-36.4999 1.8-50.9999 0-6.8-.8-13.8-2.6-20.6-3.8-13-2.3-16.3.5-27.5-8.6-2.9-2.4-5.3-2.7-7.80003-5.7-7.6-8.9-7.00005-29.2-7.80005-40.1-1.900003-23.7-1.300003-47.8 0-71.6.6-11.4 0-23 0-34.4 0-27.1 0-54.1 0-81.2 0-10.3 2-20.3 2-30.6 0-20 2.60002-38.5001 4.90002-58.3001.5-4.8.4-9.5999.99996-14.2999.5-3.8 2.5001-7.6 2.9001-11.5.6-5.4-.1-9.3 2-14.3 3-7.3 10.5-11.30004 23.5-9.50004" fill="#fff"/><path d="m39.3 8.19996c6.5-.5 42.4001-.1 50.0001-1 9.9-1.1 19.2999-1.3 29.5999-2.1 3.3-.2 34.4-2.6 35.7-2.4 7 1.1 13.9-1.800009 21.1-1.20001 6.2.5 12.5-.499999 18.6 0 3.3.3 6.5 1.6 9.8 1.9 14.9 1.39999 30.5-.1 45.1-1.9 14.5-1.799999 33.1 0 48.1 0 24.5 0 48.4.19999 72.6 2.9 14.2 1.5 30.5-.5 41.2 11.49995 13.3 14.8 12.2 57.6 10.8 75.4-.4 4.5-1.6 8.9001-2 13.4001-1 13.8 0 28.1 0 42 0 34.4.6 68.8-2 103.1-1.8 24.1-3.9 48.4-3.9 72.6 0 8.1-.9 16.8 0 24.8 1.9 16.5 3.3 33.8-10.8 45.8-13.8 11.7-44 .3-59.8-1-10.7-.9-21.7.2-32.4 1-7.5.6-15.1-.5-22.6 0-15.4.9-30.7 1-46.1 1-7.4 0-14.2 1.5-21.6 1.9-14.5.9-45.5 1.2-59.8 0-14.7-1.2-29.3-3.8-44.1-3.8-15.2 0-36.4999 1.8-50.9999 0-6.8-.8-13.8-2.6-20.6-3.8-13-2.3-16.3.5-27.5-8.6-2.9-2.4-5.3-2.7-7.80003-5.7-7.6-8.9-7.00005-29.2-7.80005-40.1-1.900003-23.7-1.300003-47.8 0-71.6.6-11.4 0-23 0-34.4 0-27.1 0-54.1 0-81.2 0-10.3 2-20.3 2-30.6 0-20 2.60002-38.5001 4.90002-58.3001.5-4.8.4-9.5999.99996-14.2999.5-3.8 2.5001-7.6 2.9001-11.5.6-5.4-.1-9.3 2-14.3 3-7.3 10.5-11.30004 23.5-9.50004" stroke="#000" stroke-linecap="round" stroke-linejoin="round"/><path d="m389.4 24.0999c5 4.6 10.6 9 14.6 14.6" stroke="#000" stroke-linecap="round" stroke-linejoin="round"/><path d="m401.5 26.7998c-3.8 3.2-7 7-10.9 10.1" stroke="#000" stroke-linecap="round" stroke-linejoin="round"/><path d="m22.5 37.6999c5.4-.7 10.7 1 16 .5 35.5-3.2 71.4 1.7 107-.5 24.2-1.5 49.7-3.4 74-1.5 22.1 1.7 46 1.7 68-.5 10.2-1 20.8.4 31-.5 18.9-1.6 38.2 1 57 1" stroke="#000" stroke-linecap="round" stroke-linejoin="round"/><path d="m32.5001 27.8999c-3.1 0-5.7001-2.3-5.7001-5.1s2.5001-5.0999 5.7001-5.0999 5.7 2.2999 5.7 5.0999-2.6 5.1-5.7 5.1z" fill="#fff"/><path d="m32.5001 17.7c3.1 0 5.7 2.2999 5.7 5.0999s-2.5 5.1-5.7 5.1-5.7001-2.3-5.7001-5.1 2.6001-5.0999 5.7001-5.0999zm0 1c-2.6 0-4.7001 1.8999-4.7001 4.0999s2.1001 4.1 4.7001 4.1 4.7-1.9 4.7-4.1-2.1-4.0999-4.7-4.0999z" fill="#000"/><path d="m50.9001 27.6c-3 0-5.3-2.2-5.3-4.8 0-2.7 2.4-4.8 5.3-4.8 3 0 5.3 2.2 5.3 4.8.1 2.7-2.3 4.8-5.3 4.8z" fill="#fff"/><path d="m50.9001 18c3 0 5.3 2.2 5.3 4.8 0 2.7-2.4 4.8-5.3 4.8-3 0-5.3-2.2-5.3-4.8 0-2.7 2.4-4.8 5.3-4.8zm0 1c-2.4 0-4.3 1.7-4.3 3.8s1.9 3.8 4.3 3.8 4.3-1.7 4.3-3.8c.1-2.1-1.8-3.8-4.3-3.8z" fill="#000"/><path d="m69.7 27.7998c-3 0-5.5-2.2-5.5-5s2.5-5 5.5-5 5.5 2.2 5.5 5-2.5 5-5.5 5z" fill="#fff"/><path d="m69.7 17.7998c3 0 5.5 2.2 5.5 5s-2.5 5-5.5 5-5.5-2.2-5.5-5 2.5-5 5.5-5zm0 1c-2.5 0-4.5 1.8-4.5 4s2 4 4.5 4 4.5-1.8 4.5-4-2-4-4.5-4z" fill="#000"/><path d="m240.6 132.9c6.2 6.5 11.8 13.7 14.3 22.4" stroke="#4b2b20" stroke-linecap="round" stroke-linejoin="round"/><path d="m242.1 132.9c9.4 6.4 16.5 22.4 17 33.7" stroke="#4b2b20" stroke-linecap="round" stroke-linejoin="round"/><path d="m240.3 136.2c4.4 9 12.3 19.2 14 29.1" stroke="#4b2b20" stroke-linecap="round" stroke-linejoin="round"/><path d="m240.6 142c3.4 7.5 9.7 17.2 11.7 25.3" stroke="#4b2b20" stroke-linecap="round" stroke-linejoin="round"/><path d="m242.1 154.5c2.2 3.4 3.8 6.9 5.6 10.5" stroke="#4b2b20" stroke-linecap="round" stroke-linejoin="round"/><path d="m241.8 135.1c0 9.8.1 15.8 1.3 24.7 1 7.1 4.5 11.3 7.7 16.8.9 1.6 2.8 2.2 3.5 4 2.6 7.1-1.8 23.3-4.9 29.7-7.6 15.8-22.6 28.5-39.1 32-7 1.5-13.5 1.8-18.9-3.8-8-8.4-5.1-25.3-3.3-35.7 1.3-7.6 7.9-10.6 10.5-17.4 1.3-3.4.9-14.6 1.2-14.8 1.6-1.2 6-2.6 8.6-4.4 3.6-2.5 20.7-16.9 24-20.3 3.4-3.5 6.2-4.6 7.8-9.6" fill="#ebb89a"/><path d="m111.9 291.4c-5.5 11.8-15.4999 20.1-22.0999 31.2-2.3 3.8-3.9001 8.5-6.6001 11.9-9.6 12.1-16.6 21.3-13 38.3.7 3.1 1.4001 8.3 3.7001 10.7 4.3 4.5 12.6.7 17.5-.3 4.4-.9 18.9999.4 20.1999-6.1 1.9-10.2-17.7999-20.6-18.1999-22.1-.6-2.2 1.1999-6.4 2.2999-8.2 4.8-8.4 7.3-17.7 10.5-27 3.1-9 9.5-17.9 6.8-27.6" fill="#ebb89a"/><path d="m199.4 175.4c-4.6 3.2-11.4 3.4-16.5 4.7-1.3.3-2.8-.3-4.1 0-7 1.5-14.4 4-20.4 8.2-10.5 7.3-24 34-29.5 45.4-2.7 5.7-4.3 12-7 17.7-2.8 5.9-8.5 16.3-9.3 22.6-.6 4.1.5 8.4-.3 12.5-.5 2.5-2.3 6.4-1.8 8.8 2 8.5 18.1 4.3 25.4 6.4 4.9 1.4 8.7 3.8 12.8 6.7 8.6 6 11.4 17.9 19 24.7 2.4 2.1 9.9 8.4 12.6 9.8 2.8 1.4-2.3 19.4.3 21.2 1.5 1.1 7.1.2 8.7.6 4 1 10.3 8.7 13.9 11.2 4 2.8 10.3.3 13 4.4 1.6 2.4 12-.7 15.2.1 8.6 2.3 8.5.2 16.3-1.8 1.3-.3 2.8.2 4.1 0 3.2-.6 8.1-3.2 11.4-1.8 2.7 1.1 4.1 3.5 6.1 5.2 1.3 1.1 3.8 1 5.3 1.2 11.2 1.7 14.3-.7 23.4-6.4 1.8-1.1 4-1.4 5.5-3 2.2-2.3-.6-20.4-1.5-23.5-2.1-7.4-1.3-31-.6-39.6.6-7.1 3.2-14 4.4-21 .5-2.6.1-5.6.3-8.2.8-11.5 1.1-23.6-.3-35.1-.4-3.3-1.4-6.7-1.8-10.1-.7-6.8 3.8-25 1.2-30.5-.7-1.5-4.9-4.2-5.8-5.5-5.1-6.6-29.5-12.9-37.4-19.5-1.4-1.2-14.7-11.7-15.3-11.1 0 0 2.7 4.5 2.7 4.7.5 4.1-.3 7-2.3 10.7-1.5 2.7-8.5 9.8-10.8 12.8-19 24.9-41.9 16.4-42.3 13.1-.5-4-.9-7.8-.9-11.9 0-10.7 8.6-11.3 6.5-23.4" fill="#deeaff"/><path d="m199.4 175.4c-4.6 3.2-11.4 3.4-16.5 4.7-1.3.3-2.8-.3-4.1 0-7 1.5-14.4 4-20.4 8.2-10.5 7.3-24 34-29.5 45.4-2.7 5.7-4.3 12-7 17.7-2.8 5.9-8.5 16.3-9.3 22.6-.6 4.1.5 8.4-.3 12.5-.5 2.5-2.3 6.4-1.8 8.8 2 8.5 18.1 4.3 25.4 6.4 4.9 1.4 8.7 3.8 12.8 6.7 8.6 6 11.4 17.9 19 24.7 2.4 2.1 9.9 8.4 12.6 9.8 2.8 1.4-2.3 19.4.3 21.2 1.5 1.1 7.1.2 8.7.6 4 1 10.3 8.7 13.9 11.2 4 2.8 10.3.3 13 4.4 1.6 2.4 12-.7 15.2.1 8.6 2.3 8.5.2 16.3-1.8 1.3-.3 2.8.2 4.1 0 3.2-.6 8.1-3.2 11.4-1.8 2.7 1.1 4.1 3.5 6.1 5.2 1.3 1.1 3.8 1 5.3 1.2 11.2 1.7 14.3-.7 23.4-6.4 1.8-1.1 4-1.4 5.5-3 2.2-2.3-.6-20.4-1.5-23.5-2.1-7.4-1.3-31-.6-39.6.6-7.1 3.2-14 4.4-21 .5-2.6.1-5.6.3-8.2.8-11.5 1.1-23.6-.3-35.1-.4-3.3-1.4-6.7-1.8-10.1-.7-6.8 3.8-25 1.2-30.5-.7-1.5-4.9-4.2-5.8-5.5-5.1-6.6-29.5-12.9-37.4-19.5-1.4-1.2-14.7-11.7-15.3-11.1 0 0 2.7 4.5 2.7 4.7.5 4.1-.3 7-2.3 10.7-1.5 2.7-8.5 9.8-10.8 12.8-19 24.9-41.9 16.4-42.3 13.1-.5-4-.9-7.8-.9-11.9 0-10.7 8.6-11.3 6.5-23.4" stroke="#deeaff" stroke-linecap="round" stroke-linejoin="round"/><path d="m322.7 358.3c-9.6 3.2-38.7 6.7-48.1 5.3-5.3-.8-10.1-3.7-15.2-5.2-2.6-.8-11.4-4.4-10.8-8.2.7-4.1 6.7-5.1 9.6-6.4 7.7-3.6 30.6-3.7 38.2-.9 5.8 2.1 10.9 5.2 16.1 8.5 2.7 1.7 8.7 3 10.2 6.1" fill="#c8d3e6"/><path d="m322.7 358.3c-9.6 3.2-38.7 6.7-48.1 5.3-5.3-.8-10.1-3.7-15.2-5.2-2.6-.8-11.4-4.4-10.8-8.2.7-4.1 6.7-5.1 9.6-6.4 7.7-3.6 30.6-3.7 38.2-.9 5.8 2.1 10.9 5.2 16.1 8.5 2.7 1.7 8.7 3 10.2 6.1" stroke="#c8d3e6" stroke-linecap="round" stroke-linejoin="round"/><path d="m304.2 368.6c1.8 3.7 14.4 17.5 13 21.2-.8 2-8.2 2.6-9.9 2.7-10.9.7-15.7.9-23.4.6-16.4-.7-20.8.7-22.4.6-13.3-.9-8.6.2-21.6.3-11.5.1-19.6.9-36.1 1.8-.6 0-48.4 1-48 0 1.6-4.1 82.5-14.4 86.4-15.3 9.9-2.1 17.9-3.4 27.9-4.8 4.2-.6 10.5-2.1 14.7-2.5 5.9-.6 12.2-.2 17.8-2.1" fill="#deeaff"/><path d="m304.2 368.6c1.8 3.7 14.4 17.5 13 21.2-.8 2-8.2 2.6-9.9 2.7-10.9.7-15.7.9-23.4.6-16.4-.7-20.8.7-22.4.6-13.3-.9-8.6.2-21.6.3-11.5.1-19.6.9-36.1 1.8-.6 0-48.4 1-48 0 1.6-4.1 82.5-14.4 86.4-15.3 9.9-2.1 17.9-3.4 27.9-4.8 4.2-.6 10.5-2.1 14.7-2.5 5.9-.6 12.2-.2 17.8-2.1" stroke="#deeaff" stroke-linecap="round" stroke-linejoin="round"/><path d="m238.7 133.1c-2.7 6.1-4.7 12.4-9 17.6-5.6 6.7-12.3 13.5-19.4 18.2-1.9 1.2-10.8 3-10.5 5 .9 5.6 10.9 3.4 15 2.2 17.4-5 27.3-21.5 27-35.1-.1-2.7-1.7-5.3-2.5-7.8" fill="#000" fill-opacity=".05"/><path d="m188.3 81.3c-15.3 5.2-20.4 20.4-17.4 36.1.8 4.4 2.5 8.3 3.5 12.6 1.5 6.5-.5 11.3 3.9 17.4 5.7 7.9 5.8 11.3 13.4 19.2 2.9 3 6.5 6.6 10.8 7.6 8.5 2 22.3-7.1 27.9-13 3.3-3.5 9.4-8 10.4-13.2 2.7-14-.7-20.4-1.4-33.9-.2-3.4.1-6.7-.1-10.1-.8-14.3-10.5-23-22.7-27.6-2.7-1-6.1-1.7-9-1.4-3.3.3-16.6 3.9-19.4 6.8" fill="#ebb89a"/><path d="m170.9 119.5c-1.9-5.5-.2-9.4.6-15.2.6-4.4001 1.1-9.9001 3.9-13.2001 8-9.4 12.4-9.5 23.4-10.7 7-.7 10.8-.5 17.4 2.4 7.3 3.3 5 5.4 8.9 9.5 3.4 3.6 6.1 4.3 8.2 9.3001.5 1.2 3.9 11.3 4.4 11.3.1 0 1.4 3.3 1.6 3.2 2.7-.9 5.4-6.6 8.3-6.1 1.5.3.3 15.1 1.8 14.4 1.9-.8 5.2-18.6 4.8-20.2-.8-3.3-4.9-7.4001-6.6-11.5001-2.5-6-3.2-12.7-6.3-18.5-1.7-3.3-4.9-8.3-7.9-10.4-1.1-.8-2.3-.8-3.4-1.7-1.4-1.3-2.4-2.9-3.7-4.4-3.1-3.7-8.8-4.9-13.2-5.6-4.7-.8-9.6 2-13.9 3.4-3.1 1-6.6 2-9.5 3.7-3.7 2.1-16.6 14.6-18.6 18.2-5.7 10.4-6.9 32.0001-.4 42.1001" fill="#4b2b20"/><path d="m170.9 119.5c-1.9-5.5-.2-9.4.6-15.2.6-4.4001 1.1-9.9001 3.9-13.2001 8-9.4 12.4-9.5 23.4-10.7 7-.7 10.8-.5 17.4 2.4 7.3 3.3 5 5.4 8.9 9.5 3.4 3.6 6.1 4.3 8.2 9.3001.5 1.2 3.9 11.3 4.4 11.3.1 0 1.4 3.3 1.6 3.2 2.7-.9 5.4-6.6 8.3-6.1 1.5.3.3 15.1 1.8 14.4 1.9-.8 5.2-18.6 4.8-20.2-.8-3.3-4.9-7.4001-6.6-11.5001-2.5-6-3.2-12.7-6.3-18.5-1.7-3.3-4.9-8.3-7.9-10.4-1.1-.8-2.3-.8-3.4-1.7-1.4-1.3-2.4-2.9-3.7-4.4-3.1-3.7-8.8-4.9-13.2-5.6-4.7-.8-9.6 2-13.9 3.4-3.1 1-6.6 2-9.5 3.7-3.7 2.1-16.6 14.6-18.6 18.2-5.7 10.4-6.9 32.0001-.4 42.1001" stroke="#4b2b20" stroke-linecap="round" stroke-linejoin="round"/><path d="m240.7 110.3c.8-1.5 2-2.7 3.1-3.9 3.8-4 6.8-1.8 9.1 2.3 5.8 10.6-10.1 33-13.2 16.8-.4-2.2-.4-4.4-.4-6.6-.1-3.4.8-5.2 1.4-8.6z" fill="#ebb89a"/><path d="m243.3 113.2c7.2-14.8999 11.7-.7 8.3 9.7" stroke="#000" stroke-linecap="round" stroke-linejoin="round" stroke-opacity=".1"/><path d="m244.2 115.3c-1 1.7.6 2.6.7 4.2.1 1.5-1 3.1-.5 4.5 1 3 8.2-6.2 3.1-9.6-1.2-.8-2.7.1-3.5 1" fill="#000" fill-opacity=".1"/><path d="m186.9 61c-2.2-1.9-1.9-4.7-2.6-7.2-.8-2.4-5.8-6.6-2.6-9.9 3.2-3.4 6.7-1.5 9.1-3.1 1-.7.8-2.7 2-3.2 1.4-.6 12.1-2.2 13-1.8 3.3 1.3 6 4.3 9.2 5.8 2.3 1.1 8.3 9.9 5.1 11.6-4 2.1-9.3-.8-13.4.6-5.8 1.9-11.4 9.2-18.1 6.4" fill="#4b2b20"/><path d="m186.9 61c-2.2-1.9-1.9-4.7-2.6-7.2-.8-2.4-5.8-6.6-2.6-9.9 3.2-3.4 6.7-1.5 9.1-3.1 1-.7.8-2.7 2-3.2 1.4-.6 12.1-2.2 13-1.8 3.3 1.3 6 4.3 9.2 5.8 2.3 1.1 8.3 9.9 5.1 11.6-4 2.1-9.3-.8-13.4.6-5.8 1.9-11.4 9.2-18.1 6.4" stroke="#4b2b20" stroke-linecap="round" stroke-linejoin="round"/><path d="m194.5 80.4999c11.1-2.6 15.3 8.4 22.1 13.6 1 .8 2.4.6 3.4 1.4 3.9 2.9 9.5 11.0001 10.5 15.7001" stroke="#4b2b20" stroke-linecap="round" stroke-linejoin="round"/><path d="m196 80.1999c16.5-.1 34.1 16.6 36.4 33.6001" stroke="#4b2b20" stroke-linecap="round" stroke-linejoin="round"/><path d="m192.5 156.7c1.3-2.1 2.6-4.8 4.7-6.2.9-.6 1.8-.1 2.7-.3.8-.2 1.4-1.5 2.4-1.6 3.4-.5 6.1.4 9.4 1 1.3.2 2.8.3 4.1-.1.6-.2 1.5-.6 1.5-.5-.6.9-3.4 3.1-4.3 4.1-7.5 7.9-10.6 10.3-20.3 4.2" fill="#ffabac"/><path d="m193.2 156.7c2.4-.5 4.1-2.8 6.6-3.1.8-.1 1.6.1 2.4 0 1.3-.3 2.2-1.5 3.5-1.6 1.9-.2 3.9 0 5.8-.5 1.6-.5 3.2-1.6 4.7-2" stroke="#000" stroke-linecap="round" stroke-linejoin="round" stroke-opacity=".1"/><path d="m206.4 135.1c3.2 5.5-3.9 4-5.5 5-1.3.8-1.9 2.4-3.3 3.1-1.3.6-2.4.3-3.6.1-2.2-.3-3.6 1.3-4.3-2.2" stroke="#000" stroke-linecap="round" stroke-linejoin="round" stroke-opacity=".1"/><path d="m196.3 109.2c1.4 1.2 1.9 2.6 3.6.9 3.2-3.4 7.9-6.8 12.6-7.3 1.8-.2 3.6-.3 5.4-.3.4 0 .9 0 1.3.1.1 0 .3.2.4.1.3-.9-6-1.6-6.6-1.6-6.2 0-12.2 3.8-16.7 7.8" fill="#4b2b20"/><path d="m196.3 109.2c1.4 1.2 1.9 2.6 3.6.9 3.2-3.4 7.9-6.8 12.6-7.3 1.8-.2 3.6-.3 5.4-.3.4 0 .9 0 1.3.1.1 0 .3.2.4.1.3-.9-6-1.6-6.6-1.6-6.2 0-12.2 3.8-16.7 7.8" stroke="#4b2b20" stroke-linecap="round" stroke-linejoin="round"/><path d="m184.9 115.3c0 .6.7 2.4-.1 2.7-3.3 1-6.4-.5-9.3 2-1.4 1.2-2.9 4.3-3.1 4.2-1-.5.6-4.4 1-5 1.8-2.4 4.1-2.5 6.6-3.5.7-.3 1.6-.2 2.4-.3.7-.1 1.8-.2 2.5-.2" fill="#4b2b20"/><path d="m184.9 115.3c0 .6.7 2.4-.1 2.7-3.3 1-6.4-.5-9.3 2-1.4 1.2-2.9 4.3-3.1 4.2-1-.5.6-4.4 1-5 1.8-2.4 4.1-2.5 6.6-3.5.7-.3 1.6-.2 2.4-.3.7-.1 1.8-.2 2.5-.2" stroke="#4b2b20" stroke-linecap="round" stroke-linejoin="round"/><path d="m203.2 119.5c3.1-6.1 9.8-9.1 16.1-7.4" stroke="#000" stroke-linecap="round" stroke-linejoin="round"/><path d="m211 112.5c-.6.3-1.2.6-1.6 1.1-1.9 2-.1 6 2.7 4.5 2.5-1.3 2.6-5.9-.8-5.4" fill="#000"/><path d="m211 112.5c-.6.3-1.2.6-1.6 1.1-1.9 2-.1 6 2.7 4.5 2.5-1.3 2.6-5.9-.8-5.4" stroke="#000" stroke-linecap="round" stroke-linejoin="round"/><path d="m189.3 125.8c-3.4-2-8.1-.9-11 1.6-1.1 1-1.8 2.4-2.9 3.4" stroke="#000" stroke-linecap="round" stroke-linejoin="round"/><path d="m183.9 124.9c-.6 0-1.3.3-1.7.7-1.7 1.8.8 4.9 2.8 3.8 2.7-1.4 2.2-4.8-1-4.6" fill="#000"/><path d="m183.9 124.9c-.6 0-1.3.3-1.7.7-1.7 1.8.8 4.9 2.8 3.8 2.7-1.4 2.2-4.8-1-4.6" stroke="#000" stroke-linecap="round" stroke-linejoin="round"/><path d="m122.7 279.4c-5.3 3.1-9.1 9.1-10.5 15.2-.5 2-.2 4.1-.7 6.1-.2.9-3.4 3.3-4.2 4.7-1.3 2.3-1.3 4.7-1.7 7.1-.4 1.9-1.8 3.3-2.1 5.2-.3 1.6.4 2.7.5 4.2.2 1.7-.8 3.2-1 4.9-.2 2 1.5 4.6.4 6.6-1.4 2.5-3.7998 2.9-4.9998 4.8-1.4 2.1-.5001 4.2-1.3001 6.2-.4.9-1.3999 1.1-1.7999 1.8-.8 1.3-1.9 5.6-1.5 7.1.8 3.2 7.4998 7.9 10.0998 9.9 1.5 1.2 2.8 2.8 4.5 3.7 4.4 2.5 10.1 3 14.8 4.9 3.4 1.4 6.6 3.6 10.3 4 9.8.9 22.6-3.6 31.8-6.6 4.7-1.5 14.2-2.8 17.8-6.6.8-.9 2.5-1.8 2.9-3.1.9-2.2.3-9-.2-11.3-.4-1.5-2.6-1.7-2.8-2.7-1.2-5-2.7-6.7-4.5-11-1.5-3.6-1.1-11.5-1.6-15.7-.4-2.6-.4-5.7-1.3-8.2-.5-1.5-1.3-2.8-1.6-4.4-.3-1.4-.1-3-.3-4.4-.6-3.5-4.4-9.4-7.5-11-4-2.1-12.9 5.8-17.8 1.9-3.4-2.6-14.3-6.6-18.5-8.5-2.6-1.1-3.5-4.7-6.6-4.7" fill="#d4805c"/><path d="m122.7 279.4c-5.3 3.1-9.1 9.1-10.5 15.2-.5 2-.2 4.1-.7 6.1-.2.9-3.4 3.3-4.2 4.7-1.3 2.3-1.3 4.7-1.7 7.1-.4 1.9-1.8 3.3-2.1 5.2-.3 1.6.4 2.7.5 4.2.2 1.7-.8 3.2-1 4.9-.2 2 1.5 4.6.4 6.6-1.4 2.5-3.7998 2.9-4.9998 4.8-1.4 2.1-.5001 4.2-1.3001 6.2-.4.9-1.3999 1.1-1.7999 1.8-.8 1.3-1.9 5.6-1.5 7.1.8 3.2 7.4998 7.9 10.0998 9.9 1.5 1.2 2.8 2.8 4.5 3.7 4.4 2.5 10.1 3 14.8 4.9 3.4 1.4 6.6 3.6 10.3 4 9.8.9 22.6-3.6 31.8-6.6 4.7-1.5 14.2-2.8 17.8-6.6.8-.9 2.5-1.8 2.9-3.1.9-2.2.3-9-.2-11.3-.4-1.5-2.6-1.7-2.8-2.7-1.2-5-2.7-6.7-4.5-11-1.5-3.6-1.1-11.5-1.6-15.7-.4-2.6-.4-5.7-1.3-8.2-.5-1.5-1.3-2.8-1.6-4.4-.3-1.4-.1-3-.3-4.4-.6-3.5-4.4-9.4-7.5-11-4-2.1-12.9 5.8-17.8 1.9-3.4-2.6-14.3-6.6-18.5-8.5-2.6-1.1-3.5-4.7-6.6-4.7" stroke="#d4805c" stroke-linecap="round" stroke-linejoin="round"/><path d="m117.7 314.2c1.7 4.8 3.1 10.1 6.2 14.2 1.8 2.4 4.1 4.4 5.4 7.1 3.5 6.9 2.5 11.8 10.8 14.2 5.4 1.6 10.7.2 16.2.6 5.1.4 9.1 3.9 13.7 5.7 2.9 1.1 5.8 1.1 8.4 3.2" stroke="#000" stroke-linecap="round" stroke-linejoin="round" stroke-opacity=".1"/><path d="m144.3 300.7c6.6 3.8 9 11.8 11.9 18.5 1.7 3.8 4.3 8.1 6.6 11.6.7 1.1 2.1 1.9 2.9 2.9 1.1 1.3 1.4 2.9 2.8 3.9 3.1 2.2 12.6 2.1 13.7 6.6" stroke="#000" stroke-linecap="round" stroke-linejoin="round" stroke-opacity=".1"/><path d="m106.5 322c5.4 6 13.4 10.8 21.2 12.8" stroke="#000" stroke-linecap="round" stroke-linejoin="round" stroke-opacity=".1"/><path d="m106.3 333.4c6 1.3 12.9 1.6 19 .6" stroke="#000" stroke-linecap="round" stroke-linejoin="round" stroke-opacity=".1"/><path d="m132.7 347.6c-5.8-1.9-20.3-3.6-25 .1" stroke="#000" stroke-linecap="round" stroke-linejoin="round" stroke-opacity=".1"/><path d="m131.2 346.1c-3.4-2.7-9-3.8-13.3-2.7" stroke="#000" stroke-linecap="round" stroke-linejoin="round" stroke-opacity=".1"/><path d="m155.3 296.5c7.5 5.8 9.8 16 9.8 25.2" stroke="#000" stroke-linecap="round" stroke-linejoin="round" stroke-opacity=".1"/><path d="m228.9 343.2c-1.8.7-3.5 1.5-5.4 2.1-4.6 1.6-9.7 2.2-14.2 4.1-5.2 2.2-10.3 4.7-15.6 6.4-2.1.7-4.3.7-6.5 1.3-5.4 1.6-10.8 3.6-16.1 5.6-6.3 2.4-12 7.2-18.6 8.9-9.5 2.5-18.7 2.3-28.4.8-8.9-1.3-39.6-15.9-46.3-8.9-5.3 5.5 14.5 9 16.5 9.4.8.1 4.1999.2 4.3999 1.2.2 1.2-4.4 2.5-5 2.8-2.8 1.1-24 5.6-21.1 10.7 1.9 3.3 19.4001 3.6 22.7001 3.8 10.4.5 20.8-.4 31.2 0 7 .3 13.8 1.2 20.8 1.5 8.2.4 16.5-.1 24.7-.3 22.8-.7 34.3-1.1 55.8-7.2 7-2 23.7-5 29.1-8.2 6-3.6 16.9-28.9 15.4-35.2-.5-2.2-3.4-4.2-5.2-5.1-7.8-4.1-27.4 3.2-35.8 5.4" fill="#ebb89a"/><path d="m302.3 203.6c-8.3-.5-13.1 5.8-18.1 11.9-14.3 17.4-17 33.6-24.8 54-2.5 6.5-7.2 11.6-9.9 18-4.7 11.1-8.1 24.6-13.7 35.1-1.4 2.6-10.3 18.8-9.3 21.3.5 1.2 4.1-1.1 5-1.2 3.4-.5 7.3-1 10.8-.6 4.6.5 9.1.7 13.4 2.7 4.1 1.9 7.7 5.5 12.3 6.1 4.2.6 8.3 1.9 12.6 2.4 10 1.3 24-.6 33.6 3.4 1.4.6 8.3 2.7 9.3 1.2 1.3-1.8-.3-8.1 0-10.4 1.3-10.6.2-19.9-1.5-30.2-.5-3.3.3-29.8.9-32.9.8-4.4 2.2-11.1 1.5-15.5-.4-2.7.1-5.5-.3-8.2-1.3-9.5-5.2-18.7-7-28-.9-4.8-1.3-10.4-3.5-14.9-1.5-3.1-7.8-17.6-12.6-14.3" fill="#deeaff"/><path d="m302.3 203.6c-8.3-.5-13.1 5.8-18.1 11.9-14.3 17.4-17 33.6-24.8 54-2.5 6.5-7.2 11.6-9.9 18-4.7 11.1-8.1 24.6-13.7 35.1-1.4 2.6-10.3 18.8-9.3 21.3.5 1.2 4.1-1.1 5-1.2 3.4-.5 7.3-1 10.8-.6 4.6.5 9.1.7 13.4 2.7 4.1 1.9 7.7 5.5 12.3 6.1 4.2.6 8.3 1.9 12.6 2.4 10 1.3 24-.6 33.6 3.4 1.4.6 8.3 2.7 9.3 1.2 1.3-1.8-.3-8.1 0-10.4 1.3-10.6.2-19.9-1.5-30.2-.5-3.3.3-29.8.9-32.9.8-4.4 2.2-11.1 1.5-15.5-.4-2.7.1-5.5-.3-8.2-1.3-9.5-5.2-18.7-7-28-.9-4.8-1.3-10.4-3.5-14.9-1.5-3.1-7.8-17.6-12.6-14.3" stroke="#deeaff" stroke-linecap="round" stroke-linejoin="round"/><path d="m281.3 196.6c-7 8-13.1 16.8-18.7 25.9-3.9 6.4-6.4 13.4-9.6 20.1-2.6 5.4-5.9 10.6-8.2 16.2-6.8 16.4-13.8 32.8-20.1 49.4-3.8 10-10.8 20.6-15.5 30.5" stroke="#000" stroke-linecap="round" stroke-linejoin="round" stroke-opacity=".1"/><path d="m262.9 240.8c-13.6 20.5-20.9 44.2-28 67.7-2.2 7.2-2.3 16.4-6.7 22.6" stroke="#000" stroke-linecap="round" stroke-linejoin="round" stroke-opacity=".1"/><path d="m316.6 242.6c-3.6.2-7.5.3-11.1 1.2-2.6.7-4.8 2.5-7.3 3.4-7.8 2.7-16.7 3.7-23.9 7.9-3.4 2-11.1 8.1-14 9.1" stroke="#000" stroke-linecap="round" stroke-linejoin="round" stroke-opacity=".1"/><path d="m302.3 205.1c-23.4 1.1-37.6 45.7-45.2 64.9-2.1 5.3-4.9 10.2-7.3 15.2-1.5 3-2.1 6.6-3.5 9.8-3 7-7.5 13.3-10.2 20.4-1.7 4.4-6.7 25.3-8.8 27.4" stroke="#000" stroke-linecap="round" stroke-linejoin="round" stroke-opacity=".1"/><path d="m166.4 231.2c5.9 4.7 7.5 14.5 7.5 21.8 0 8.1 1.8 25.1-2.4 31.7-1.1 1.7-2.7 4-4.3 5.1-2.1 1.5-9.2 4.8-11.6 5.1-2.3.3-3.7-1-5.8-1.4-9.5-1.6-20.5-5.5-25.2-15.2-2.2-4.6-1.4-11.1-1.2-16 .1-2.8-.1-5.7.4-8.5.8-4 2.9-8.1 5.4-11.2 6.5-8.1 14.4-9.4 23.9-10.3 5.4-.5 11.4-1.5 16.1 2.2" fill="#ffd1b6"/><path d="m123.7 264.4c-.9-2.2-4.2-3.5-6.6-3.5-1.5 0-1.3 3-1.2 4 .2 1.9 7.5 17.1 8.7 11.1.3-1.4.4-2.7.1-4.1-.2-1-.5-2-.7-2.9-.3-1.3.2-1.8-.3-3" fill="#ffd1b6"/><path d="m123 264.4c-1.9-.8-4.4-3.7-5.1-5.8-1.1-3.5.3-7.3.8-10.7.2-1.5-.2-3.5-.4-5-.7-4.6 1.5-11 3.4-15 3.8-7.9 12.3-8.5 19.6-9.4 2.3-.3 4.8-1 7.1-.4 4 .9 8 2.4 11.4 4.7 5 3.3 10.4 9.2 11.8 15.3.1.4 1.1 3.1.8 3.4-.5.5-4.1-1.3-4.9-1.4-2.1-.2-4.1-.8-6.2-.6-3.3.2-6.5 2-9.9 1.8-4.2-.3-8.4-3.3-12.8-2.1-5.6 1.5-10.7 6-11.5 12.2-.2 1.4-.2 3-.9 4.3-.7 1.2-1.6 2.4-2.3 3.6-.5 1.2-.2 4-.9 5.1z" fill="#b38a76"/><path d="m161.4 260c-4.1 1.6.4 6.2 2.4 3.3 1.1-1.7.1-4.3-2-3.4" fill="#886959"/><path d="m161.4 260c-4.1 1.6.4 6.2 2.4 3.3 1.1-1.7.1-4.3-2-3.4" stroke="#886959" stroke-linecap="round" stroke-linejoin="round"/><path d="m141 260.3c-.7.1-1.2.3-1.8.7-.8.5-1.1 1.3-1.1 2.2 0 4.4 9.3-.3 2.5-2.6" fill="#886959"/><path d="m141 260.3c-.7.1-1.2.3-1.8.7-.8.5-1.1 1.3-1.1 2.2 0 4.4 9.3-.3 2.5-2.6" stroke="#886959" stroke-linecap="round" stroke-linejoin="round"/><path d="m148 272.1c-.2.8-.1 1.7.8 1.8s1.3-1.1 2.3-.9c1.1.1 1.6 1.6 2.9 1.2.8-.2 1-1.2 1.7-1.3.8-.2 1.5 1.1 2.4.8.7-.3.5-1.4.4-2" stroke="#000" stroke-linecap="round" stroke-linejoin="round" stroke-opacity=".1"/><path d="m157.3 262.9c1.5-3.8 6.9-4.3 9.2-1.2" stroke="#e5bba3" stroke-linecap="round" stroke-linejoin="round"/><path d="m145.2 261.9c-3-3.3-7.3-1.1-10.1 1.4" stroke="#e5bba3" stroke-linecap="round" stroke-linejoin="round"/><path d="m147.3 283c4.4-4.5 6.1-2.5 6.8-2.7 2.5-.9 3.3-.6 5.5.9.4.3 1.9 1.6 1.7 2.1-1.7 4.2-11.6 3-14 .1" fill="#ffb1a4"/><path d="m160.7 282.9c-4.3-1.9-8.6-.4-12.8.7" stroke="#000" stroke-linecap="round" stroke-linejoin="round" stroke-opacity=".1"/><path d="m158 255.4c-.2 1.2.9 1.3 1.7 1.3 2.4 0 5.3-.7 7.6 0 .3.1 3.6 1.6 3.7 1.5 2.4-3.2-4.8-4.2-6-4.4-2.5-.3-4.8-.8-6.8 1" fill="#b38a76" fill-opacity=".254"/><path d="m146.8 254.7c.1.8-.2 1.2-.9 1.3-4.6.6-7.1-.1-11.8 1.9-.3.1-1.2.5-1.5.3-1.2-.8 1.8-3 2.4-3.2 2.5-1.1 8.6-1.9 11.2-.9" fill="#b38a76" fill-opacity=".254"/><path d="m119.6 263.2c-2.9-2.8-2.4 2.5-2.4 4.1" stroke="#000" stroke-linecap="round" stroke-linejoin="round" stroke-opacity=".1"/><path d="m120.8 266.5c-1.2.5-.3 7.2 1.4 6.3.9-.5 0-1.4-.1-2-.2-1.5 2.2-1.1-1-3.8" fill="#000" fill-opacity=".1"/><path d="m148.5 294.5c-1.1-1.2-2.3-2.8-3.7-3.5-2.7-1.4-6.1-.4-8.7-1.5-3-1.3-4.9-5.5-8.3-7.3-.8-.4-3.3-3.1-4.4-2.5-1 .5 2.8 7.6 3.2 8.5 2.7 5.2 14.7 7.5 19.9 6.8" fill="#d4805c"/><path d="m148.5 294.5c-1.1-1.2-2.3-2.8-3.7-3.5-2.7-1.4-6.1-.4-8.7-1.5-3-1.3-4.9-5.5-8.3-7.3-.8-.4-3.3-3.1-4.4-2.5-1 .5 2.8 7.6 3.2 8.5 2.7 5.2 14.7 7.5 19.9 6.8" stroke="#d4805c" stroke-linecap="round" stroke-linejoin="round"/><path d="m225.1 278.2c-1.9-1.8-3.7-4.2-4.9-6.7-1.2-2.6-5.1-11.2 2-10.3 1.8.2 3.7 2.8 4 4.6 0 .2.1 1.5.4 1.5.4 0 1.2-3.5 1.4-4 .6-1.2 1.8-2.8 3-3.1 1.7-.4 3.5 1.1 4 2.7.3 1 .8 3-1.3 6.6-2.8 4.8-6 6.3-8.5 8.9" fill="#ff473a"/><path d="m225.1 278.2c-1.9-1.8-3.7-4.2-4.9-6.7-1.2-2.6-5.1-11.2 2-10.3 1.8.2 3.7 2.8 4 4.6 0 .2.1 1.5.4 1.5.4 0 1.2-3.5 1.4-4 .6-1.2 1.8-2.8 3-3.1 1.7-.4 3.5 1.1 4 2.7.3 1 .8 3-1.3 6.6-2.8 4.8-6 6.3-8.5 8.9" stroke="#ff473a" stroke-linecap="round" stroke-linejoin="round"/><path d="m198.2 178.1c-2.4 5.8-5.4 11.3-7.5 17.1-8.6 23.8 12.6 29.6 29.8 22.4 10.3-4.3 19.7-14.4 26.5-23.3 3.6-4.7 8.6-12.8 6.7-18.8" stroke="#fff" stroke-dasharray="3 3" stroke-linecap="round" stroke-linejoin="round"/><path d="m244.4 98.3999c-4 3.2001-5 7.6001-5.8 12.5001-3.3 20.4 13.9 30.5 19.6 13.3 1.6-4.8 4.1-11.7 2.7-17-1.8-6.7-10.6-16.2001-16.4-8.2001" fill="#000"/><path d="m244.4 98.3999c-4 3.2001-5 7.6001-5.8 12.5001-3.3 20.4 13.9 30.5 19.6 13.3 1.6-4.8 4.1-11.7 2.7-17-1.8-6.7-10.6-16.2001-16.4-8.2001" stroke="#000" stroke-linecap="round" stroke-linejoin="round"/><path d="m245.3 97.4999c-.5-34-57.1-35.2-72.5-13.1-2.2 3.2-4.5 6.3-6.2 9.7-1 2-.3 4.9-.5 4.9-1.3 0-1.1-10.7-.9-11.8 3.4-24.2 63.9-35.4 78-6.5 3.5 7.2 12.3 17.5 2 17.5" fill="#000"/><path d="m245.3 97.4999c-.5-34-57.1-35.2-72.5-13.1-2.2 3.2-4.5 6.3-6.2 9.7-1 2-.3 4.9-.5 4.9-1.3 0-1.1-10.7-.9-11.8 3.4-24.2 63.9-35.4 78-6.5 3.5 7.2 12.3 17.5 2 17.5" stroke="#000" stroke-linecap="round" stroke-linejoin="round"/><path d="m242 124c-.9 1.9-2.3 3.3-3.4 5.1-6.8 10.4-10.5 11.5-19.4 18.3-.6.4.4 2.6.9 2.9 2.6 1.6 22.4-17.8 23.7-21.1.7-1.8-.7-5.9-2.6-4" fill="#000"/><path d="m242 124c-.9 1.9-2.3 3.3-3.4 5.1-6.8 10.4-10.5 11.5-19.4 18.3-.6.4.4 2.6.9 2.9 2.6 1.6 22.4-17.8 23.7-21.1.7-1.8-.7-5.9-2.6-4" stroke="#000" stroke-linecap="round" stroke-linejoin="round"/><path d="m252.8 130.8c10 52 47.7 73.3 38.6 133.5-2.8 18.3-20 31.1-17.4 50 3.5 25 39.7 52.3 20.6 78.3" stroke="#000" stroke-linecap="round" stroke-linejoin="round" stroke-width="3"/><g fill="#000"><path d="m143.4 19.4998-.1 2v.2.1999c0 .2-.1.4-.2.5s-.3.2001-.6.2001c-.2 0-.4-.1001-.5-.2001s-.2-.3-.2-.6v-.4l.1-2.6999c0-.2.1-.4.2-.5s.3-.2.6-.2h5.6c.4 0 .7.1.9.2s.3.3999.3.5999c0 .1 0 .3-.1.5s-.2.3-.3.5l-5.8 8.4001h4.5l.1-2.3001c0-.7.3-1.1.7-1.1.2 0 .4.1001.5.2001s.2.3.2.6v.4l-.1 3c0 .2-.1.4-.2.5s-.3.2-.6.2h-6.1c-.3 0-.5-.1-.7-.2s-.3-.4001-.3-.6001 0-.3.1-.5.2-.4.4-.6l5.6-8.0999h-4z"/><path d="m162.8 25.1998c0 1.4-.5 2.5-1.4 3.4-1 .9-2.2 1.2999-3.7 1.2999s-2.7-.3999-3.7-1.2999-1.4-2-1.4-3.4.5-2.5001 1.4-3.4001c1-.9 2.2-1.2999 3.7-1.2999s2.7.3999 3.7 1.2999c.9.9 1.4 2.0001 1.4 3.4001zm-5.1 3.4c1 0 1.8-.3 2.5-1 .6-.6 1-1.4 1-2.4s-.3-1.8001-1-2.4001c-.6-.6-1.5-1-2.5-1s-1.8.3-2.5 1c-.6.6-1 1.5001-1 2.4001 0 1 .3 1.8 1 2.4.6.7 1.5 1 2.5 1z"/><path d="m174.8 25.1998c0 1.4-.5 2.5-1.4 3.4-1 .9-2.2 1.2999-3.7 1.2999s-2.7-.3999-3.7-1.2999-1.4-2-1.4-3.4.5-2.5001 1.4-3.4001c1-.9 2.2-1.2999 3.7-1.2999s2.7.3999 3.7 1.2999c.9.9 1.4 2.0001 1.4 3.4001zm-5.1 3.4c1 0 1.8-.3 2.5-1 .6-.6 1-1.4 1-2.4s-.3-1.8001-1-2.4001c-.6-.6-1.5-1-2.5-1s-1.8.3-2.5 1c-.6.6-1 1.5001-1 2.4001 0 1 .3 1.8 1 2.4.7.7 1.5 1 2.5 1z"/><path d="m185.3 24.2997c0-.9-.1-1.5-.2-1.9-.2-.3-.4-.5-.9-.5s-.9.2001-1.1.6001-.4 1-.4 1.7v4.0999h.2c.4 0 .7 0 .8.1s.2.3.2.5-.1.4-.2.5-.3.2001-.5.2001h-1.2c-.3 0-.5-.1001-.6-.2001s-.2-.3999-.2-.7999v-.3001-4.0999-.8001c0-.5-.1-.8999-.3-1.1999s-.5-.4001-.9-.4001c-.3 0-.6.1001-.8.3001s-.5.3999-.6.7999v5.4h.4c.4 0 .6 0 .8.1s.2.3.2.5c0 .3-.1.5001-.2.6001s-.3.2-.6.2h-2.6c-.3 0-.4-.1-.6-.2s-.2-.3-.2-.5c0-.3.1-.4.2-.5.2-.1.4-.1001.9-.1001h.2v-6.2999h-.2c-.5 0-.8-.1001-.9-.2001-.2-.1-.2-.3-.2-.5s.1-.4.2-.5.3-.1999.6-.1999h1.5c.2 0 .4-.0001.4.0999s.1.2.1.5c.3-.3.6-.4999.9-.5999s.7-.2 1-.2c.5 0 .8.0999 1.1.2999s.5.5001.7.9001c.3-.4.6-.7001.9-.9001.4-.2.8-.2999 1.2-.2999.8 0 1.5.2999 1.8.7999s.6 1.4001.6 2.7001v4.3999h.2c.4 0 .7.0001.8.1001s.2.3.2.5-.1.4-.2.5-.3.2-.5.2h-1.2c-.3 0-.5-.1-.6-.2-.1-.2-.2-.4001-.2-.7001z"/><path d="m209.3 24.2997c0-.9-.1-1.5-.2-1.9-.2-.3-.4-.5-.9-.5s-.9.2001-1.1.6001-.4 1-.4 1.7v4.0999h.2c.4 0 .7 0 .8.1s.2.3.2.5-.1.4-.2.5-.3.2001-.5.2001h-1.2c-.3 0-.5-.1001-.6-.2001s-.2-.3999-.2-.7999v-.3001-4.0999-.8001c0-.5-.1-.8999-.3-1.1999s-.5-.4001-.9-.4001c-.3 0-.6.1001-.8.3001s-.5.3999-.6.7999v5.4h.4c.4 0 .6 0 .8.1s.2.3.2.5c0 .3-.1.5001-.2.6001s-.3.2-.6.2h-2.6c-.3 0-.4-.1-.6-.2s-.2-.3-.2-.5c0-.3.1-.4.2-.5.2-.1.4-.1001.9-.1001h.2v-6.2999h-.2c-.5 0-.8-.1001-.9-.2001-.2-.1-.2-.3-.2-.5s.1-.4.2-.5.3-.1999.6-.1999h1.5c.2 0 .4-.0001.4.0999s.1.2.1.5c.3-.3.6-.4999.9-.5999s.7-.2 1-.2c.5 0 .8.0999 1.1.2999s.5.5001.7.9001c.3-.4.6-.7001.9-.9001.4-.2.8-.2999 1.2-.2999.8 0 1.5.2999 1.8.7999s.6 1.4001.6 2.7001v4.3999h.2c.4 0 .7.0001.8.1001s.2.3.2.5-.1.4-.2.5-.3.2-.5.2h-1.2c-.3 0-.5-.1-.6-.2-.1-.2-.2-.4001-.2-.7001z"/><path d="m214.4 25.5999c.1.9.4 1.6999 1 2.1999s1.4.8001 2.4.8001c.8 0 1.6-.2001 2.5-.6001s1.4-.6 1.6-.6.4.1001.5.2001.2.3.2.5-.1.4-.2.5c-.1.2-.4.3-.7.5-.7.3-1.3.5999-2 .6999s-1.4.3001-2.1.3001c-1.5 0-2.7-.4001-3.6-1.3001s-1.3-2-1.3-3.4.5-2.6 1.4-3.5 2.2-1.2999 3.7-1.2999c1.4 0 2.5.3999 3.4 1.1999s1.4 1.8 1.4 3c0 .4-.1.6-.2.7-.2.1-.6.2001-1.2.2001h-.1-6.7zm0-1.2001h6.4c-.1-.8-.4-1.4-1-1.9-.5-.5-1.2-.7-2-.7-.9 0-1.6.2-2.2.7-.6.4-1 1.1-1.2 1.9z"/><path d="m226.4 25.5999c.1.9.4 1.6999 1 2.1999s1.4.8001 2.4.8001c.8 0 1.6-.2001 2.5-.6001s1.4-.6 1.6-.6.4.1001.5.2001.2.3.2.5-.1.4-.2.5c-.1.2-.4.3-.7.5-.7.3-1.3.5999-2 .6999s-1.4.3001-2.1.3001c-1.5 0-2.7-.4001-3.6-1.3001s-1.3-2-1.3-3.4.5-2.6 1.4-3.5 2.2-1.2999 3.7-1.2999c1.4 0 2.5.3999 3.4 1.1999s1.4 1.8 1.4 3c0 .4-.1.6-.2.7-.2.1-.6.2001-1.2.2001h-.1-6.7zm0-1.2001h6.4c-.1-.8-.4-1.4-1-1.9-.5-.5-1.2-.7-2-.7-.9 0-1.6.2-2.2.7-.6.4-1 1.1-1.2 1.9z"/><path d="m244.4 21.1997c.3 0 .6.1.7.2s.2.3.2.5-.1.4-.2.5-.3.2-.6.2h-4v3.3c0 1.1.1 1.8.4 2.1s.8.5 1.4.5 1.3-.2 2.1-.5 1.3-.5 1.5-.5.3.1.5.2.2.3.2.5-.1.4-.2.6c-.2.2-.4.3-.8.5-.6.3-1.2.4-1.7.6-.5.1-1 .2-1.4.2-.8 0-1.4-.1-1.9-.4s-.9-.6-1.2-1.1c-.1-.2-.2-.5-.3-.8s-.1-.8-.1-1.4v-.3-3.3h-1.7c-.3 0-.5-.1-.6-.2s-.2-.3-.2-.5c0-.3.1-.4.3-.5s.5-.1 1.1-.1h1.1v-2-.5c0-.3.1-.5.2-.6s.3-.2.6-.2.5.1.6.2c.1.2.2.5.2 1.1v2h3.8z"/><path d="m254.6 28.2998h3.1c.3 0 .4.1.6.2.1.1.2.3.2.5 0 .3-.1.5-.2.6s-.3.2-.6.2h-7.6c-.3 0-.5-.1-.6-.2s-.2-.3-.2-.5.1-.4.2-.5.3-.2.6-.2h3v-6.3h-1.9c-.3 0-.5-.1-.6-.2s-.2-.3-.2-.5.1-.4.2-.5.3-.2.6-.2h2.9c.2 0 .3 0 .4.1s.2.2.2.3v7.2zm-1.8-10.4c0-.7.1-1.1.2-1.3s.4-.3.8-.3.7.1.8.2c.1.2.2.5.2 1.1s-.1.9-.2 1-.4.2-.8.2-.7-.1-.8-.2-.2-.3-.2-.7z"/><path d="m262.1 28.2999v-6.3h-.2c-.4 0-.7-.1-.9-.2s-.2-.3-.2-.5.1-.4.2-.5.4-.2.7-.2h.5.9c.2 0 .3 0 .4.1s.1.2.1.3v.7c.5-.4.9-.8 1.4-1s.9-.3 1.5-.3c1 0 1.8.3 2.3.9.6.6.8 1.5.8 2.5v4.4h.5c.3 0 .6.1.7.2s.2.3.2.5c0 .3-.1.4-.2.5s-.4.2-.8.2h-2.2c-.4 0-.7 0-.8-.1s-.2-.3-.2-.6.1-.4.2-.5.4-.1.8-.1h.3v-4.1c0-.8-.2-1.3-.5-1.7s-.8-.6-1.5-.6-1.3.2-1.8.7-.8 1-.8 1.7v4.1h.3c.4 0 .7 0 .8.1s.2.3.2.5c0 .3-.1.5-.2.6s-.4.1-.9.1h-1.8-.5c-.3 0-.5-.1-.6-.2s-.2-.3-.2-.5c0-.3.1-.4.2-.5.2-.1.5-.1.9-.1h.4z"/><path d="m281.7 29.1997c0 .9 0 1.6-.1 1.9s-.2.7-.5 1c-.4.5-.9.8-1.5 1.1s-1.4.4-2.3.4c-.7 0-1.3-.1-1.6-.2s-.5-.4-.5-.7c0-.2.1-.4.2-.5s.4-.2.6-.2.4 0 .8.1c.4 0 .6.1.8.1 1 0 1.6-.2 2.1-.7.4-.4.6-1.2.6-2.3v-1.2c-.4.5-.8.8-1.3 1s-1 .3-1.7.3c-1.2 0-2.2-.4-3-1.2s-1.2-1.8-1.2-3.1c0-1.2.4-2.3 1.2-3.1s1.8-1.2 3-1.2c.5 0 1 .1 1.5.3s1 .5 1.5.8v-.7c0-.1 0-.2.1-.3s.2-.1.4-.1h1.5c.3 0 .5.1.6.2s.2.3.2.5c0 .3-.1.4-.2.5-.2.1-.5.2-.9.2h-.2v7.1zm-4.3-7.1c-.9 0-1.5.3-2.1.8-.5.5-.8 1.2-.8 2.1 0 .8.3 1.5.8 2s1.2.8 2.1.8c.8 0 1.5-.3 2.1-.8.5-.5.8-1.2.8-2s-.3-1.5-.8-2c-.5-.6-1.2-.9-2.1-.9z"/></g></svg>